<mxfile modified="2024-02-08T03:02:48.235Z" host="app.diagrams.net" agent="Mozilla/5.0 (X11; Linux x86_64) AppleWebKit/537.36 (KHTML, like Gecko) Chrome/120.0.0.0 Safari/537.36" etag="yNpxRSQxPV0vJvm92ho_" version="23.1.1" type="device">
  <diagram id="Ht1M8jgEwFfnCIfOTk4-" name="Page-1">
    <mxGraphModel dx="1152" dy="650" grid="1" gridSize="10" guides="1" tooltips="1" connect="1" arrows="1" fold="1" page="1" pageScale="1" pageWidth="1169" pageHeight="827" math="0" shadow="0">
      <root>
        <mxCell id="0" />
        <mxCell id="1" parent="0" />
        <mxCell id="a18a8NwcEKTHnreSH5_I-14" style="edgeStyle=none;shape=connector;rounded=0;orthogonalLoop=1;jettySize=auto;html=1;exitX=1;exitY=0;exitDx=0;exitDy=0;exitPerimeter=0;labelBackgroundColor=default;strokeColor=#808080;strokeWidth=2;align=center;verticalAlign=middle;fontFamily=Helvetica;fontSize=11;fontColor=default;startArrow=none;startFill=0;endArrow=open;endFill=0;dashed=1;" edge="1" parent="1" source="YLsZjU7J0pvw8m3y-JkY-22">
          <mxGeometry relative="1" as="geometry">
            <mxPoint x="620" y="400" as="targetPoint" />
          </mxGeometry>
        </mxCell>
        <mxCell id="a18a8NwcEKTHnreSH5_I-16" value="Data&lt;br&gt;Source" style="edgeLabel;html=1;align=center;verticalAlign=middle;resizable=0;points=[];fontSize=11;fontFamily=Helvetica;fontColor=default;" vertex="1" connectable="0" parent="a18a8NwcEKTHnreSH5_I-14">
          <mxGeometry x="-0.2867" y="-3" relative="1" as="geometry">
            <mxPoint y="-6" as="offset" />
          </mxGeometry>
        </mxCell>
        <mxCell id="YLsZjU7J0pvw8m3y-JkY-22" value="AppSync" style="sketch=0;points=[[0,0,0],[0.25,0,0],[0.5,0,0],[0.75,0,0],[1,0,0],[0,1,0],[0.25,1,0],[0.5,1,0],[0.75,1,0],[1,1,0],[0,0.25,0],[0,0.5,0],[0,0.75,0],[1,0.25,0],[1,0.5,0],[1,0.75,0]];outlineConnect=0;fontColor=#232F3E;fillColor=#E7157B;strokeColor=#ffffff;dashed=0;verticalLabelPosition=bottom;verticalAlign=top;align=center;html=1;fontSize=12;fontStyle=0;aspect=fixed;shape=mxgraph.aws4.resourceIcon;resIcon=mxgraph.aws4.appsync;fontFamily=Helvetica;" parent="1" vertex="1">
          <mxGeometry x="509" y="499" width="78" height="78" as="geometry" />
        </mxCell>
        <mxCell id="YLsZjU7J0pvw8m3y-JkY-25" value="S3 Bucket" style="sketch=0;outlineConnect=0;fontColor=#232F3E;gradientColor=none;fillColor=#7AA116;strokeColor=none;dashed=0;verticalLabelPosition=bottom;verticalAlign=top;align=center;html=1;fontSize=12;fontStyle=0;aspect=fixed;pointerEvents=1;shape=mxgraph.aws4.bucket;fontFamily=Helvetica;" parent="1" vertex="1">
          <mxGeometry x="91.5" y="650" width="75" height="78" as="geometry" />
        </mxCell>
        <mxCell id="YLsZjU7J0pvw8m3y-JkY-28" style="edgeStyle=orthogonalEdgeStyle;shape=connector;rounded=0;orthogonalLoop=1;jettySize=auto;html=1;labelBackgroundColor=default;strokeColor=#808080;strokeWidth=2;align=center;verticalAlign=middle;fontFamily=Helvetica;fontSize=11;fontColor=default;startArrow=none;startFill=0;endArrow=open;endFill=0;" parent="1" source="YLsZjU7J0pvw8m3y-JkY-27" target="MbnwJV5BuvSq8gmptT3g-1" edge="1">
          <mxGeometry relative="1" as="geometry" />
        </mxCell>
        <mxCell id="YLsZjU7J0pvw8m3y-JkY-27" value="Web App&lt;br&gt;&amp;lt;&amp;lt; Create Event &amp;gt;&amp;gt;" style="verticalLabelPosition=bottom;html=1;verticalAlign=top;align=center;strokeColor=none;fillColor=#879196;shape=mxgraph.azure.website_generic;pointerEvents=1;fontFamily=Helvetica;fontSize=11;fontColor=default;" parent="1" vertex="1">
          <mxGeometry x="85" y="326" width="78" height="66" as="geometry" />
        </mxCell>
        <mxCell id="YLsZjU7J0pvw8m3y-JkY-35" value="GraphQL&amp;nbsp;API &lt;br&gt;(websocket)" style="aspect=fixed;sketch=0;html=1;dashed=0;whitespace=wrap;fillColor=#2875E2;strokeColor=#ffffff;points=[[0.005,0.63,0],[0.1,0.2,0],[0.9,0.2,0],[0.5,0,0],[0.995,0.63,0],[0.72,0.99,0],[0.5,1,0],[0.28,0.99,0]];shape=mxgraph.kubernetes.icon2;prIcon=api;fontFamily=Helvetica;fontSize=11;fontColor=default;verticalAlign=top;labelPosition=center;verticalLabelPosition=bottom;align=center;" parent="1" vertex="1">
          <mxGeometry x="462" y="555.48" width="37" height="35.52" as="geometry" />
        </mxCell>
        <mxCell id="ktq1L8EpHOIYgB1N7dm--1" value="DynamoDB" style="sketch=0;points=[[0,0,0],[0.25,0,0],[0.5,0,0],[0.75,0,0],[1,0,0],[0,1,0],[0.25,1,0],[0.5,1,0],[0.75,1,0],[1,1,0],[0,0.25,0],[0,0.5,0],[0,0.75,0],[1,0.25,0],[1,0.5,0],[1,0.75,0]];outlineConnect=0;fontColor=#232F3E;fillColor=#C925D1;strokeColor=#ffffff;dashed=0;verticalLabelPosition=bottom;verticalAlign=top;align=center;html=1;fontSize=12;fontStyle=0;aspect=fixed;shape=mxgraph.aws4.resourceIcon;resIcon=mxgraph.aws4.dynamodb;" parent="1" vertex="1">
          <mxGeometry x="619.25" y="320" width="78" height="78" as="geometry" />
        </mxCell>
        <mxCell id="2S9McjqD3mCUEgwfo2Ch-2" style="shape=connector;rounded=0;orthogonalLoop=1;jettySize=auto;html=1;labelBackgroundColor=default;strokeColor=#808080;strokeWidth=2;align=center;verticalAlign=middle;fontFamily=Helvetica;fontSize=11;fontColor=default;startArrow=none;startFill=0;endArrow=open;endFill=0;entryX=0.9;entryY=0.2;entryDx=0;entryDy=0;entryPerimeter=0;" parent="1" source="czXvNrBnFdAudFENNiKl-3" target="a18a8NwcEKTHnreSH5_I-13" edge="1">
          <mxGeometry relative="1" as="geometry">
            <mxPoint x="580" y="590" as="targetPoint" />
          </mxGeometry>
        </mxCell>
        <mxCell id="a18a8NwcEKTHnreSH5_I-2" value="mutation" style="edgeLabel;html=1;align=center;verticalAlign=middle;resizable=0;points=[];" vertex="1" connectable="0" parent="2S9McjqD3mCUEgwfo2Ch-2">
          <mxGeometry x="-0.3308" relative="1" as="geometry">
            <mxPoint x="-15" as="offset" />
          </mxGeometry>
        </mxCell>
        <mxCell id="czXvNrBnFdAudFENNiKl-3" value="Lambda function" style="sketch=0;outlineConnect=0;fontColor=#232F3E;gradientColor=none;fillColor=#ED7100;strokeColor=none;dashed=0;verticalLabelPosition=bottom;verticalAlign=top;align=center;html=1;fontSize=12;fontStyle=0;aspect=fixed;pointerEvents=1;shape=mxgraph.aws4.lambda_function;" parent="1" vertex="1">
          <mxGeometry x="830" y="528.24" width="78" height="78" as="geometry" />
        </mxCell>
        <mxCell id="czXvNrBnFdAudFENNiKl-6" style="edgeStyle=orthogonalEdgeStyle;shape=connector;rounded=0;orthogonalLoop=1;jettySize=auto;html=1;labelBackgroundColor=default;strokeColor=#808080;strokeWidth=2;align=center;verticalAlign=middle;fontFamily=Helvetica;fontSize=11;fontColor=default;startArrow=open;startFill=0;endArrow=none;endFill=0;" parent="1" source="czXvNrBnFdAudFENNiKl-4" target="ktq1L8EpHOIYgB1N7dm--1" edge="1">
          <mxGeometry relative="1" as="geometry" />
        </mxCell>
        <mxCell id="czXvNrBnFdAudFENNiKl-7" value="&lt;br&gt;" style="edgeStyle=orthogonalEdgeStyle;shape=connector;rounded=0;orthogonalLoop=1;jettySize=auto;html=1;labelBackgroundColor=default;strokeColor=#808080;strokeWidth=2;align=center;verticalAlign=middle;fontFamily=Helvetica;fontSize=11;fontColor=default;startArrow=none;startFill=0;endArrow=open;endFill=0;" parent="1" edge="1">
          <mxGeometry relative="1" as="geometry">
            <Array as="points">
              <mxPoint x="870" y="470" />
              <mxPoint x="870" y="470" />
            </Array>
            <mxPoint x="870" y="440" as="sourcePoint" />
            <mxPoint x="870" y="520" as="targetPoint" />
            <mxPoint as="offset" />
          </mxGeometry>
        </mxCell>
        <mxCell id="czXvNrBnFdAudFENNiKl-4" value="DynamoDB&lt;br&gt;Stream" style="sketch=0;outlineConnect=0;fontColor=#232F3E;gradientColor=none;fillColor=#C925D1;strokeColor=none;dashed=0;verticalLabelPosition=bottom;verticalAlign=top;align=center;html=1;fontSize=12;fontStyle=0;aspect=fixed;pointerEvents=1;shape=mxgraph.aws4.dynamodb_stream;" parent="1" vertex="1">
          <mxGeometry x="830" y="320" width="78" height="78" as="geometry" />
        </mxCell>
        <mxCell id="czXvNrBnFdAudFENNiKl-10" value="" style="shape=image;verticalLabelPosition=bottom;labelBackgroundColor=default;verticalAlign=top;aspect=fixed;imageAspect=0;image=data:image/png,iVBORw0KGgoAAAANSUhEUgAABLAAAALeCAYAAAC6D+jfAAAAAXNSR0IArs4c6QAAIABJREFUeF7s3QmcXFWd9//f79zqJQtZCAoISMRAMEAnoVmMuARBBVlENC4oCorBZXT+4+zPM/NkMs/Ma8bZ1HlmVBhXRESbLSwiexQ1E7DppEmCCQFxWGVJCEl6qbr3/P59ekm6k+6kl7rdt2596vXSF9BV5577/t3avnUWFW4IIIAAAggggAACCCCAwDgLNDY21phZo/f+YhF5p5kdrqodIrJGRK7x3l/T2traLiJ+nLvG4RBAAAEEMiigGewTXUIAAQQQQAABBBBAAIH8CujJJ598cKlUulxEPiMiBw9xqhvNbJn3/s5Zs2ZtX7lyZZxfEs4MAQQQQGB/AgRY+xPi7wgggAACCCCAAAIIIFA2gcbGxoOSJPn/ROQPRWTqfhouichdZvbVQqHw0FFHHbW1qakpKVtnaAgBBBBAoGIECLAqplR0FAEEEEAAAQQQQACByhYI0waTJLnAzP5VVY8YwdlsVdUfq+oPCoXChgceeGCLiNgIHs9dEUAAAQQqXIAAq8ILSPcRQAABBBBAAAEEEKgUgYaGhsOdc38tIktH0eewFtbjqhrWx7qtvr7+N6tXr35lFO3wEAQQQACBChQgwKrAotFlBBBAAAEEEEAAAQQqUWDhwoUnee+/oaqNY+h/p5m1iEhTFEV3T5s2bdPKlSvD4u/cEEAAAQRyLECAlePicmoIIIAAAggggAACCGRJYMGCBYvN7GpVPawM/Qqjr+4XkRVJktxz7LHH/o71scqgShMIIIBARgUIsDJaGLqFAAIIIIAAAggggEDeBBoaGs5wzv1QRF5VxnN7VkRWishtURTd0dzc/GIZ26YpBBBAAIGMCBBgZaQQdAMBBBBAAAEEEEAAgbwLLFy48Awzu1ZEDirzuZqqPu69D0HWTaVS6c4NGzYUy3wMmkMAAQQQmEABAqwJxOfQCCCAAAIIIIAAAghUk0CKAVYfY2xmj4QRWVEUXdPc3LxaVdmtsJouMs4VAQRyK0CAldvScmIIIIAAAggggAACCGRLYBwCrL4TbheRdWZ2RxzH31u/fv3mbEnQGwQQQACBkQoQYI1UjPsjgAACCCCAAAIIIIDAqATGMcAK/Qsjr7aFIEtErlXVH7e0tLwwqo7zIAQQQACBCRcgwJrwEtABBBBAAAEEEEAAAQSqQ2CcA6w+1EREtppZs4hcUSgUwkLvbdUhzlkigAAC+REgwMpPLTkTBBBAAAEEEEAAAQQyLTBBAVafSdwbZN3pnPvKnDlzWpqamkK4xQ0BBBBAoAIECLAqoEh0EQEEEEAAAQQQQACBPAhMcIDVR+hF5EUR+a73/v+1trY+lQdbzgEBBBDIuwABVt4rzPkhgAACCCCAAAIIIJARgYwEWP01HjOzf/LeNz388MNhvawQbnFDAAEEEMigAAFWBotClxBAAAEEEEAAAQQQyKNABgOsPuZfOuf+znv/32vWrHmFICuPVx/nhAAClS5AgFXpFaT/CCCAAAIIIIAAAghUiECGA6wgGJvZdVEUfbWzs3PT+vXrt/buZFghunQTAQQQyLcAAVa+68vZIYAAAggggAACCCCQGYGMB1h9Ti+LyDeTJLm2trZ2c3Nzc5hayA0BBBBAYIIFCLAmuAAcHgEEEEAAAQQQQACBahGokAArlCOshbXZzL6tqnd47x9tbW3dWS114jwRQACBLAoQYGWxKvQJAQQQQAABBBBAAIEcClRQgNWtb2YdqvqAql6rqis7Ojoe27BhQzGHpeGUEEAAgcwLEGBlvkR0EAEEEEAAAQQQQACBfAhUWoDVT32Lqt4nIjc751Y2Nzc/LSJJPqrCWSCAAAKVIUCAVRl1opcIIIAAAggggAACCFS8QAUHWME+TCt8SkTucc7dWigUfvbAAw9sYaH3ir8sOQEEEKgQAQKsCikU3UQAAQQQQAABBBBAoNIFKjzA6uOPRWSTqt7rnLvhgAMOWLVy5cqOSq8N/UcAAQSyLkCAlfUK0T8EEEAAAQQQQAABBHIikJMAq68abar6iPf+LhG5eu3atRsYjZWTC5XTQACBTAoQYGWyLHQKAQQQQAABBBBAAIH8CeQswOor0LYQZJnZDd7777W2tj6fv8pxRggggMDECxBgTXwN6AECCCCAAAIIIIAAAlUhkNMAq692L4rIBlX9Vn19fdOqVavaq6KonCQCCCAwTgIEWOMEzWEQQAABBBBAAAEEEKh2gZwHWKG8YaH3F0TkQVX9yvnnn3/f8uXLw3/jhgACCCAwRgECrDEC8nAEEEAAAQQQQAABBBAYnkAVBFh9EGGh9+fN7HYR+fLatWvXD0+IeyGAAAIIDCVAgMW1gQACCCCAAAIIIIAAAuMiUEUBVrenqiYi8pSZXRnH8bfWrVv3+3GB5iAIIIBADgUIsHJYVE4JAQQQQAABBBBAAIEsClRbgNWvBiYia1X1n5xzP2lubt7eO90wi2WiTwgggEAmBQiwMlkWOoUAAggggAACCCCAQP4EqjjA6itmSUTu9N7/m3PuoTVr1rxCkJW/65wzQgCBdAQIsNJxpVUEEEAAAQQQQAABBBDYQ4AAaxfIK6p6jYh8q7a2dtPq1atDkMUNAQQQQGAfAgRYXB4IIIAAAggggAACCCAwLgIEWAOZzexJVf1G7Nytdaqbm5ub28alEBwEAQQQqEABAqwKLBpdRgABBBBAAAEEEECgEgUIsIas2hrv/ZVRFP2ss7Nz84YNG4qVWF/6jAACCKQpQICVpi5tI4AAAggggAACCCCAwC4BAqx9Xgxhfay7ReRHzrlfnnfeeY8vX77cc/kggAACCPQIEGBxJSCAAAIIIIAAAggggMC4CBBg7ZfZzGyrqv5ERG5W1V+2tLQ8s99HcQcEEECgCgQIsKqgyJwiAggggAACCCCAAAJZECDAGnYVEjP7nare7r2/1Tn332vWrHl52I/mjggggEAOBQiwclhUTgkBBBBAAAEEEEAAgSwKEGCNrCpm1qGqvxGRO83s+p07d67dvHlz58ha4d4IIIBAPgQIsPJRR84CAQQQQAABBBBAAIHMCxBgjbpEr4jIGlW9VkSua2lpeWHULfFABBBAoEIFCLAqtHB0GwEEEEAAAQQQQACBShMgwBpTxbyqPm1m18Vx/OV169Y9JSI2phZ5MAIIIFBBAgRYFVQsuooAAggggAACCCCAQCULEGCVpXrbRKQpjuO/Wrdu3e/L0iKNIIAAAhUgQIBVAUWiiwgggAACCCCAAAII5EGAAKtsVdwpIv/uvf/71tbW8M/cEEAAgdwLEGDlvsScIAIIIIAAAggggAAC2RAgwCprHUJw9YE1a9b8VER8WVumMQQQQCCDAgRYGSwKXUIAAQQQQAABBBBAII8CBFjlraqZPfzSSy+d+tRTT7WXt2VaQwABBLInQICVvZrQIwQQQAABBBBAAAEEcilAgFX+sqrqx1taWq4qf8u0iAACCGRLgAArW/WgNwgggAACCCCAAAII5FaAAKv8pTWz+9euXbuYaYTlt6VFBBDIlgABVrbqQW8QQAABBBBAAAEEEMitAAFW+UtrZr62tnb2gw8++GT5W6dFBBBAIDsCBFjZqQU9QQABBBBAAAEEEEAg1wIEWKmVNyzm3pRa6zSMAAIIZECAACsDRaALCCCAAAIIIIAAAghUgwABVmpV/ps1a9YsT611GkYAAQQyIECAlYEi0AUEEEAAAQQQQAABBKpBgAArtSp/bc2aNZ9LrXUaRgABBDIgQICVgSLQBQQQQAABBBBAAAEEqkGAACu1Kn93zZo1l6bWOg0jgAACGRAgwMpAEegCAggggAACCCCAAALVIECAlU6VVfWqlpaWj6fTOq0igAAC2RAgwMpGHegFAggggAACCCCAAAK5FyDASqfEBFjpuNIqAghkS4AAK1v1oDcIIIAAAggggAACCORWgAArndISYKXjSqsIIJAtAQKsbNWD3iCAAAIIIIAAAgggkFsBAqx0SkuAlY4rrSKAQLYECLCyVQ96gwACCCCAAAIIIIBAbgUIsNIpLQFWOq60igAC2RIgwMpWPegNAggggAACCCCAAAK5FSDASqe0BFjpuNIqAghkS4AAK1v1oDcIIIAAAggggAACCORWgAArndISYKXjSqsIIJAtAQKsbNWD3iCAAAIIIIAAAgggkFsBAqx0SkuAlY4rrSKAQLYECLCyVQ96gwACCCCAAAIIIIBAbgUIsNIpLQFWOq60igAC2RIgwMpWPegNAggggAACCCCAAAK5FSDASqe0BFjpuNIqAghkS4AAK1v1oDcIIIAAAggggAACCORWgAArndISYKXjSqsIIJAtAQKsbNWD3iCAAAIIIIAAAgggkFsBAqx0SkuAlY4rrSKAQLYECLCyVQ96gwACCCCAAAIIIIBAbgUIsNIpLQFWOq60igAC2RIgwMpWPegNAggggAACCCCAAAK5FSDASqe0BFjpuNIqAghkS4AAK1v1oDcIIIAAAggggAACCORWgAArndISYKXjSqsIIJAtAQKsbNWD3iCAAAIIIIAAAgggkFsBAqx0SkuAlY4rrSKAQLYECLCyVQ96gwACCCCAAAIIIIBAbgUIsNIpLQFWOq60igAC2RIgwMpWPegNAggggAACCCCAAAK5FSDASqe0BFjpuNIqAghkS4AAK1v1oDcIIIAAAggggAACCORWgAArndISYKXjSqsIIJAtAQKsbNWD3iCAAAIIIIAAAgggkFsBAqx0SkuAlY4rrSKAQLYECLCyVQ96gwACCCCAAAIIIIBAbgUIsNIpLQFWOq60igAC2RIgwMpWPegNAggggAACCCCAAAK5FSDASqe0BFjpuNIqAghkS4AAK1v1oDcIIIAAAggggAACCORWgAArndISYKXjSqsIIJAtAQKsbNWD3iCAAAIIIIAAAgggkFsBAqx0SkuAlY4rrSKAQLYECLCyVQ96gwACCCCAAAIIIIBAbgUIsNIpLQFWOq60igAC2RIgwMpWPegNAggggAACCCCAAAK5FSDASqe0BFjpuNIqAghkS4AAK1v1oDcIIIAAAggggAACCORWgAArndISYKXjSqsIIJAtAQKsbNWD3iCAAAIIIIAAAgggkFsBAqx0SkuAlY4rrSKAQLYECLCyVQ96gwACCCCAAAIIIIBAbgUIsNIpLQFWOq60igAC2RIgwMpWPegNAggggAACCCCAAAK5FSDASqe0BFjpuNIqAghkS4AAK1v1oDcIIIAAAggggAACCORWgAArndISYKXjSqsIIJAtAQKsbNWD3iCAAAIIIIAAAgggkFsBAqx0SkuAlY4rrSKAQLYECLCyVQ96gwACCCCAAAIIIIBAbgUIsNIpLQFWOq60igAC2RIgwMpWPegNAggggAACCCCAAAK5FSDASqe0BFjpuNIqAghkS4AAK1v1oDcIIIAAAggggAACCORWgAArndISYKXjSqsIIJAtAQKsbNWD3iCAAAIIIIAAAgggkFsBAqx0SkuAlY4rrSKAQLYECLCyVQ96gwACCCCAAAIIIIBAbgUIsNIpLQFWOq60igAC2RIgwMpWPegNAggggAACCCCAAAK5FSDASqe0BFjpuNIqAghkS4AAK1v1oDcIIIAAAggggAACCORWgAArndISYKXjSqsIIJAtAQKsbNWD3iCAAAIIIIAAAgggkFsBAqx0SkuAlY4rrSKAQLYECLCyVQ96gwACCCCAAAIIIIBAbgUIsNIpLQFWOq60igAC2RIgwMpWPegNAggggAACCCCAAAK5FSDASqe0BFjpuNIqAghkS4AAK1v1oDcIIIAAAggggAACCORWgAArndISYKXjSqsIIJAtAQKsbNWD3iCAAAIIIIAAAgggkFsBAqx0SkuAlY4rrSKAQLYECLCyVQ96gwACCCCAAAIIIIBAbgUIsNIpLQFWOq60igAC2RIgwMpWPegNAggggAACCCCAAAK5FSDASqe0BFjpuNIqAghkS4AAK1v1oDcIIIAAAggggAACCORWgAArndISYKXjSqsIIJAtAQKsbNWD3iCAAAIIIIAAAgggkFsBAqx0SkuAlY4rrSKAQLYECLCyVQ96gwACCCCAAAIIIIBAbgUIsNIpLQFWOq60igAC2RIgwMpWPegNAggggAACCCCAAAK5FSDASqe0BFjpuNIqAghkS4AAK1v1oDcIIIAAAggggAACCORWgAArndISYKXjSqsIIJAtAQKsbNWD3iCAAAIIIIAAAgggkFsBAqx0SkuAlY4rrSKAQLYECLCyVQ96gwACCCCAAAIIIIBAbgUIsNIpLQFWOq60igAC2RIgwMpWPegNAggggAACCCCAAAK5FSDASqe0BFjpuNIqAghkS4AAK1v1oDcIIIAAAggggAACCORWgAArndISYKXjSqsIIJAtAQKsbNWD3iCAAAIIIIAAAgggkFsBAqx0SkuAlY4rrSKAQLYECLCyVQ96gwACCCCAAAIIIIBAbgUIsNIpLQFWOq60igAC2RIgwMpWPegNAggggAACCCCAAAK5FSDASqe0BFjpuNIqAghkS4AAK1v1oDcIIIAAAggggAACCORWgAArndISYKXjSqsIIJAtAQKsbNWD3iCAAAIIIIAAAgggkFsBAqx0SkuAlY4rrSKAQLYECLCyVQ96gwACCCCAAAIIIIBAbgUIsNIpLQFWOq60igAC2RIgwMpWPegNAggggAACCCCAAAK5FSDASqe0BFjpuNIqAghkS4AAK1v1oDcIIIAAAggggAACCORWgAArndISYKXjSqsIIJAtAQKsbNWD3iCAAAIIIIAAAgggkFsBAqx0SkuAlY4rrSKAQLYECLCyVQ96gwACCCCAAAIIIIBAbgUIsNIpLQFWOq60igAC2RIgwMpWPegNAggggAACCCCAAAK5FSDASqe0BFjpuNIqAghkS4AAK1v1oDcIIIAAAggggAACCORWgAArndISYKXjSqsIIJAtAQKsbNWD3iCAAAIIIIAAAgggkFsBAqx0SkuAlY4rrSKAQLYECLCyVQ96gwACCCCAAAIIIIBAbgUIsNIpLQFWOq60igAC2RIgwMpWPegNAggggAACCCCAAAK5FSDASqe0BFjpuNIqAghkS4AAK1v1oDcIIIAAAggggAACCORWgAArndISYKXjSqsIIJAtAQKsbNWD3iCAAAIIIIAAAgggkFsBAqx0SkuAlY4rrSKAQLYECLCyVQ96gwACCCCAAAIIIIBAbgUIsNIpLQFWOq60igAC2RIgwMpWPegNAggggAACCCCAAAK5FSDASqe0BFjpuNIqAghkS4AAK1v1oDcIIIAAAggggAACCORWgAArndISYKXjSqsIIJAtAQKsbNWD3iCAAAIIIIAAAgggkFsBAqx0SkuAlY4rrSKAQLYECLCyVQ96gwACCCCAAAIIIIBAbgUIsNIpLQFWOq60igAC2RIgwMpWPegNAggggAACCCCAAAK5FSDASqe0BFjpuNIqAghkS4AAK1v1oDcIIIAAAggggAACCORWgAArndISYKXjSqsIIJAtAQKsbNWD3iCAAAIIIIAAAgggkFsBAqx0SkuAlY4rrSKAQLYECLCyVQ96gwACCCCAAAIIIIBAbgUIsNIpLQFWOq60igAC2RIgwMpWPegNAggggAACCCCAAAK5FSDASqe0BFjpuNIqAghkS4AAK1v1oDcIIIAAAggggAACCORWgAArndISYKXjSqsIIJAtAQKsbNWD3iCAAAIIIIAAAgggkFsBAqx0SkuAlY4rrSKAQLYECLCyVQ96gwACCCCAAAIIIIBAbgUIsNIpLQFWOq60igAC2RIgwMpWPegNAggggAACCCCAAAK5FSDASqe0BFjpuNIqAghkS4AAK1v1oDcIIIAAAggggAACCORWgAArndISYKXjSqsIIJAtAQKsbNWD3iCAAAIIIIAAAgggkFsBAqx0SkuAlY4rrSKAQLYECLCyVQ96gwACCCCAAAIIIIBAbgUIsNIpLQFWOq60igAC2RIgwMpWPegNAggggAACCCCAAAK5FSDASqe0BFjpuNIqAghkS4AAK1v1oDcIIIAAAggggAACCORWgAArndISYKXjSqsIIJAtAQKsbNWD3iCAAAIIIIAAAgggkFsBAqx0SkuAlY4rrSKAQLYECLCyVQ96gwACCCCAAAIIIIBAbgUIsNIpLQFWOq60igAC2RIgwMpWPegNAggggAACCCCAAAK5FSDASqe0BFjpuNIqAghkS4AAK1v1oDcIIIAAAggggAACCORWgAArndISYKXjSqsIIJAtAQKsbNWD3iCAAAIIIIAAAgggkFsBAqx0SkuAlY4rrSKAQLYECLCyVQ96gwACCCCAAAIIIIBAbgUIsNIpLQFWOq60igAC2RIgwMpWPegNAggggAACCCCAAAK5FSDASqe0BFjpuNIqAghkS4AAK1v1oDcIIIAAAggggAACCORWgAArndISYKXjSqsIIJAtAQKsbNWD3iCAAAIIIIAAAgggkFsBAqx0SkuAlY4rrSKAQLYECLCyVQ96gwACCCCAAAIIIIBAbgUIsNIpLQFWOq60igAC2RIgwMpWPegNAggggAACCCCAAAK5FSDASqe0BFjpuNIqAghkS4AAK1v1oDcIIIAAAggggAACCORWgAArndISYKXjSqsIIJAtAQKsbNWD3iCAAAIIIIAAAgggkFsBAqx0SkuAlY4rrSKAQLYECLCyVQ96gwACCCCAAAIIIIBAbgUIsNIpLQFWOq60igAC2RIgwMpWPegNAggggAACCCCAAAK5FSDASqe0BFjpuNIqAghkS4AAK1v1oDcIIIAAAggggAACCORWgAArndISYKXjSqsIIJAtAQKsbNWD3iCAAAIIIIAAAgggkFsBAqx0SkuAlY4rrSKAQLYECLCyVQ96gwACCCCAAAIIIIBAbgUIsNIpLQFWOq60igAC2RIgwMpWPegNAggggAACCCCAAAK5FSDASqe0BFjpuNIqAghkS4AAK1v1oDcIIIAAAggggAACCORWgAArndISYKXjSqsIIJAtAQKsbNWD3iCAAAIIIIAAAgggkFsBAqx0SkuAlY4rrSKAQLYECLCyVQ96gwACCCCAAAIIIIBAbgUIsNIpLQFWOq60igAC2RIgwMpWPVLtzeLFiwudnZ01L7/88oxCoXC0c+5IVZ3mnCt5758vFAqP1NXVPbN169bODRs2lETEUu0QjSOAAAIIIIAAAghUlQABVjrlJsBKx5VWEUAgWwIEWNmqRyq9mT17dv2MGTMOMbN3quoSEXmjiEwd5GBmZk+IyK0icrWqblqzZs0rIuJT6RiNIoAAAggggAACCFSVAAFWOuUmwErHlVYnXMAtXry4tr29vXbHjh2FKVOm6M6dO62+vj4RkdJRRx3V2dTUFP6ZW5UIEGDluNCNjY01SZIcZmZnicgfqOpxwz1dMyuq6g+jKPp6sVjc9PDDD7/MiKzh6nE/BBCYKIFly5a5LUdvDgH9NFdbNyURXxs5r1IU8YUo3r6zvU0t2VlTmvnylZdfGUaackMAAQQQGEcBAqx0sAmw0nGl1YkRmDNnTt306dMPNrPXJElykqq+QUQOE5FJIlI0s+dVdaOqNjvnntixY8fzGzdu3MH31Ymp13gelQBrPLXH71ju+OOPP6xQKDSq6ufN7HQRGW2tf++9/6Zz7rpisbh5w4YN4YWBGwIIIJAtARP9dNPHXlOv7mg1eaOJLhKxBSJ6sIrUmIj3Zq90dnau7+gorfcm94qPHpEdW3/7/T+9c2e2TobeIIAAAvsWCMtCbNu2bWapVApLQUxyzhVU1VQ1/AAZXtO2NTc3b8/iKHoCrHSubgKsdFxpdXwF5s2bV1tTUzM7iqKTzexiM3uziEzZRy86RWRN10CNJu/9vYVCYWNzc3Pb+Paao42nwGhDjfHsI8cagcDChQtfZWYLzOzDqvpBEZk8gocPddeSmbWq6neiKLpn27Ztv928eXN4seCGAAIITLjA0ms+fFBdTe2JTvX9TvTCGhfN6utU90J+1rOcX/h/n5js3NkpcSkOgdbqWJJr46S0clP09CPNlzczImvCq0kHEEBgXwINDQ1TzOxYVT3GOXeiiBwtIq8xs/B5Lyz58LKq/o+IrBeRVjN7tFAo/La5OTuvbwRY6VzjBFjpuNLquAm4BQsWvFZV32hml5rZmarqRnD0EOC3mNm3VHXl9OnTN61cuTIeweO5a4UIEGBVSKH218158+ZNra2tbRCRc0TkwyJypIiM5Em/v0OEv4f1sO4TkaYoiu5vbm5+WkSYczwcOe6DAAJlF7j4ny+eMuNwOzEqFM6JnF4cueg1u5Kq3qPtGWCFFKtYjKWtrShmXnz4f5/co95+0F7y9//oCzc9VvaO0iACCCAwRoEwKqFQKCx0zr1VRN5jZmGUff1+mv29qt5vZrfFcXz/unXrMvH6RoA1xothiIcTYKXjSqvpC/QOwDila8DEhap6oYjMGMNRYzP7ae9SOL9obm5+kmmFY9DM4EMJsDJYlJF0KaxzVSqV5kZR9E4ze5+ZnTiMDzQjOcSe9w0LvT/VlY7/1Dl3S6FQ+NUDDzzw0lga5LEIIIDASASW/HhJdIivO96pO6tQcO8ruKhRRN2ubVP77Z86WIAVBmS1tXVKsbh7wJWZbUvErzDxN21P7Jc3fubG50fSJ+6LAAIIpCSgjY2Nc7337zCz94vIaSISjfBYW0XkdhG5KYqi+5qbm18c4ePLencCrLJy7mqMACsdV1pNT6CxsXFyHMcnOufOCeGViLx+FK9vg3UwfPx7QURWdH03vjmO41+tX79+S3pnQsvjKUCANZ7a5T2WNjQ0HKaqYWfB80Qk/CJ3YHkPsc/WSqr6GzO7XVVv2rp1a8sTTzzRMY7H51AIIFCFAp/7wUVHRjXuXTWFwvmRurepas+OqqbdUwR7/nk3zGABVvhrHHvZuaNDvO3eZNX68LKFAAAgAElEQVREEjP/W292a0n8zdErOx5gfawqvMg4ZQQyItDY2HhoqVR6h3MufM57h4hMH2PXfquqt3nvb5k8efL9q1atah9je6N6OAHWqNj2+yACrP0ScYeMCPSu4XeMmYWZQ+/pCpoWlmnZmz3PMEwh3Ghmt6rqzTNmzHho5cqVfF/NyHUw2m4QYI1WbgIfd9pppx2wY8eO8MXtfSKyWESOKFNaPZqz2mFmLSJyW5Ik161bt+63WVwwdDQnxmMQQCA7Ahd97aKZsw6MTq+riy4Q1bc7cYdq/2nSIwywwpmFaYSdHcW9trgwsTZvts6b/cR8cn3HrMIjTR9gi+bsXA30BIF8C4RlIerq6t7SOyLhzDJ/zutb1/SnZnb92rVr14735zYCrHSuXwKsdFxptawCevLJJx9cLBbf3bVeVQiuFonIQWPYbGy4nduhqg+FIMvMVlxwwQWbly9fvvsXzOG2wv0yIUCAlYkyDK8TIa3eunXrCar6MREJH2jCwp11w3t06vd63sweCutjlUqlH7NbYereHACBqhD4/L+fXecPmnFi3aS6D0eq73DqXrfrda/fSKuRjsAKeIn3smN7pyRJIjrIu6GJbDGz5lKS3Njp229s+txPnqsKdE4SAQQmRKDf57wPici7zGxuSstChFfPV8zs16p6S01NzQ0PPvhgWCdmXG4EWOkwE2Cl40qr5REI0wXN7K3e+7BWc5g5NN4DMEJgFaYVrlbV65xzt0/0dOryyFZfKwRYFVLzU089NaTVYUeGC3t3nzkgg10PLwxPdQ0HfVBVr2hpabk7bOmcwX7SJQQQyLqAiX722ksPr6v1Hy84vcA5d4yqHhCmBw42VXA0AZaJSbEzkZ07O6T7zXCvd8Tu/5CY2XMm/lfFxK5yO165j2mFWb946B8ClSewcOHC13jvP9i7gPHxvdMF0/6cHjbiCT9ArjKza9ra2u7avHlz2LAn1RsBVjq8BFjpuNLq2ASWLFkSbd68eW7XGsqXichZZva6lIL54XY0LIAaNiL7WZIk325vb1+9efPmzuE+mPtNvEDab4wTf4YV3oPeOcJLROQzZvYGEQnbw2e9buGF4XddC43eZWZfWbt27aYKLwPdRwCBcRS4+KqLp0yv8++dVFtzmYs0fJE7ULvHSGl3elXOACssgbVzZ6eUSvGQIZZ2D8+yTjN7JrHkzkSTrx71VMNGhp+P40XBoRDIqUBDQ8OU3vVMPyUijb2f80a6SPtYdcKXt2dFJPzweMX06dPXpLn9PAHWWMs1+OMJsNJxpdXRC4Rlb3bu3PlpEfmIiIQR9NNG31rZH9lmZmHk6U3Oua+3tLT8D7sVlt04lQazHoSkctKV0uj8+fPDdqL/yznXNz/YVUrfe/vZJiJhTazv1dbWfpvdCiusenQXgXEWMBP99Pc/1DjlgLr/XVtwp4npgaK9u211p1blD7BCGpYkJtu3t4uFDgzyrqjhuLv+YG3m/bOd5r+9TTq/csvlt4TXOW4IIIDAiASWLVvmbrvttnlxHP+JqobpguEHypoRNVL+O4dF3cMXumtqamquePDBB3+fxhc6AqzyF677HVL1qpaWlo+n0zqtIjB8gfD6tmLFivPM7C9Vde44jSgdfgcH3nN7+L7qnPvPjo6O727YsKE42oZ43PgIEGCNj/OIjrJo0aLD2tvb/6Rr14QwRzh8oCmMqIFs3Tl87dxpZmtV9Z+LxeLtvDBkq0D0BoEsCFz0g3NmHlR/4PJJNTUfdSphinT3697A0VbpBFjhOO3tJenoKA4xCitEZ/1DrO6OtcdW+l1H7P/82s/ecHMWDOkDAghUhkAYlbB9+/YvquqnVTXsIF2boZ6Hl92wS9emrmk+/7h9+/Ybyz29hgArnWoTYKXjSqsjEzjuuOPmFwqFv1bVsF5z+DxXCQMwwute+EGyWUT+cs2aNb8a2Vlz7/EUIMAaT+39HCssbpckSRhi+RciMrtCnvDDFewOsrqGx98Sx/E/rlu3rnW4D+R+CCCQX4FltsxtvW7TJ+pqa/6hEBUOFBv4QWe8AizvwyisDvHeDz2VsDvE2qsWpWJcvKuz0//5j/7wxnX5rRRnhgACZRDQ+fPnv1dV/0VEjqyAz3leVe9KkuRPWltby/b6RoBVhitpkCYIsNJxpdXhCTQ2Nh7kvf/D3mVvQjBfiTlD+NgZlsK5qq6ubvnq1aufGt7Zc6/xFKjEC2s8fcbjWLp48eK6l19++S2q+hdm9uaM/RKXhsEzZvb1JEm+d9BBBz2b5joLaXSeNhFAYIwCJvr52z9f67e88OZJU2r+b00hOkVUo74pgv1bH68AKxyzs5RI244w8KDfjMEBpxpW4hribdP8tqIl3yh2Fv/9uRdfeX7l8pXxGJV4OAII5ENA582bV+Oca4ii6O97RyVUwoiE/vpF7/3X6urqvjRlypQXx/q5jQArnQubACsdV1rdp4A79dRTp3Z0dJwfvseKSFivudJe3wY7wfDx8xnv/T+Z2fePPfbYV5qamsKmF9wyIECANXFF0MbGxklxHIctksPCnR8MCxVPXHfG/cimqs1m9uWampp7Z8+e/QIvDONeAw6IwHgL6NJblk6q27nt6Jr62s/VFaKw49a03Quz90wRnKgAK/Em7W3F7gXdhwqx9ppK2K+zKuITSzbGJv8SFeyWmtLMl6+8/MrwSx43BBCoQoFFixZNKpVKry2VSp9S1U+KyIwKZgivzk+GaYWTJk26vrOzc2tzc/OoXt8IsNK5Cgiw0nGl1UEF3Jw5c6ZOmTKlUVW/ICLvFJHJObQqmtlq59y/mNnPjz766O18X534KhNgTUANZs+eXT9r1qzZSZKc27WNZwivjpmAbmTlkGHnm1tE5D9ra2sffuCBB7aksWBoVk6WfiBQrQKX3HdJ/bSXike4SN9bG0WfjpwL2yj3cOzaWXBiA6zuceOlRNrbOiVMKezu3aCLurshB8Z371co1hF7f0/i5WuxRg/EM+OtTR/gl7tqvfY57+oTmDNnTt3UqVMPFZFzROSzIhIWMR7vnQXTgg9f6H7RtXbXv3vvVx144IFbRjoiiwArndIQYKXjSqsDBLShoSEEVXOdcx8ys4tV9ZC8G5nZFlW9oWuJn+9GUbSuubk5LPzu837eWT0/AqxxrMySJUuiRx999AgROU1ELlPVt5hZXj7QjFXyhbBbYZIk16rqb1pbW8N6WdwQQKDCBZZesbSm/tCthzqteUtB3KciF70pEq0ZkABlKMAyb9LRUZLOzp6BBYOHWGEc1qDrYQ24vxd7Lkl8k8S+aWekrU1Lm14R3XOMWYUXmO4jgMAugcWLFxe2bt16cNg92sw+ISJvy+mohHDOL6nqdV1fZH9YLBYfXr9+/dZh/gAZvgC/yzn3IxGZxuVTPgECrPJZ0tLeAvPmzautr69/fZIkZ6jqZSLSUKHrXI22vOF3zk3h+6pz7ra6urpHV61aFXZu5TbOAgRY4wS+cOHCV5nZKWFnQTN7T9cCnlPH6dAVdRgzW29mV4rIvXEcb2LHwooqH51FYJdA2EL5f47bMGtaofbUQkE+UHDuXOfczO79/LqnCfZ7+8lQgBV6lsSJtLUVJUl6flwbfNmrodfD6h96hVP1ZutM/PeTUnLXC6W2Dbd/4fYw8pQbAgjkR0AXLVo0s62t7SQReZ+qvkdEDs7P6Q1+JmYWFnnfaGbXeO9vH84PkIsXL65/+eWXPyoiV+RkrZzMlJkAKzOlyFtHwrI3R3jvTwsjrkTkjCpYr3lfNewehSoiV3vvfzZr1qz/Geko1LxdION9PgRYKYs3NDRMKRQKJ3rvzzOzD6vq4SkfsuKbV9WwAM3dZnZtV8p//8MPP/wEwzQrvqycQBUJXPKdS+qnH9h2SiTROS6K3ldw7vXdI5Z64qDMB1jmvRQ7E+noLInZ6KcS7s7owrArK4UPOmr2w/Y4XnnNZ274LaOxquhJwanmViCsc9XZ2Tk/SZKzVfX9vYsYV9vn6zAK4b9Vtcl7f0+hUPjtEOtjhV0Yj1bVL4nIBbm9KCboxAiwJgg+x4ddsGBBWLfvTWZ2oYiEHVSrab3m/VV2i5ndJiI3dnZ2/vw3v/nNS/t7AH8vj0C1vcGWR20YrfQOIz9BVc8SkfCkb6yyYZbDUNrnXcLAhbAe1q1mtsI594uWlpYwzZAbAghkWOALN3zw+KjGnR2pe1+k7mRV7d6NppICLDHrHn3V3lGSuNSz6cxIpxLu/Ziet1szv8VMfpJ4u7mYRHdf89lrwrQbbgggUHkCYSrcMc658DnvAjNbpKp1lXcaZe1xmFZ4t4isSJLkntbW1vC5rW9rDrdgwYLXqupSM/u8iDAToaz0YbSwXtXS0vLxMjdLc1UoENbxmzx58imq+u7eYH5OFTIM65RV9THv/U2qemuxWPwVs4eGxTamOxFgjYlv8Ac3NDS8Loqis8zsvJyvf5CC3l5Nxl3DVR8T527zIjdrkvya9bHGg51jIDAygaXfv/DQSdNqzy0U3PmR6Nudcz270VjP20ylBVjhG1exmEhnR7F7Qffucxj0HXN462H1aO5uwMweN7GflLxf0f60/bxpeVNxZOLcGwEEJkpg0aJFB3Z0dJzrvQ9LQpwuIjMnqi8ZPe5jZhaCrF865/7He++iKAqbF52uqmFhe0ZxpFA4AqwUUKuvyRDMHxdF0Tm932NPFZFC9TGM7IxVNfHePxhCLO/9itbW1vXDXBNwZAfi3nt8mgZkzAInnHDCTFU9wzn3XhEJH2jC+gfdow+4jVkgLOreama3m9mNBx544G+YbzxmUxpAYMwCS/5zydRDDnfvrCu494rJmVEUHdIXWXU3XqEBVuh64k06O0pSLIZZzT23sayH1T/A6tmtUBJT/5A3/9PYJ9dd9anrW8dcEBpAAIHUBHoXMX679/4DIvJ2ETkytYNVfsNh+OqTZvZ77bkdamZhGQ1+PE+ptgRYKcFWSbONjY2HxnF8tnPuPWb2FhEJ0wd5vo6s/ju63ht+7r2/NYqiFS0tLc+M7OHcezgCXJTDUdrPfcIwyylTpoSpMmE70bAzw1FVvrhdGVQHbaJvWuFDZnZDkiQ3rlu37nkS7rS4aReBoQWWLRP3wsL3v7HGuY/UFKLTneoxKhrtHmvV+/ZSwQFWeMEplcIorNLuBd27U6zBXIY7Emv3g3unJYYl7Ld7kwcS8yt2lPyNTZ9pepprDwEEMiWgCxYsmG9mH1XVM0XkeBFhF+lMlYjOEGBxDYxGIKzXHEXRW83sQ70zhw5j1NVoJHc9JuwA9Kyq/tzMflwsFu/esGFDCLa4lUmAAGtskK6xsfF1SZJcrKphkfZjmNM/NtDhPDoM0zSzZ83sgSiKvlNXV3cP25gOR477IFAegc9cd+FRhdroo7WF6FyncpzTqHe6YE+6k5cRWCHAMpNdo7DCgu678qsRhFh7r5+1V4gVmk3M5HkT/99xKb56Z6J3Nn2uiQ885blkaQWBUQs0NDQcrqofVNWwztX83l2k+fw8alEemJYAAVZasvlsd8mSJdHmzZuPN7NLROSdZnaUqtbn82wn5KyKqvp412i2e0Tke0cfffRDTU1NPQurchuTAG/Ao+RrbGycHsdxWJz90q5dV47rXf8Az1F6jvJhYc2YMDTzTlX9aktLyyOMxhqlJA9DYBgCl3znghmTZ+r5dbU1Hy+oW6jipouK27W+VXe+k68AK8zzixMvHe1hFNbuzx3lXA+rf8BlIkUx/4x5u6ck/uttd8oaPvAM4+LkLgiUWaB3VEJYz/STXRvKnNS7bhOjrsrsTHPlEyDAKp9l3luaN2/eIXV1dReZ2YdFJAzAOIDpgqlUPXwy3qmqm8zsOu/991tbW59K5UhV1CiBywiL3bu74BtF5M9UdVFvcMUHmhE6lvnuYfvmMCLrO6VS6SsM0yyzLs1VvcDSK5bWuINePKWuXv+o4KK3OedmqGmhby5d3gOs8OmjsxhLsbMk1ruge3dUN4JRWD3RXv+Ph3uMwhrwt/Av1u69PZmI/75F9s3vXtr0XNVfiAAgMA4CYVTCb37zmwVRFIWd8t4hIq8SkZpxODSHQGBMAqr6/ZaWlo+NqREenGuB2bNn10+bNu0dqvpHqrpQRKaxXvO4lDxMK9xuZmEZnP+M4/gOvq+O3p0AawR2CxcufFXXFJK/EZGQVoekml0ZRuA3DncNQdYTURQtO/fcc69fvnx5eLHghgACYxD4gx+e/xqbUvhiXY27OHJR2Gmrpjuw6l7bao8dBnM6AiucljeTjvaixKV+o7D2Cp36oAdfD2vXG+7e/7B7Wa1+78omZk60I/G2IU5KX9q5U29t+mJTeJ3jhgACKQj0jkpYamaXishrWM80BWSaTE2AACs12jw0rCeddNIxcRz/HxE5V0SmsI7fhJQ1fIgMy0P8JIqifzjqqKM2MMp+5HUgwBqGWWNjY00cx5d3fVtb3jVVLXyBw20YbhN4l04RucfM/mrt2rUtE9gPDo1AxQp8/idn1xU76i+aVO+WFaLoCN21o2pvOFNlAZaJdYdXYUF3338U1r5CrEGGaA1zPaxd103fQu9m4mPxt7eXSn/6w6XXbxQNkxu5IYBAOQTCqITp06ef3TUS4W9VdR4jEsqhShvjLUCANd7ilXG8RYsWTdq5c+efO+e+2LtWM99jJ750ZmZbVfX/1dXV/dvq1atfmfguVU4PuICHrpXOnj27btq0aYtV9e9U9USCq8q5sHt7ukVEvq2q/zF9+vSnV65cGVfcGdBhBMZXQD//k7NrO7fVLqif5r5UW1N4W8/hVXRXXFK9AVaQ6GgrSak08KWkXFMJd2Vhe7wz71oUX0W8WDFO4q9YNPkfnnjiiR0rl/O6Nr5PEY6WJ4Gwi/S0adPmeu//VkTO53NenqpbfedCgFV9Nd/HGbtFixbVtbW1nSci/9C1PtpR6GRTwMw2qeqfT5o06Y5Vq1aFQRjMINpPqQiw9gbSefPmhe1E5xYKhT80s7BQexhmya0yBcKLQFjc/atRFN0qIi82NzeXKvNU6DUC6QksveW8ydpZe1ihtvQntXU1n4xUo92DTQmwwgiscEsSk462ong/8PNFuUKsQWYX9kaIvfFW7x0S75+ME/s/taa3HnrMsy8vP50gK71nBy3nTSCMuJo5c+bBZvZZEfkcn/PyVuHqPB8CrOqs+x5n7U477bQpO3fubPDe/y/nXFjHjzX8KuPSuK1QKPzt9u3bH9m4cWOYZshI+yHqRoDVD6axsXFy10LgR5rZEu/9Zap6OL/GVcYzfn+9NLMOVb3Pe//1KIr+e86cOVuYc7w/Nf5eDQKX3HdJ/dTiS4f6kntfTSH6YsHpoXvtJMgILOkLsMLHic7OWErFkli/jxZ7Tw3su3pUdKiphL2ZVM8991jUfZB3555jDPhDKfH+3mLivxoV/K9f+7t5L7H2XzU8aznH0QrMmzevdtKkSYfEcXxW+MVbRBiVMFpMHpc5AQKszJVkPDukc+fOnTp58uSjvPcXq+rHReSg8ewAxyqLwFYR+S8zu6pUKv2Ohd4HNyXAEpHwgSaKosOjKHq7iHyid7tk0uqyPA8z18jzXetb/Lj3f63Nzc1hzjEJd+bKRIfSFlh6RWONHHrooZErvLUQyWdqI3eSqNb2PBv69hXse4tgBFb/ACusgRUWdE+SPUZhDcyhdpVQxQ26cuKo1sMKQdce79zebIv3dq339gOr6djw3Utvejnt64f2EagkgbCz4KZNmw5R1ZNF5DMicjqjEiqpgvR1OAIEWMNRyt99Fi9eXL9ly5YjReQs51z4HnscC7RXdJ3DQu+PmNkVURT9dMuWLU898cQTHRV9RmXufFUHWOEDzeOPP/5q7/2bzOxDvdslTy+zMc1lU2BDeKNPkuTOtra29Zs3bw5zjrkhkH8BE73s5vNfXVA7uVATfTByck7k3Mxd6ywRYEnf0KpuCutJuPsHWOHf4ziRzvbigFFY3fnVoO+qg+9KuCvvGuauhLvzsb1DLDHxJrbJW/I9L3J7IW579MrLb2nL/wXNGSKwTwFtbGyc5b2fLyJLzOx9jErgismrAAFWXis7+HktXry48OKLLx5aKBTeIiIXiUhYt3RqdSnk+mx3mNl9zrlrCoXCL2fPnv0Ms4d66l2tAZaedtppU9va2k4VkbC43QVm9tpcPwU4ucEEwlpYvzCzH6nqvWvWrHkUJgTyLPCJFecfUFOQhQUn5xYi9z6n8joV128gkPaOR2QEVm92NWSAFf4eRmGFnQn3vJU1xBpqKuEgI7HCXU2kzcRWeZ/82MzfGyUzf3fl5Vey7l+en9ic26AC8+bNm1ooFI5T1Xer6hIROVpECnAhkFcBAqy8VnbvjxmLFi2a2dbW9iZVfY+InCMih1bN2VffiT6jqreIyIpisbh6/fr1YZphVc8eqroAK4y6evTRR09U1bBd8nvMbAHbJVffK8EeZ/yKqt7e9QvtjSHpbm1tfb7qRQDIlcCSHy+pnVm7c25NffRu59wFkeiJzu2eLrj71wwCrO7C9y5uta8RWOFuPvHS3ta59yisIX8eSnU9rAG/SpnY897sHhNb4Up6z5VLf/iSaHV/4MnVk5qTGVKgsbGxplQqHeWcO0tE3tu7LASb8XDN5F6AACv3Je5e9qa2tjZMhQ6hVdg59Q18j81/3cPAfxEJs4dWeO9v3bZtW2s1TyusqgBrwYIFs1X1fDMLo65OE5FJVXHJc5LDFfidiPzEe39zTU3Nz5ubm5l+M1w57pdNARNdesO7DokmFc6LXHS+i/Q0pzKjZ0Lb7rCKAKunfLt+zhpmgBUeU+woSbEYPlcMvA0+CisMex7ZelhD7UrYU7NBphL2G1ptamHm42YTuTNJ/I2vPJnc37S8qZjNi5VeITBmAW1oaHiVqr7LORc+671VRF495lZpAIEKESDAqpBCjbKb8+fPP0ZVLwjhlaqeYmb1o2yKh1WuwI6uUcUPhBCraxDOTa2treG768AFWSv33Ibd86oIsBYsWDCj98l+Ye8HGnZlGPYlUnV3jFW11cx+miTJDccee+wa5htX3TWQixPuXqT9iFefUxsVlqiTtzjVI3ZPDCTA6gmsehe46q34aAIs817a20vdo7GGF2KVbz2s/YZYve/wJlIykzUi9tP2uP2H3//UjY/k4iLnJBDoFTj77LPrnnnmmcWq+n4RWdy7u6ADCIFqEiDAyme1Fy1adGBHR8d7zSyMKH2TiMzM55lyViMQ+L2Z/VJVb/DehyBr5wgeW/F3zXWA1bu74FujKAoL24Vf4sJ2ybk+54q/IrNxAuF77Pau9dGaVfVWEbm+paUlJNzcEKgIgU+sePdJ9fV6aRS5xWp6rLreha6sb6l2AqxyBVghBisVvRQ7w4Lu4aVj91vM3rsM9l0+owyxhlwPa+/V4wcbuWUir4jJQ7HEN5Vc8eqrPn7jSxVxQdNJBPYhMH/+/LDO1SW9G/EcKyJ1gCFQjQIEWPmqeu90wTNF5CMi8mYRYb3mfJV4rGcTfjl9vOu975ci8t2WlpafqWpVrI2V2zCn9wPNx0TkXWY2V1UZZjnWp0n1PT6szvyiiKyO4/gHbW1tdzz++OPbqo+BM64UgY9cf/bhB0zWy2oK7lxVnacapknv2l9QhABrwLKX5RiBFRr0vmcqYRyHqYQD31aHmkrYPQFwkD/uHXrtPxDbVeE93tEHn37Y/V+f82bNxTj+9pFzjr15+enL954DWSkXPf2sWoFTTjllVqlUusTMPtC1GcsbVPWAqsXgxBHo/h1Dv9/S0hK++3CrbAFdsGDBfDO7VFXPEJFjRKSmsk+J3qcoUDSzjap6RxRF32hubn4sxWNlouncBVgNDQ2vVtUPquqHRWSeiExj1FUmrrVK7kRYM+a5rlF89zrnrujo6Hhow4YNrCNTyRXNWd/Pu+W8yQe74gfrat0nXBQdpyYz+6YLEmDtvSh7X/nLFWCFgVdhCmHYlXDPUVjhWGNbD2uPAKu7wb0v4JGGWKoWe5MnzfuVnUn8n9/7VFNzzp4WnE5OBcKohEKhcL6qfrpr+kSDiLwqp6fKaSEwIgECrBFxZfLOb3jDGw6tqan5qHMu7JwaFmgPG1Dk7vt6JvErvFNmtr1rGv06Ebm6K/S8Zs2aNS9X+CkN2f3cPCEWL15cv23bttPN7PMicqqITBeRKK+F47wmRKBdRJ42s2tF5Btr1659ptq3MZ2QKnDQ/gL6yRXvfktNnf9ioeAWOaezRDQKSzsRYPUw9ewk2DOium9XwTQCrHCIUjGWUrHU2/z+R071VGkfC7EPMoRq34u6D28q4a5QU7vztk4TezxJkmuLxeTbV32m6WmeYghkVEBPPPHEE733fyQip4vIwXzOy2il6NaECBBgTQh7WQ7a2Ng4OY7jd6nqZ3t3Tg0DMFjHryy6VdVImFa4RUQeMLOvzpw5896VK1fmbpR9HgIsd+KJJ85NkuSPVfU9IhIWbC9U1aXKyY6ngJlZp3PuUTP70o4dO67bvHlz53h2gGMhEAQuve6Mo2qnFj5fKERLnJODVbT3da9nd0ECrPENsMLRvDfp7AgLuofZx+E2xhBrwDv0/tsa6Sisvh6amKlKR+KltRQXv/yi77jllstvYRdWXmoyI9DY2HhoHMefUdWLReQwptNkpjR0JEMCBFgZKsYwu7Js2TJ38803n+C9D99jz2EAxjDhuNv+BEJo9YKI3OS9/2pra+vG/T2gkv5e0QFWY2Pj9CRJlopI+DXuEIZYVtKll4u+elO9z4n8cUtLy9pcnBEnkXmBj1x99rRJM5IldXXuT1yNO0Z8zy90AwIrAqxddRyvEVh9ByyVEil29M0wHt56WBpKONS0wNGEWEOtrTUwUxtw1XT334l5byUvyW1J0rn825+4sVW0Z+AaNwQmQmDRokWT2trawnTBv+zaUOUERiRMRBttMh0AACAASURBVBU4ZqUIEGBVSqV6+tnY2HhQHMefds59zszCiNKK/l5eWfpV09vwGS6Msv9ymFb48MMPb83DmVfiE0UbGxsnee/fZmb/ICLz81AIzqGiBWIzu2Ly5Mn/UCwWn29ubu6bQ1TRJ0XnMyRgoktvPW9S4jpPqinIX0cF93Z16rpDq954gQCrX9LSL3IZ7wArjMIKC7ong4zC6s6PhnjXHV6INYL1sPY40BA52N4hVu8dvfmtsY//U5P4is1PbXlu5fL8DUHP0DOcrgwU0NmzZ9dNmzZtgar+maq+m50FuUQQ2L8AAdb+jTJwD507d+7U+vr6d3S9AS9X1eMz0Ce6kH8B37UhwP1ds9T+LkmSVa2trWGUfcX+QFlJAVb3E37SpEmvF5H/LSIX8ktc/p9tFXSGYWrh0865fyoUCk3e+5cIsiqoehnu6pIfL5o0c/oBR4rZ5wo17lLnwoKe4aW7d/0kAqye6lk2AqzwcSAOo7A6S9K9SHz3bf/T/8q/Htbea2vtY1fC3T3c41OBt2Rd4pMvSRLdtW16/GLTB5r65kdm+FlD1ypVYPbs2fUHHHDAbOfcx1X1kyzQXqmVpN8TIUCANRHqwz5m9/fYyZMnzzWz8D02LHtTSd/Dh32i3DHTAiG4ujqKov8Qkceam5srcrmIinjiNDQ0TCkUCq/13oe1D8LidmGBdm4IZFEgbGW6Ooqir0RR9KspU6a8mMfF87IIn7c+LfnxktqDZm45PImjc12N/XFU0Nd2v2BbT3hFgLXHb0cZCrDCKKywoHsc962bucdUwoGZVr9Ld/BF3bsfnfJUwgGH6Hes8I9hjazY+9sttn9OomT9dz7RFNZV4IZA2QQWL15c2LJlyxEicoaLoj8Ss7CLNDcEEBiBAAHWCLDG8a7z5s2bWldXF77HhmA+fI+dOo6H51AIDCbwlKp+2Tm3or29/ckNGzb0rX1REVqZDrDmzJlTN3Xq1NeKyDtV9XLr+UDDzoIVcWlVfSfDHOObVPUHzrm1zc3NYUeIsDMENwT2KbBsmbinTnn7EZGLTolq7Asu0jf3hBe9kwQJsHaPee4/+DlDAVbYkTBMIQwhlvd9T/sKWg9rj08Gff/qxdoT8d9M1K4qtCePXnl50zaezgiMUUAXLlx4qKqG3QU/a2ZhFy523hojKg+vTgECrGzVPXyPnTJlypEi8q4wAENV5zLqKls1ojfyK+fcV8Pgi5aWlqdEpCJG2WcywFqyZEn0+OOPH1Yqld7knPuoiCwWCdNmuCFQUQLhm+vjqnptkiS3xnG8fsOGDTsq6gzo7LgKXLbijIMLk3WBqX7UqXzARVK7uwMEWN3DkKzfpP0MB1hmJnEplrCo++4eDyfEGnwUVk+E2f+jb8rrYQ0RYoVF3WNvj3XtBPdfZnbny1tLG5u+2NQ+rk8UDpYLgeOOO+7AQqEQ1jH9gIh8RFUPyMWJcRIITJAAAdYEwe9x2PA9dvPmzYcnSfKmKIo+Fr7Hmll9NnpHLxDYS6BTRK4Lgy5KpdJD69at+33WjbIWYIUF2mclSXJK79zg89hdMOuXEP0bhkAYlvmgiDSp6l2dnZ2bK22o5jDOkbuMQeATK84/wNV1LigU/LmicpGL5LDBVjBiCmHlBFghtOpe0D2Mwtq1oPuABGqPQKr/BbSPqYQjDLF63uTHvh7WwBmM3euNdXjvVyVi18Ym9+2cUnqc9bHG8CJQRQ/t3VnwhN7F2S/qWo9jDqMSqugC4FRTEyDASo12uA33/x77XhEJ32NfzevbcPm43wQK+LCWc9cowR+a2S0dHR1rN27cuH0C+7PPQ2cmwGpsbJzsvZ9vZuf2hldhmGUhq3D0C4FRCLwsIveJyIoQZLW0tDzHtMJRKOboIUt/vbQmfvZ382rq/Fku0guds/miUjf4KTICq5JGYPWNugojsOJiPOiC7ruyqEHfiVV0iC0LB/7n/S8QP9IQa4jltvZYhqvnXib2YhiJ5b3d5GP7+Tc/9cPM/3KXo5eQijqVMCrhscceO8bM3mFmF6rqqYxKqKgS0tmMCxBgTVyBwnrNzrkwojR8jz1fRPgeO3Hl4MijFwijsdaIyA3OuZ+q6iNZ3JRswgOssHDn1q1bj1LV8GQPT/qTmC44+quOR1aEwO/M7O6wRta2bdvufuKJJzoqotd0snwCJnrpinceXjNJzo4iO18jOU1VZuz7AARYlRhg9S3oHtbE2n0bzlTCcLZuyD2Kdk8nHN4C8aMOsQb5lLBnW2HJLzF73Mzf7hO5qdBRevBrn2tiunT5XjEqvqXGxsZDzewM733YeSssCzGLUQkVX1ZOIGMCBFjjX5DwPXbHjh2vj+M4jLYK/2vke+z414Ejll1gq5n9IizyniTJHa2trU/vsXVS2Q84kgYnNMA64YQTZjrnLhCR96rqG9kueSSl474VLhC+za7vDbJ+tHbt2jDFsP+KPhV+enR/KIGlPz5zukx1p7s6u9CpLBaVw7U3myLA6pki2P+261+7/6GyphCGHvcs6O6lVCx1TyncPXpqOCHWftbD6iXpn3LtanWo4GmPUV2Dj7baFVH1lGLI9bD2+INJm4ms80n8Ux/Lj1/z9LMbly9f2bcVIy8KVSgwd+7cA+rq6k5zzl0oIm8XkbCgMaPrq/Ba4JTTFyDASt+43xG6pwuG4Cp8lzWz8D02TBfkhkAuBMzMq+qTIvIz59x1NTU1P1u9evUrWTi5CQmwli1b5m699dYzkyQJC9u9SURm80tcFi4H+jABAmHx4xbv/W1RFP2gpaXldxPQBw45DgJLr2isiQ8/cH5tnVysTs50Yd0X13+R9v11ghFYlRpghcqGHQnjOOlJtAauxr47IxrpVMIB4dL4TSUceNhBRoCZbPFqaxIf35DEyQ+/dVlT2IWVWxUJhFEJr7zyyjzv/Ud6d+A6RkQmVREBp4rAuAsQYI0beXTiiSee6b2/uPd7bAjm2T113Pg50DgLhGmFm03kThW5asaMGetWrpzYHyfHPcA64YQTTigUCkvDUPLehTtrxrkIHA6BLAq82DVn/iERuSaKopuam5vZnj6LVRplnz684oyDp9brp6KCe69z/ujR7bZFgFXJAVb3gu6dxX2OwuoOhgYdORUWYR/87XpgFjbxIVZfD6w7qZNnvFlzhy9dceQTb/jp8uXLw86s3PItoAsXLjzIzEJwtURE5onsb3p0vkE4OwTGS4AAK33phoaGuar6B6oavse+XmQkP0Sm3z+OgECKAmH01W9E5Pooir7d3NwcvrtOyG3cAqyFCxe+yswuFZEPi8jRzA+ekHpz0GwLhKk2YWH3X5nZN2bOnHn/RCfc2ebKfu/CaNOn3/iriwo19tnI6VxROXDP6VjDPwsCrEoOsEKdS6VY4lJYLmofUwm7U6y9r4qRroe136mEw9qZcN9TCXd3deAuhwOnJVpsok8mPlnZtiP55+9/7kePDP+a554VJhAtWLAgrGX6OREJixkfxKiECqsg3a1oAQKs9Mp33HHHHVhTU/PJrpEoH+0NrqakdzRaRiCzAuHHyZdEZIOq/vv5559/40T8OJl6gHX22WfXPffcc2FRu8+bWYOITGe6YGYvSjqWDYHOsJWpmd2sql9fu3btpmx0i16MROATN5y1qHZa8tcukpM1BFdjHl5OgFXpAVYIroqdpe41sbrDnyFSpsEHW41yPawh3uV7Rm4NMv1vrwBtdOth7bm2lol0iNmzRYu/F/v6r3730u+GXVm55UTghBNOOFZV/9Y59zaR7tc71rnKSW05jcoRIMAqf60aGxtrwjpXqvpHInI832PLb0yLlSfQuz5WGIH1yziO/2bdunWt43kWaQZYeuKJJ57ovf8zETlDVWeYWTSeJ8exEKhggZBwF81sk3Pu68Vi8Ufr169nHZkKKOhHrj778Cmviv+0UCcfEpNZqlKm1z0CrIoPsMTEJ747xBq4FNbeb8VDhlgVMpVwiBwsLGvfniS2uSj+77bfFl/f1NTUf3vGCniG08X+Ar2b8fyRqn5aRGYSXHF9IDBxAgRYZbXX+fPnL3DO/VnXbmxn9gbzrHNVVmIay4FA3DWl9kUz+473/iutra3Pj8c5pRJgLVy48DXe+0+r6mUicggjrsajlBwjrwKqmnStGXd/1/NoebFY/NWGDRuKeT3XSj6vS75zSX3tIU9/PKqVv3SRHiFiZf6gQ4CVhwArXOOlzt4F3Uc8CisIuEGnGO4KjPYY1VWeqYQ9re85qqr/83X3cfZYh6vvTnt/2miPk+TuOPbLvnXZtS2V/Nyvxr6HUQmlUun9zrm/6Z1OU6agvho1OWcEyiNAgFUex+OPP/5g59ynnXNLReRQvseWx5VWci0Qvqs+qqr/t1gsXpf2d9VyBljuhBNOmB5F0dki8uciEqYLckMAgfIJhB0LrzazfymVSk+k/eJQvm7nt6WwlNEXbj+7tj1KTosi/1dRpG9WlZQ2piDAykuAZd6ko6MoEsZZphZiDRIkDbq2Vm/01e9vg4de5ZlKODD00rAe2O+LcfztktqVR85+7qnlp0/szjb5fbUqy5npnDlzaqdOndpoZn+hqmFUAjsLloWWRhAYuwAB1pgMXWNj4wFm9i4z+3MzW0hwNSZPHlyFAl2fDTpE5G5V/ccdO3b8evPmzWHQRe+n3fKBlCPA0sbGxmne+/lmFuYHhwU8WfugfDWiJQT2FHi2axe7f3XOXSMiLzY3N5cgGmcBE11663mTrK7jmMh0qauVD6lamD6T4o0AKy8BVngrj+NESsWwb8NoQqz9rIc1SAI1cLfC3Zfprlhqj08D4xFi9Y3pCjsWerPWxOzLBV+841WzX3iRICvFl5KRN62LFi2q7+joeJ2ZfVxEwv8OHnkzPAIBBNIUIMAala479dRTp3Z0dDSY2R8658K6zXWjaokHIYBAt4CZhU3Jvuecu2r69OmPr1y5srOcQdaYAqyGhoYpURTNEZGPee8vVdWUv8BxVSCAQJ+AmT1oZl+KomjVnDlzfs9aMuNzbXz+J2fX7VSbXRMl50SRXK6RHDM+RybAylOAFa6Zzo6SeN+7oHv4D4OkTEMsedUzpS+z62EN3JVw16ntSuv6B2i7P4aYWDExf7v38dek0z106DPHbJmI3W3G5/lcGUeZM2dO3YwZMw5LkiSMSgjrXJ3AqITKqB29rD4BAqyR1byxsXGy9/5o7/2HRSR8j331yFrg3gggsA+BMPJqrZl93czuiuP46XLNHhpVgNW79sFRqvrOroW7/kBkvL7AcZEggEB/AVUNo69uEJFvJknS2tra+kI5E260dwsss2Xu2bt/ebiqWyQil0dO3qau3Otc7UucACtvAVbYjTAs6L4r1xnRroTDXQ9r9FMJBwRPeyyANdR6WIOthbWvAKvnbwPnL3pvL3ixq5NYrkvslYe//cmbt/NaNL4CS5YsiTZt2nRIFEWnhh8owyLGXVMC6se3FxwNAQRGIkCANTytxYsXF7Zu3XpU1/qyYZOxz6hqCOa5IYBACgKqGqYV3mlm366pqVn94IMPhoXee369HeVtpAGWa2hoODKKojea2SfC7oL8EjdKeR6GQPkEQsL9rIj8QERuiqJofXNz87byNU9LH7vhjFmTphVOVvEfck7fq86mjb8KAVbeAqzwxA3TCJN490Z8uwdVDXx7HnJXwhD+DLW21VBTCfdKlHqu5sGmE47HVMKeY++9CFdifoNP/HckSu7aUufXNX2AHQvH43VnwYIFM1T1JO/9+1T1QhFhVMJ4wHMMBMYoQIC1X8Cw7M0RSZKcKiKXiMi7RMq1U/R+j80dEKh2gRfM7IeqemN7e3vzxo0bR/3j5LADrLAjQ01NzalmFj7MvFdEJuALXLXXnfNHYJ8CRTN7WFV/pKp3bt26deMTTzwRUm9uoxS45L7F9YXOupMLkb1bnV3kInntKJsqw8MIsPIYYIUF3cMoLLPda1yOS4g1zAXdB2Rdgwy7GmLQ2O44ao/kbeiRW4OtIt89ntR7Te713n7QGcnPv/ORax4vw5OJJgYRCKPr4zhe6Jw7y8w+KCLzgEIAgcoRIMAaulannHLKrFKpdIqZhe+wS0RkRuVUlp4ikCuBDV1Td39gZnfMmjVr7cqVI9+8Z78B1rx586bW1dWFHWfC4uwXdC3I9TrS6lxdRJxM/gReEZFfiMiNYSeINWvWPCkiu4d45O98y35Gy5Ytc0+/cfXxhSg5S528XyM5eei1iMp++CEaJMDKY4AVih2XEolL+1/QvTtMGjR4CqOwBn87H7is1h7TCcsQYg0VSA0MvgaZxth3lQ/IrQYPscJ/9eZ3eLMbvdhNxbh0/3c+0RSmS3Mrj4A2NDQcUygU3uG9f7+qvtnMovI0TSsIIDBeAgRYe0svWrRoUnt7+4kico6IvE9EXs/32PG6IjkOAkMKhA+9K7um717f9Znj7oceeuixkSyBM2SAFX6JM7M3eO/PNbPzuoZ7zWe7ZC5DBCpGIAzneFpE7lXVm+vr6+9btWrVlorp/QR2dOnNZ77W1Ubv0ho7X9Xerk4mT2B3+h2aACuvAZZ5L6VismtB94FB1R5TCQckQ7svDxU36FTCXXffY6jUUCOndt9/748HQ00nHHpUVf/Ld4gQa4/DDDaVcFefwmgss9+a+NsSn9xsnTtXXXn5LW3ZeH5WZi8aGhperarvUtXzReQdIjK9Ms+EXiOAAAHW7msgrOO3efPmuWb27vD6ZmYn8T2W5wgC2RIwsy2qeoeZrXDO3dvS0jKsHycHDbAaGxsPSpIkjLgKQyzfKCIHZut06Q0CCAxTICTcm8LieWE70xkzZqwbzVDNYR6rou+29K4zp4t3p0cFu1BVQnB1qEhIBbJyI8DKa4AlZhIWdC+FUVi7ZxL2G1Q1nBArXB/DWQ9rdwK27+l/+2hrQIjW08p+pxIOTOUGLts11CisPcK6vruZWYeptCaJ3d7h7fojn5iznt0KR/Y6FXbfMrO3eu/DshAhuArTozP0ejey8+HeCCAQBuLq91taWj5W7RYnn3zyIaVS6azemUNvEpGDWLO52q8Kzj/DAuG76m9F5C4zu27y5Mn/vWrVqvZ99XfPACssbneU9/6zZhamCx7JMMsMl5uuITB8gR0i8mvv/b/FcXxHubYxHf7hs3vPpVc01vgjZjbW1LmLVOxMdXKUqNRlr8cEWHkOsMIaWHHsh7Wg+x5ZUL9LdeQh1lBt7YqlhpxmuHdqtf8Qa2AoNvTIrcGnEvbPs0zFxORlU/t14pMbvbibrrz46rCZBbd9CIRRCRs3bpzvnPtQCK5U9VgzY3dBrhoEciBQ7QFWQ0PDlEKh8JYkSS4KU6FF5AgRKeSgtJwCAtUgEEbUrxeRnzjnfvTQQw9tHGq3wv6fH/Wkk056XRzHy7u+6IbRVyxuVw2XCudYTQJeVTd675evXbv2OtbFEjnvivMOmlwXLzngIH9x7VQ7XsUOyO4FQYCV5wArXHeJN4mL8bAWdB86eBrH9bD6J0r99xHcZ+g1yGiyvifdMNfD2vUc1TBgTRMxe85Mfln08X+VfO0vvnvpd9m8YpAXsvnz5x8mIh/s3Vnw+N7NeIZcSiK7r4X0DAEEBhOo4gBLFyxYcKSZfbp3uuDrVJVgnqcJApUnEOYhhCVvHvLef2fSpEm3rV69OqztPOC264NLWAfBOff3IvJhEZlSeedLjxFAYJgCvzOzS9euXXvfMO+fv7uZ6DlfO+fYQmx/6iI5e+pB/lUHvCqJNNPLFhNg5T3A8ibdI7DC//rfhtyVcECAtDsF2udUwj1CpwHZ0VDB0yALxO93Pay91rbqd0b92hvWKKw9znPgY3r+zUQ6xOzJxCdfk8i+9/WPXLM1fy9cozujsBlPTU3NO7vWRfyUqjb2LguR6Ve70Z0pj0KgugWqMcDqXetqoff+H3tf3xiAUd1PA84+HwIlEXlWVb9ZW1t75erVq38/4HNx+JfFixfXb9269TJV/ZJIVhYszoc+Z4FARgUeiaLorc3NzS9mtH+pdSvsMNg6q/kEE/uXrvnWp5nZpJpJJtMP9VJ/gE/tuGNvmAAr7wFW+NnJh1FYpVgspFm9t+6IZoj5eQP/1i/EGtauhAOTocHaSmcq4cDtFMsVYkn3tEJ7OU6SbxSLxX/51mVN1b5xhZ5yyimzi8Xin4pIWOsqrGdaM/bXIlpAAIEsClRhgKXHH398Y6FQ+K6IzGW6YBavSvqEwJgEtonIlXEc/+u6det2hVjhc2NY92pukiQrReTgMR2CByOAQKUImKpe0dLS8plK6XC5+nnhf7z7SO/dt0Tsbf0/7Ew9KJEDXp2Iy+xqCQRY1RBghes8jMCKS8MbhdUdQQ06cmrkUwmHbqs36BrmelhDBVJ7xWVDLXU1jKmEA9vajRAeur2zvf3327d8zrTmmtu/cHtnuV47Kqwdd9JJJ82P4/gbIrJARGorrP90FwEERihQbQHWySeffESpVLpDRI5lkfYRXizcHYEKEVDVdjP7P+3t7Vds3Lhxe/fnv8WLFxe2bt36b6r6+Qo5D7qJAALlEWjr2rZ04dq1a8MuhVVxO/vfz542SfRfveonw+I5/U86qrH/n703AZSjqvL/z6nq5W1JXlaSACFiUAiT5MWMMlH+M+jMOMOMiKJhhvmNqKODiuOO4zrG6Iz7CgMKLiwujEQUA4IL4lOImYCPtyURJDCAAoFsb3/9urvq/N+ppbt6e6+6u25vdYol6e57z733e29VdX36nHOh+ySjgb2wBGCFBWCx91UqZQCZuR6BpUIJg4RYxT26XAewwp0JC2FVxmfLPr185sOaG3oVJ13FQwkJHjvyNIxMT47raXpJ74d291meWeE68KyzzjpjZmbmdmcznnCNXkYrCoRUgbABrJ6entsA4O9DOt0ybFEgNAoQ0TjntzvttNPu3rlzp8Hu5UtnZmb+DxEbOHlxaOZHBioK1FIBdvG4fGBg4N21bLRebXHo4GD3/S9HjW4GJGu7+Pyn2s6lpuWFxTCr8Q4BWGEBWLz2LC8szoWVtxRrkg+rRFpvG24VflgY3Tg3xCoGngpYVykvrLyC+bZGpibgiZEjkExz+gTcPT2TeGnfR/t4Z5vQHM4W8ncCwJmhGbQMVBQQBSBMAGvz5s2vIaIbZNpFAVEgNAr8ChG39ff3H8bNmzdfTETXh2boMlBRQBRwFSAierCjo+N5e/bsmW51WV7+6Zcv0NtNfqh7QXasNh1wGYGmO15YC82iYVn11UgAVpgAFpGdC8s0cglW1kOqBEgqeBv5oabo0i30tvKAp5KeU4VeWDlMyUOz/IUSBpcPyzBNePzYMzA6PcnJsJwx0z/d84E9N9b33K1d6+vXr49Fo9GvIuLra9eqtCQKiAKNoEBYANbGjRs7NU27DwDOaATdpQ+igChQEwXINM1tQ0NDP8RNmzbdgIivqUmz0ogoIAo0mgJHAeDcgYEB/iLQ0scFV73878kw2d280PXKedjlR972RSYsXGVAJNZoXlgCsMIGsEzThHTKBKA8iFXo8pQ5d4PKh1VuKGEGYuVRK38QKwvFKg0ltPZdnhyHQ6PHIGmw95V9EMB9iSUzL+p7U1/2zRa+0m3atOmliHgHAFhepnKIAqJAeBQIEcB6laZp35XcfuFZ2zJSUcD6Tkf0k9WrV7+CAdYQIm4QWUQBUSCUCoxx/rv+/v6Wd8N+xRUv+44G8E85/KqAURGgBrDoRAPau40G88ISgBU2gMVr1UgZYBiFu2OWF0rIypWf1L1ciFVuKGEGell/yaKrSiBWMp2GJ0YOW95XuQeSadLG33zoN/ta/Qq/bt26+IIFC24nope0+lhlfKKAKFCoQFgA1ubNm/k76z8RkS7rQBQQBUKlwFQ8Hn8u9vT08DbTi0M1dBmsKCAKuApMzP5S/7GBgYHPtrIkl1x9SfRI8qnHAWild5wZfpUHsmJdJnSfmIZIvJG8sARghRFgcUJ3zoXFf+Yf5UEsXj/+w//ctkpEH9q52RskHxaHWx6ZGIVnxkcgZaQLL2UE77nng7/5Qitf43hsmzdv/lMAuJuI2lp9rDI+UUAUCCfAYlDf2dk5gIjPlZ0H5SwQBcKnABFdwACL3eobduP48E2LjFgUqKkCnNz4swMDAx+taas1bmzb1S9bY6Tw0ezOg7kwoBjIWrQ6DR1LDMsjqzEOAVhhBFi89oy0aSV1LwBYFkTK/C/n4+LgyW8+rCLeUHk5sTLZskrmyvI+WjhrN0PFckeS01pO8nZPuTmSuk+nZ+DJkaMwniiVq1371j0fuOfixjiP1fVi48aN2zVN+7B8p1OnsVgWBRpZgTB4YPX09KydTX2xFwBWNPJcSN9EAVFAjQJE9BEGWI3kYqBmpGJVFBAFSikwhYhf6O/v/49Wlmjbl155tqmn7+YxlkBXmeFbnxNANE6weG2qgbywBGCFFWBxCiwrobvjheVlRuV5YVURSliEk5WCWMVTdPmEWHnkrVS6L9eaSSYcdryvDLMQ8lknNsGv7vngb85p5Wscj23Tpk13IOJLJf9Vq8+0jE8UKK5AGADWmWee+fxoNMp5/pbKOhAFRIFQKnAVAyxOrlF8i6JQaiKDFgVCpUAoANarr3jFuQTG7fkzOx/M6lxuwMIT0g1yhRSAFVaAxUDVMAmMVNraXS8PBXki+XJv5aVyWFkYy9fOhHmeWGXsTDgvxCrq0eWcoWVArMlkAp4cPQqTM6U3UiWA/t0f+M3zWvzKzt/nfg8A61p8nDI8UUAUKKFAGADW5s2b/5yIfggAS2QhiAKiQCgVuJ6/8PBPlg0TJBPKaZBBiwL1UyAUAOtVl59/Hmi0y3KtKuJzWgpkaRGAJWuTEG1vBEdVAVhhBli8AtMpA0zHy8g3xCr581RxiFUIveaGWOWFEvKFztPzkhCrMFdXMSBmmCYcmRiBZ8ZHgT2xSh2EMLz7T0SLfwAAIABJREFU/b/ZWL/LrPqWt2zZ0mEYxkEAWKW+NWlBFBAFGlGBMACsnp4e9qa9WQBWI65A6ZMooF4Bvs4JwFKvs7QgCjSyAlNE9PnBwcGPNHInq+3bhZeff55pASyXX/kHWe3dJnSfzKkC630IwAo7wOJk5elkmrcRthKo54QS2myoqEN1yXxYcyV1L0KMSofzOe36yoflE2KV8sLyDHFiZhqeGDkCiVRyzpMzDADr7LPPXjw5OXmAKHejinpftaR9UUAUqJ0CArBqp7W0JAqIAvVRQABWfXSXVkWBRlIgdADLFd/2qZofZKFGsOSUNMS6SuTXqdlsCsAKO8DipWYYBhgpZy3mQ6wShGnOUELFEKtUKGEOaiuZuL1ISKRzvqVNw9p18MjkqA305jjCALC2bt26JJFI7BeAVbMLsjQkCjScAgKwGm5KpEOigCgQsAICsAIWVMyJAk2oQGgBloOvsmnd5wgtjHWYsOTUpCfXUD1mWgCWACxGro4XFid0tyLt8iBPQBCr3FDCDJAq4u41L8QqMx8Wn6oTM1Pwh+OHIWWk5z0ZBWDNK5EUEAVEgRZQQABWC0yiDEEUEAXmVMACWJs3b04TkS5aiQKiQCgVYID1ucHBwe2tPHpvCGGxcWa8sbJUK7cYAiw6KQ3t3fM/LKvTUQCWACx7gfJuhBxKaB0lIVZhPF91oYQZROU2W7C5QS3yYXEbDK0OjR2HY1Njvk43AVi+ZJJCooAo0OQKCMBq8gmU7osCosC8CgjAmlciKSAKtLwC4QFYOu0qlsDdO8NzgaxIG1leWJper4TuArAEYDmElQDSaQMMw3TSXuXlwyqVrIp5V9Gk7ly/MHF6BlkFkA8rp9m8F3Pn1srtNHugTSSm4bFjT8+ZuD3nvA5BEncJIWz5e7UMUBSYVwEBWPNKJAVEAVGgyRUQgNXkEyjdFwUCUCBcAMsVbB4GVQxkoQbQtTwNnSvq5YUlAEsAVhZg8RpNJVP2rgQKQwkrhliKQgnZ++qJkcMwlpjyffkTDyzfUklBUUAUaGIFBGA18eRJ10UBUcCXAm4OLN5eK+KrhhQSBUSBVlOAnwI/OzAw8NFWG5h3PFYIIXtg5R9lgqxInKB7bRIisXp4YQnAEoCVC7BMw4B02vXCapx8WJWEEhaCMvtk9Tpr8Vk3lpiEx489Y+UC83sIwPKrlJQTBUSBZlZAAFYzz570XRQQBfwoIADLj0pSRhRobQXCDbDcufUJstgLq2OxAQtWpgry/6hfJgKwBGDlAixmOKlUCngTPjfpujeYMOsE1Rr5sFKGAY8ePwTTyZmyTjcBWGXJJYVFAVGgSRUQgNWkEyfdFgVEAd8KuAArCQBR37WkoCggCrSSAuEAWFeef54JRTyw8mfSB8iKxE1YtDoF0U6zxutAAJYArDyABQCmaUA6Za9FG2K1QD6sonm6AI5NjsETo0fKPu8EYJUtmVQQBUSBJlRAAFYTTpp0WRQQBcpSQABWWXJJYVGgJRVggPWZgYGBHS05OmdQFzLAQtNJ4l7i6dgVYB6IxV5Y8UUGLFyVAtT8hzFVr68ALAFYhQCLiMBIG9bOhMW8sBym5Sy/3LXvli9cmwjoK4dV1t6cidh92coguMw4vP1KG2l4+MhTkDQ460F5hwCs8vSS0qKAKNCcCgjAas55k16LAqKAfwUEYPnXSkqKAq2qQLgAVg6kqhxkcS6srhNSEF9o1HBdCMASgFUEYAFZ8IohFocUFg0lzLKhvKxS2fL5CxlBKxomWwi98iBW3mlVST6sYjDs0NgxODwxUtH5JgCrItmkkiggCjSZAgKwmmzCpLuigChQtgIuwOJkErGya0sFUUAUaAUFwgmwqgRZ7FDCXlicC0uL1MoLSwCWAKziAIu9sEzDtP7LpHLPDyXMQKyg82HN79VVHsTKlLbPUgRIpJLwf0efgrRZGTAWgNUKtyoZgyggCsyngACs+RSSz0UBUaDZFRCA1ewzKP0XBapXYAoRP93f3/+x6k01roVMCGGpLloMqjyPLD1G0Lk8De3d6XmrBqOMACwBWMUBFntemWSAmSYrobu1mrFwV0L3/WILtkiUnwPDLEMFR64n1txeWNmzq9BWjuk81yt+ybsN/nHkMIxMT1R8GgnAqlg6qSgKiAJNpIAArCaaLOmqKCAKVKSAAKyKZJNKokBLKSAAK386/cIsBGhbYEDXyjTosVokdBeAJQCrNMAiYA8sO5ywVChhBiQVSX4VeD6sktCriAeYew7m0Sx+OT4zDY+PPA2mWfk5JgCrpe5ZMhhRQBQooYAALFkaooAo0OoKuAArAQDxVh+sjE8UEAWKKhAagEWauctiU34j/nyALA4ftLywFqctjxe1hwAsAVjzACzTAVgMscBZL3mhhBbEKpFxvRTEKjcfVqmE7lmA5g9imWTCH44fhvEZjnSu/BCAVbl2UlMUEAWaRwEBWM0zV9JTUUAUqEwBAViV6dbMtfipZgwADgDAw0T0NAAwwNABoJuI1gDAekQ8BQD4PTlaX4FQASx3OssHWZlH74IVEe8yrYTukbbKPUT8LTMBWAKw5gZYHD7InkpkeWE568UhVvnIqCTEKgpi2VYFoYQlTptSObHyAdrxqXE4NH4MjCq8ryzFEIZ3v/83G/2dZ81ZauvWrUsSicR+IlrZnCOQXosCokC1CgjAqlZBqd/ACqQB4Bg7ZhNRFyIuBYBIA/dXuqZIAQtgbd68eZqI2hS1IWYbQwF+sn4MEW8iorsR8Y9ENGqa5pRhGOnOzk5MpVJxwzAWRCKRxel0+kxN014BAH8rF4fGmECFvZhExM+EIQcWe2Dl6xgEyEINoHN5CjqWGICaX/euSmZUAJYArPkBlpXQnYGPxVNdL6y58mHlUqY5QwkrgVglPBPtdookgHe6kzbS8PjIMzCV5H1mqjsEYFWnn9QWBUSB5lBAAFZzzJP0siwF+If2XaZp3k5EjwJAStf1GBE9CwD+DgD+CgCWlGVRCje1Aq4HFvvmtzf1SKTzcynAHldXRyKRGzVNe/yUU04Z2blz55xbOW3durV9enr6BETcQkTvBICzReKWVWCSiD4zODjY8knciwEsd1arBVnRDhMWnJAC/lPdIQBLAJYPgMVpz51QQnTCYF0o5fHJspZpFlblgaSS4bAIWCRWtjBksPqk7kcmR+Dw5GjV3leWYuKBpe6yJJbrrQB7JRwgou8DwP8BwFoAeCUisseheCfUe3Zq3L4ArBoLLs0pVYCIdgPA54novqmpqcMHDx7M/KK1bt26eFtb2wpd11+IiG8BgD+TlEhKp6NhjAvAapipUNIRfpJmYv2paDT6QF9fH4OsstxDtmzZEjVNc7Vpmi8HgHci4qlKeipG66kAA6xPDw4OfryenVDdNu9COBfAqhxkOcFQCNC5LAXtSw3Q9LJOszKGLgBLAJZPgEU2xCLT3UCwgnxYJT2ntPJ3JczQstzlXiqUMJlOwR9HD8N0qnrvKwFYZVxipGgzKcA3miNEdPXsd7MbpqenDxmGkWTPhM7OzhNM0/wHInoTIp40/xa7zTRs6etcCgjAkvXRIgo8CQCf0XX9Jr7O9fX1pUqNi0FWR0fHckRkcP8eAOB0OMqz0raIzk05DAFYTTltvjo9NBtG8tG2trZf7N27l/cer8othC8O3d3daw3DeKtpmq9DxAW+eiGFmkGB8AAs3Qkh9MGXyvfIQtBjBItOTCr0whKAJQCrDIDFabBMghwvLAsk5fthFU/qXjqUkGdBLcR6evw4HJsaA07iHsQhHlhBqCg2GkgBk4h+iIj/2d3d/UBvby+TXu+dDdeuXRvv6up6jq7r70XEC2YfBjsaqP/SFUUKCMBSJKyYrZUC0wBwbSQS+fzIyMgTXo+r+Tqwfv36WDweXwUAl5mmeQkixuarI583pwICsJpz3ubqNf8a9+V0On3V/v37j5frcTWfHOyRRUR/ZprmfyDiS4hIEr3PJ1rjfx4SgPWy80jH3BxYQYIsx1bnMgM6lqUVeWEJwBKAVSbAsrK653thKc6HlfO7p99Qwmw+rKlkAp4aPwqJVDKwq6cArMCkFEN1VoCIfq/r+jvuv//+n/r8jse5bv/SNM3PIuIm8Uyo8wQqbl4AlmKBxbwqBQgRfzHrcPERTdN+O5fHlY8O4JlnnrkxGo1eDgB/7qO8FGkyBVyANSm/zDTZzHm6i4gGEU0Q0S7OZTQ0NMQ7DAbzs3UJWc4666yFyWTy1UT0DgA4HQCi8qWoadcQA6xPDQ4O/mfTjsBHxy+8kgEWOAArz7M4QJDF4YOLTkpDrMNQ4MAsAEsAVpkAi50ynIyHbrheTfJhVQSxkLN3WbsOHp8eB05GH9QhACsoJcVOnRTg8JnDmqZ9eeHChZf39vYmyu3Htm3bYg8++OCbNU37oJPwmL+3ydFiCgjAarEJbe3h8E0+RUQPsvNFNBr9fl9f32iAQ9Z7eno4lJqdLjgFjnhkBShuPU0JwKqn+tW3zZBqHBF/O/tl5PK2traf79mzh10va3Zs2LDhVF3X3wwA7J5+slwcaiZ9kA2FEGC58qkBWe3dJnStSIEWCe4B3O6xACwBWBUALF6Gzk8auRDLXyihtfJqlA9rYmYanp44Dol0cN5XlmKSxD3Ie4bYqp0CDK6OzW6ocyt7UA0ODh6s9gfKLVu2rJrdffrDAPAqAVm1m8hatSQAq1ZKSztVKsBhz5zn6uZ0Ov3Vffv2PVylvVLV8ayzzloxPT39Nk3TXoOIK2Z/tG9T1JaYrZECArBqJHTAzfDjCHvNPUBENxqG8Z19+/Y9HXAbvs1t375du/XWW19kmua/AcALZ3c85PhjCS30rWDdC4YDYH31ZecRuB5Y+Zp7ns59Mqe5cmTxw/6ik1MQ7wzaC0sAlgCsCgEWL1jKCyV0yFQ+m8rCqvnD/2yoioEkdTdMA56ZGIGRxESg3lcCsOp+j5EOlK8A+00eI6K9RHRlZ2fnr4L8gZLTQRiG8SIAYC/6rQCwTL63lT9JjVhDAFYjzor0yaMA75r6NBHdrWnaVxctWrS7t7eX31N6OJuSbSKitwHAXwLACid6SGm7YlyNAi7A4iTfnWqaEKsBK8DEmin1zxHx2v7+/iGfORAC7kahuS1btnSk02n2xOIk75xngb8QydH4CjAM/eTAwMB/NX5XK+/hhQyw0AFYJSFVcCAr1mXCotVBe2EJwBKAVRnA4nA8pMyef1lvPos9FbpX2RAr9/3SSd2LQ6zC8qWBGIcOjiem4JnJEeAdCIM+xAMraEXFniIF+O40iojDpmneZBjGTpU/UG7YsGGxruvsifVPALDR8ciS3bsUTW4tzArAqoXK0kYFCvC17RgA3A8A39F1/ZaAwwV9dWnLli2L0un03yLiawDg+QCwVOC9L+kaqpAArIaajjk7wyf+4wBwj2ma306n03cdOHAg2BiLgLQ444wzVrW1tb2WiF7ufCESOBqQtorMhA9guUIqBFkMABauSkFbt5OAKJDJE4AlAKtCgMXuV+yBZdreUvPmw8o8wuZBrKpCCXOhmBdwpYy05X01muDLkU83yDLOKQFYZYglReulAKeAYM/6n5qm+d0LLrhg/44dO5TmM+WBshf9Lbfcsg4RLwKAlzl5TbvqJYK0W50CArCq009qK1GAr20DAHAbIn6nv7//MSWtlGF08+bNpxDRNgA4DwB6AGCB5HIuQ8A6FxWAVecJ8Nn8cSLaDQA/XLBgwQ/vuece3l2w4Y9NmzZtBoB/RkR21TwTACIN3+lwdjC8AEsxyIq2ESw6OQl6NKgHcgFYArAqB1iuFxZ7YnnDBG2QVG0+rMpDCdn7ajQxAYcnRiBlBgl8sxd0AVjhvLk1yag5fIYf6O6a/a60U9f13X19fVO17vs555zTNjo6+gIA2Db7nfOvAYCTHkui91pPRJXtCcCqUkCpHqQCDOB5Y7FfENF3BwYG7kPEoL4QV93Pbdu26QcPHtzsgKyXAsB6yeVctaw1MeACrHEAkF9baiK5/0aIaAYR/xcAbk+n0zcrTHDnv1Nllty6dWv79PT0S4jolYj4EgBYK4S7TBHVF2eA9YmBgYFPqG+qfi3khBCW6oYfjyyHH8w3EjdHVteKNHQuCyq8XwCWAKwqAFbGC0uzANZ8XlgO13KWurp8WDNGCp6ZOA7jM+qe2QVgzXfFks/rpAD/IHknAPzINM2fDw0NPVOnfmSafcELXrA0mUzy97Xz+QdIIuJcMVq9+yXt+1NAAJY/naSUWgUQ8Q9EdCci3rJy5cqf3nHHHZwCpyGPjRs3dmqa9hezXmKvICIOLzxJnlUbcqoynRKA1ZjzY87S4P2IyK6Wt65bt+7enTt3qvlZujbj17Zs2XKCaZr8i975RMQXCY45lqMxFAgPwNJgl+/opKIwq0j81Dy/JWkRgO41MxCJB/GjkwAsAVjVASziMELrP/bCcr2unD+L5MMqltDdAluZ/+VfxGy7xY7cOnYZkwjGEhPwzORxMEx10VICsBrjZiO9yCiQ5iTG7Fk/m0T9p4ODgw8piZ2tXHDcsmXLqel0+q81TXuFaZp/gYiyc1fletaspgCsmkktDRVXYBQAfklEu1Kp1B0HDhzgTcaC+AKsXG9OgROLxThq6BUA8DeIKM49ylWvrAEXYI05sZ+VWZFaQSrwBBExuNrluJHz3DTFiT+fCOvXr4+1tbU9m13TTdN89Syg+1MAaJ+vnnyuXIFwASxXTr9nVQAgi/NgLVyZKrpTW3mzKwBLAFb1AItvKUgaaNbadsMJK4BYJfNhMQnzB7Fm0kk4NHEMppKJ8k6FMksLwCpTMCmuUgH+gfJ/ONdVd3d3fy124Kp0MLxzVzqd/hNd1//KNM3/NwvceIMeORpYAQFYDTw5rd01zst8HxHdrGnaTzVNe6ivry/4HVnUa4gbNmx4biQSeTER/QMink1EuvpmpYVyFBCAVY5aCssS0Tgi/sJEvAkM4+7nPve5TzW511VJtdavX98ViUTORMSXIeI/OnkWxD1d4fqax/SkaZr/NTQ09Mn6dUF9y1YIIXtg5R81AFmaTrDopBREO6r1MBGAJQArGIAFhKCxF5aT0T3ri1VmPiybgeUd8+TDcuqw99Xx6XE4MjlieWKpPARgqVRXbPtRgIjYE+F7mqbt6ujouHf37t2cvqMpDv7eFo1GOdExeyb8P0Rc2RQdD2EnBWCFcNLrO2S+eR+czR91EyL+eGZmZvjAgQMT9e1S9a2z00UsFtuEiOcSEe/S+tzqrYqFoBQgom/ipk2bxhCRs+/LUXsFUog4SETXEdHPJycnHzt48GDDxgkHKA+7py8loo2mafLON7yN8+IA7Ysp/wqEG2C5Ovl9fq7QIyu+wISFJ6aguvyVArAEYPGCtXcUdJciJ0G3/zWBORC/5oTt7t/tz5x/nORs/JkLsLwQyw3zy0/pXiz8zz11iocTzh9KmEgn4cmxo8BeWKoPAViqFRb7cyjAO3D9bDYH6HW6ru/t6+tjkFXtrxl1EXzjxo0rEJE36HkdwywJK6zLNMzZqACsxpuTFu7RUQC4lYj+JxKJ9PX19R1r1mtbiTlib6xuvuYh4oWIyM+qy1p4PptpaF/Cnp4ejldd2Ey9boG+8mPEUwBwPSJ+b2Zm5uFWINblzgvvAPHII4+sSKfTf4aIbweAF8muN+WqWHV5AVheCRWBLPbCWrAyDfGF1aSzE4AlACs4gMVLPUK286sviJXxtCoMDywWMWjbLB5KaJIJx6bG4OjUmIXWVB8CsFQrLPaLKMD5THnr+Kuj0eidU1NTfzxw4IB6Wqt4KpzvbScahnE2ALwVAP5MkrwrFr0M8wKwyhBLilaqQJKI9gLAlZqm3a1p2uEmDRf0NX7vsyoAXAIAL0bEuK/KUkiVAu8SgKVK2tJ2pwjxViS6Qtf1fX19fexG3pS/xgUlHbtqtre3LzUM4wIA+CAArA7KttiZV4HwACyddnHolK/D7zN1GR5ZHELYfVIKUPdrPL+nArAEYAUHsEwgC2A5AX9F8mHl+2F5eZRfiKUVzf3G3ldPjB6BtMk7dKpHWAKwfF31pFBAChAR5zO9DhFv7OjoeGTPnj2c5K3SC39AvQrWzLp16+KdnZ2nENGrNU17EwCsCbYFsVaJAgKwKlFN6vhUgK9hjxPRlw3D+H4ikXgmJFFDljzOs+pKwzDOc+D96bJboc+VE3AxRDyHAdYIACwK2LaYK1TAPvE17X2UTt82NDTEbuWhBlf5EvHFYcGCBStmZmY+DgCvlQtDTU6jcAGsjKTo73HCzyNHyTK5D/nshdW5zID2xfzQXskhAEsAVrAAi3ck1MGFWNY2hFmgVWRXQm69vJ0JC/NhsffVM5OjMJpw0mS4YY0Kn+8FYFVyvZE6FSgwRUQ/IaLPLFmyZLC3t5dTQvi5i1TQVENUwbVr18YXLFhwpq7r7EX/StkUqr7zIgCrvvq3cOspIvpGPB7/zLFjx54ME7jKm1Ncv359VNf1UzVNewsi8uYWS1t43htxaM90dnauE4BVu6nZE41GL7jvvvuaZkvR2kmT29I555wTOX78+GsA4CrJsaB8FkIKsFxdawuyom0mLDoxBVq0kmcaAVgCsIIFWPxozasqAtlQQhtQzbErof1x0d8XikcM5ubDYu+rx0efsfJ05RwKQZYALOX3kbA3YMzuWPW7WVi1PRKJ3NrK4TSlJpp/gIxEIn+jadp/AMDzgNm4HDVXQABWzSUPQ4O7iehtg4ODHBJdyZfXIDXCS6+8tDO9ON22atWqkR0v3lHpL8JB9IkZytbZXQo/zrsVAkAsCKNiY14Fvq7r+qUs/nEA6J63uBSoVAH2srrTNM0LhoaGJis1ErZ6vH1zKpV6uaZpX5ME70pnf5KI/nNwcPBTSlups3FrF0IOISx51AZkaRpYHlidyyu55wrAEoAVPMBii+yFxX5YLrrKhVjBhRIytHpy/ChMJtkBucg34cxXYzvpfFCHAKyglBQ7eQqkEfGIaZpXRiKRK/r6+jinbKiPs88+e/HExMQbAOBSADhJ8prWdjkIwKqt3i3cGufrexwRP75o0aLv9vb2VvKlNTB5tv9ye+Spxx9ZrVPsDQT4ZgBaAgB7EOhzkchM75KH1k3s2LGjLlFN/LzKG5KZpvkhRFwrICuwaS9maDoajf7Ffffd91sBWEp1tr6B/y8int/f339YbVOtZ33jxo2duq5fbJrmZxCxq/VG2BAjEoDlnYYgc2SVeP6OttkJ3SNt5d5rBWAJwAoeYDEo4h0JI2g7TNjOVXboXzZvu3+IVcI5CxA0mExNwxNjvHFRLr4qOFUCBlkCsBriXtNKneDdOHjHrZ8R0ccGBwd/30qDC2IsGzZsOF3TtPci4t/OetOv4D0jgrArNuZWQACWrJAqFWBQ9TQRfSsSiVze19d3qJ5eV9tu2qYvn+xcbmj4Vwja+4DgT/LGN0UIP9BMvBI7Y/uu3HbVJGKAv36VIeaWLVuWpdPp92ia9joi4mue7douR1AK8H33m/F4/LK9e/eOCcAKStYidhDxkGEYrxwaGuLdGoL7OVlhnxvN9ObNm1ebpvkRRORf9OQLUPATxADr44ODg58O3nTjWLzw6y87j4CTuPvpk09vrNxn8LkNe9pF9sLqNiwvrBKbtJWwJQBLAJaz6Ch7Q7E8lax/TeCoPMt3ifg/Jz26+571vl2f/+Qk7va/9msdtbJCCdlSyXxYRfZKMNn7auwITKdTees7e3KUBllWbys+BGBVLJ1UzFWAf3U4SkTDmqZ9rr+//yfy3W7OJYKbNm16qaZp7yKizbO7li2X3KZqTykBWGr1bXHrfHP+LRHtmJyc7K1rnisCfNu1r19m6NE/ITLeRQB/PycQQnwCTLhaR/xBrGPkkS9euNN2867D0dPT80IiuhwR+ZonECuYOeCvgINE9M+Dg4MH+L4rACsYYYtZ4ZwIH4tEIp/r6+ubUtdMy1vGLVu2vMgwjK8CwJktP9raDzBcAMvV19fTsDqQFWkj6FqehlhnOV5YArAEYKkDWMycoqjPsSthJjNW5iqV9baaf1fC0ZkpODw54kCzYhc6PyCrstBCAVi1v7G0YIsjiPg70zRvjEQiN0i4oP8Z3rp1a/vU1NRrEfFiAOCduxb7ry0ly1FAAFY5aklZrwJE1I+I7zvttNPu2rlzJ3u71OW45OpLFkEUTo9o6X8iwDcQQKffjhDAbzXAqwzQfn284/ijOy+syzhw8+bNWwDgW0TE1zs5qlOAvxweBID3TkxM/MQFqwyw2A1abibViVus9kHTNNn7ar/8QleduOyWaRjGuwDg38ULqzoti9QODcAC9sDKPxnrBLLYc6VtkQmdy9LAuxP6OwRgCcBSB7AYDXEy92woobsrIbfpJnWvLJQwbRrwxPhRSBmeNBrOsi9c/fY7Rc+KCkMLBWD5u8JIqeIKIOLDRPQDXde/eeqppz5Uz4e7Jp4j3LBhw7N0XX8jALwaAE5r4rE0bNcFYDXs1DR0xxBxlPPhJpPJrx44cMDZIri2XX7XF7a1zyzufq4B5t8gAkfdrKvIY5MghRreagLcgJD87Vdfe8MTtR0JwLp16+KdnZ0M7a+QnFhVqW8gIntcfW5qauqHDz744LhrTQBWVbrOWfmLqVTqP/fv38+AUI7qFOB1+nez7udXAsAp1ZmS2nkKhA5guePPeUD2xZCC9cjSYwRdywyIdxlO4qH51qYALAFYagGWtSMhalZS9wy2sjhWdfmwjk6Nw0hiwoFSxXYfLAasggNZArDmu7bI53MowDtH8yYn1w0MDIyIUtUpwLlNNU27iJNDE9HK6qxJ7XwFBGDJmqhQgd9omvb++++//+4K61dcbfv2cyKH1q59loaRFxOa/wCEL5y95rZVbDBb8QgBfQ907Uft6fR9X3r9dTW9fj/vec9bZ5rmLRI9VPFMjhAR5xEDQLbWAAAgAElEQVS/2jTNn+dvhCcAq2Jd56yYmt1S+R8ikchtYdxOWYWkmzZt4vDBTyLieSrsh9hmaAFW3UEWe2EtNKBzqQF61A9BE4AlAEstwGLrvBshe2F5dyXkbO4cJGitQAdoFT44ue/khhMmjRQ8PXEcUqYdkVAyUFChR5YArBDf4aof+i4i+uDg4CB708sRgAKbN2/mHyI/zd+TAzAnJjwKCMCS5VCJAk7S9g/39fU9Xkn9Cuvgpde+7gQTtT8HwvMR4a8JYRlQdv+YCu16qxkE8IAGcLOhmbcnDRq87vXXJQKwO6+JjRs3rtA0jfMLv27ewlLAq0ASER8kotsA4CZd1/cXYykMsHhLIN6OUo6AFCCiPxDRK4aGhu4PyGTozXAYoWmaHyCid4dejGAFmJx9Zv3YwMDAZ4I121jWOIk7oB1COFc2aGVeWSX4FIOrTvbCWmD4SOguAEsAlrOAFSRxt5LBW+bJAli6lQ/LdQ7MCycsArGK5cNim0emxmAiOW0lls8/KoVZRU/jjP3MSDLNCcBqrOtxM/WGk/ES0X8NDQ0900z9buS+btiwYbGmae9ExI80cj+bsW8CsJpx1urfZ0T873Q6/ZHh4eHjtejNpTdd2mVMzZyFAK9AhJcSwKlWFgNFBwJMEtJeNOHWtKbfvvqR1Qd37NhRThLasnvW09PTTUTvQ8T3l105nBV4Pp4CgDtM09zV2dm5e8+ePSWj2HiHkKOIKAAr2MWym+P8+/r6HgjWbHitbdmyJWoYxjv5V7uKYqLDK918I+dY94+HCmC5iszh9FRLkBVfYOfCisTm88ISgCUASz3AIjJBA81K6K7xlpk5nleZV9YWhPmp2/N3JZxOz1gAi3NgubslFrsglQeycs+Twp0L3XeyIEsA1ny3Afl8DgU+l0gkPvXAAw/wj71yBKDAli1bFhmGcelsbphPBGBOTHgUEIAly6FCBb4Uj8e37927d6zC+r6qbf/l9sjTf/jj6WDQhYB4LgCdCYDtvipXX4i3Mz4MCPeQibckwfjptf9y7eHqzRa3wNe5dDr9bgH1vhTmze7uQsSdAPCr/v5+9gSc86FIAJYvXcsu9ON0Ov2Offv2PVx2TalQUoHNmze/hYi+JAnxAl0kDLDYA+uzgVptMGM5Hlj5ffMLsrjefIyJH+nnLZNrR9PBAlgcTujwghLqCcASgOUsQoUeWCbZP0pGMWLlw3IxVTZ8kD91k7oX2ZnQoVomsffVOEylEja8co6KQFZ22J5zwz/IMhGGd7//Nxsb7LIUaHe2bt26JJFI7Je8QoHKysYEYAUsqQCsgAX1mBOApU7bFresFmAR4Ju/9ZrlCPFtYNKrCGBTHaO/UgDAgOSXpkHf7Vyw6H+/eOEXp4OeXwFYvhTlL3JDnGPSNM070+n07w8cOJD0U1MAlh+VyizDu9Ug4nsGBgYeLbOqFJ9DgZ6enn8FgC/MfqHsEqECUyBEAMu0QwhLhdfXEWTFOgi6VqQgEp+LfgnAEoBVG4DF0XiMrmJaxPLCcj2t/EAs1wtrMpWAY9MTlvdVsaOmIAth+O737xaAFdhtI1SGBGAFPN0CsAIWVACWOkHDY1kZwLrpppv0X0795O8B8A0E8KcAwJs32O7ddTyssELARwDNH2safmP5wZMeCTKsUADW3JNLRMc1TbsmlUp9P5VKPejdYdDPsuAcWEcAYKmfwlLGnwJEdDMiXiYAy59efkv19PS8kYi+gIgL/NaRcvMqEB6ApZm7cr2j8gOgHK38giw/nlY+PbL4ob9zaRrau+fywhKAJQCrdgCLW2IPLPbE0hwqZZ8x6MnX5npi5YYTGmTCsekxmErNzOuQWCw3lnvVKhlamJXBc4GbyyOLBGDNeyuQAiUUEIAV8NIQgBWwoAKw1AkaHstKANZbr/vXMw0wLwOEFwPBanbubihJEQhMGAPE32tI1yXS9K1vvuGb40H0UQBWSRXZA+4W0zSvaGtrO3DvvfdWFJ4vACuIVZpnQwCWAlFnV7sALCW6MsDaMTAw8Dkl1hvEqBVCyACr8Mm4eo8sXyCLwwZLADOnT3qMYNGqubywBGAJwKolwOI4RYQ2LQqaxmsvg6+cnQgdmGX/kfmcX44np2B0ZgoMk8MR7RNkrtNkLm+s3LpFEsEXJsHKuepYHyMN3/0+8cBqkMtxs3VDAFbAMyYAK2BBBWCpEzQ8lgMFWG+9/uKlJkXfTggXA1keV20NLiV/WRlFhAGT4KNXv+4bv662vwKwChVExD7TND+bSqV+deDAAd4YpeJE+gywOIHZsmonSupnFRCApWY1CMBSoms4AVYByJoDLs0DqDIfBwCyOpca0LGYvbCKGROAJQCrtgCLQwl1TYc470joM5QwZRpwLDEOiXQyj1opBFmenGCeO3GWVwvAUnLzCIlRAVgBT7QArIAFFYClTtDwWA4MYL3xa288IRKFbwPQCwGgo8kk5JwHkzpo/3rl6752UzV9F4CVw0WeRsQrotHoDaZpHurr62MvrKoOAVhVyVe8sgAsBaKKB5YaUQHCDbACAlnl71pY3COLE7p3n5QskQtLAJYArNoDLPaOatNidkL37DaDtseV/W8mqTt/PpacgjH2vnKSwVsfFzlBlHhklQJZSMO/Fg8sVfeQVrcrACvgGRaAFbCgArDUCRoey4EBrLfc8Ma3kkk7mjw90cGvvu4bp1Uz/QKweLNqTADAjxDxE/fff/++ajyu8udCAFY1q7NEXQFYCkQVgKVGVAFYnp8ICi6PJQh16akIAmS1d5vQtSxVZEdCAVgCsOoDsDTQoF2PWgArG0rogCuLYNkYK2WmYWRmEmbY+8pzFPdSrKFHFsLwr993tyRxV3UXaW27ArACnl8BWAELKgBLnaDhsRwYwHrz9W/8LwD6NyBY2LTyIU6f0H5i944Ld/jaEa/YOEMMsAgRZwCg3zTNz3V0dNyxZ8+ewHd5ZIDFMYjLm3aRNWDHBWCpmRQJIVSiq3hg5cta4BpSg2TvnvxY7OTSfVIKou35oeECsARg1QdgcSgh70gY1yI5+a68Xlh82kwkp2FsZhqsnFZFsl7VDWQJwFJy8wiJUQFYAU+0AKyABRWApU7Q8FgOEGD9yyeB8K0A0LwbbiFOrx9tX/z2t1/BIKaiI4QAi4hoBhH/DwC+PTMzc+3vfve7pyoSz0clAVg+RCq3iACschXzV14Alj+dyiw1MetV8dH+/v7Pl1mvqYpfeO3LzgMolcS9xFDqCLLiXQQLVybzvLAEYAnAqh/AYrDarsdBt+IGs7sOuhAraaSt0MGkkcpDV0USr7unXNmhhczFSgcfltq1kEA8sJrqgt1YnRWAFfB8CMAKWFABWOoEDY9lAVjeuRaAVe7KTwPAH4nortm86v89ODg4MM/ePeXaLyjPAOtpAFhRtSUxkFFAAJaaxSAAS4mu4QRYRR+gGwhkAVo7Esa7vF5YArAEYNUPYLFHVQQj0MahhBw06MmHxUxpIj1teWB56VUuavILstjE3DsiWJ+WAFlF20QY/tW/SwihkjtI6xsVgBXwHAvAClhQAVjqBA2PZQFYArAqWu2IeIiI+gDg68lk8vYDBw5UHHZZTgcEYJWjls+yArB8ClVmMQFYZQrmr3i4AVYDg6xoG8Gi1SngxO72IQBLAFZ9ARZzpfYIJ3TXc0IJ2etqLDlt5cDK/pJT9K/OmyXQVp5H1nwbe/oGWUgCsPzdD6RUoQICsAJeFQKwAhZUAJY6QcNjWQCWAKxyV/sYALCn1Q9isdi377333qPlGqimvACsatQrUVcAlgJRJYm7GlEBGGBt7+/v/4KqBhrBbkEIYalOzffE7PCD3OpFcmTNY8dvsvcFy9PASd0FYLnOyGh5+BTNpURY9H0v5LD/7gUrudvWZe16Eow7RTJeQQU73VGuMxB/7mnI6yjktZHTFaeQd11QbkVPt+0OuGUtm9a/ptUuv+a67t/tz5x/nH7xZ2amnqcsbxFDth2rVsZe9rWGCB2ROGhOKCGXn0wmYCptp4rwKGcLnaN3/onnD2QVPe08puYFWZYH1q8liXsjXIybrw8CsAKeMwFYAQvqMYeI3+rv779YXQv1t9zT03MOANwMAEvq35uW6YEALO9USgjhXAs7iYjDRPQzwzBuGB4efqAeZwEDrEMAcEI9Gm/VNgVgqZlZ8cBSoqsArGKyNgjI0qME3Semgf8UDyyeKAFYLr2qF8BiUBbXYxDXotaZM2OkrNBBg3I3HSjIR1VPkIUw3CsAS8kNJARGBWAFPMkCsAIWVACWOkHDY1kAlgCs+VY7f4t7mIjuRMQfrFq16td33HFHxUnu52tsvs9x06ZNhxBRANZ8SpXxuQCsMsQqo6gArDLE8l90YnbbiO2Dg4Mt7oF17nmAsMsCIHz4AVSuhn7KFpQJbufCjm4TupZzaJaEEArAchZvHT2wGGBpqFkJ3XmVTyQTkDDmTnmQA7PyzpXC00uBV5YALP93BCmZr4AArIDXhACsgAUVgKVO0PBYFoAlAGuu1X4YAH4JAD8yTfPOoaEhfu3n6UjZGcQA6ylEXKmshRAaFoClZtIFYCnRlQHWRwYHB7+oxHqDGL3wWhdguR1qHpClRwEWrkxBtM3Bb2Sl0HaAlu2RxId3Xzh+L+e1UwOsuvZn1udWXfc95+/Oe953rRqZW5Vb1+2Hp61idT1tZnrqadcFirb57HgK+KFbR0II6xpCyACLD86DxSCLwwfNTAjk3N9n6gGyuK8EJB5YDXItbsJuCMAKeNIEYAUsqAAsdYKGx7IALAFYxVb7NADcS0TfJ6KfR6PRR/r6+lKNcFoIwFIwCwKwFIgqObDUiAoQUoDVPCCLN3vj3QgXLDdA0/hpXABWBoR4eYnkwKpJDiwXYNn5sQBSRmHidl+7COaSy8z1TYVHFgIM3/Xvv5IcWKruIq1tVwBWwPMrACtgQQVgqRM0PJYFYAnAyiiAiAYRcbjg/yDibaZpHhgaGppspNNBAJaC2RCApUBUAVhqRA09wGoOkGVCGtqXpKF7iS4ASzywGsIDixPFs+eVYdoJ4gsOJwH8XBcuu5ZTt5LQwoJmcyxmv4wJwFJ1/wiDXQFYAc+yAKyABRWApU7Q8FgWgCUAy1XgOBH9gIi+G41Gh/r6+nh3wbqGCxY7DTmJ+5MAsCo856j6kQrAUqOxhBAq0XUCAP5jYGDgS0qsN4hRK4RQ4xxY812Gywwt9HtJryJHFkOCkfEpiHWYcMq6NtB18cASD6z67UKY9cCydzvk9cn/lTwVGgBkiQdWg1yIm7MbArACnjcGWKZpvoWIPhmw6dCbk10IQ78EKhVAAJYALHan322a5hXRaPQ3p5566jM7d+40Kl1QqusJwFKgsAAsBaKKB5YaUQHCB7BcJeeET7UAWSUSvedBtqnEDIxOTEMkCrDypDgsXcG7v0kOrAIYKSGENQ4htD2vOJTQAliZPFglLlXzgKyc/FhFQPNcoYVFgWbuApEQQlV3kNa3KwAr4DkWgBWwoB5zArDUadvilgVghRtgPUVEn0gmkzcj4tEDBw7MvTNPA5wMArAUTIIALAWiCsBSI2pIANZF1557nqnBrqLMyg/Imtdzy5meijyySoMs0yQ4cmwc0qZhIauuRRFY8+w2iMY4GZY3EbskcefcYMVAhvWeF6545sjyG8p57c6jJxTNKZLxMcqtYqcIz8nF5Tbn2Mhvz7OWsv0tDH1zgZDLYXIAT513IbQlzQdYuSdJpR5ZBSAr79yrEGQJwFJ1B2l9uwKwAp5jAVgBCyoAS52g4bEsACucAItB1Tfi8fgnxsfHn2kGcOVOEwOsJwBgdXjOUfUjFYClRmMJIVSiK3tgfXhgYODLSqw3iFEXYLndKZE6Z47eeiCTH0jlp0wBFCsEWeMT0zA+lcj0KxJFWL4qBiesjgvAytdPAFbdPLAY4pkM1YoQxNqArNxWinRj+K5/75Uk7g1yPW6ybgjACnjCBGAFLKgALHWChseyAKzwAazedDr93n379t0P4Gwv3UTrXQCWgskSgKVAVPHAUiOq7YEVOoDVUCCrRH6sVNqAI8fHcr172AtroQ4nrW2Dto6I5YPlehBZf7cO+72c107Qob2Doeu75dZ138vWzdbO2sRMP13PLzcXl6ctq4zbshuGmW3T7Z9tKxcK2uaz4ymYI7eOJHFvmCTubghhIcAqPMPqDLIEYKm6g7S+XQFYAc+xAKyABRWApU7Q8FgWgNX6AIu/hqWI6BFE/LRpmjsbbWfBck43AVjlqOWzrAAsn0KVWUw8sMoUzF/x8AAsvXQS94bwyPKGmhHBsbEpmJlJFcwiJ3FftioGK1fHQdM0AVgZViIhhOwBZUMlO6zRDZF0gv0cGOrkrXLCJ10I5YZImmTmlPNCKtumaSnuDSF0AZb9QbHtaooGBuaubTvWs2Qy+PJCC/M8shCG77pMPLD83RKkVJ4CArACXhICsAIWVACWOkHDY1kAVmsDrBkAOKRp2k7TNK8cGBh4bL4trRp96TPA+iMAnNjoHW2m/gnAUjNbArCU6Bo+gJUBHoV6NgrImk4kYWRsquTDfOcCHVavaYOuBVEBWAKwHGhkg6f6AizK+N/Zfck//ICsOXY0zPnGlZNczGVneQ06ZRCGfyEAS8kNJARGBWAFPMkCsAIWVACWOkHDY1kAVmsCLN5Z8DAi/hoAvjIzM7OnmfJczXX6CcBScHESgKVAVAkhVCNqmEIIXQ+s0s/UJR6C/fxOEdyuhaZpwtGRSUilSu9eq2kIy1ayF1YbsEcWHxJCKB5Y9QZYvBshIoDmCQ9182KVyFJVHNLO443F630uj6zCqFwSgKXqDtL6dgVgBTzHArACFlQAljpBw2NZAFZrASx2lT8OAPcT0Y3pdPpH+/fvP9ZKyxk3bdr0B0Q8qZUGVe+xCMBSMwPigaVE1wlE/FB/f//lSqw3iFEribtOu3LyLjUgyOKwrInJGZiYmrFCtOY62jtsL6yFi6ICsCyiIQCrEQAWT4WGWZzqruG6gizE4V9cdpckcW+Q63GTdUMAVsATJgArYEEFYKkTNDyWBWC1DsCaJqIhALgdEW8cGBh4qBWXsQAsBbMqAEuBqOKBpUZUgHAArBvOPc8E0wOwCnf8ywicx42KYqR5dxmszCMrmUrDyOg0pI3S3lduPxERlq2wdySMxtjnRZK4F9l9zvbUceiJ49jjmercOLdsfftvbnn+MxPYVhAaZ+eU8q4f+7VjIyfSzXmR+0du/xxDOQAzp037hWs2m+eq/iGE7IHFPeO1qKHmjiTn2qUKZHkUt9vz6i4AS9X9Iwx2BWAFPMsCsAIWVACWOkHDY1kAVvMDLELEBwHgTsMwblqyZMme3t5eDiFsyYMB1uOIeHJLjq5OgxKApUZ48cBSomt4ABYywHIfbD2wp5SsNQZZpkkwOjYNiZnUvN5XbpfjcQ1Wr2mHRYujlteLfcguhDnwwprzXCDl6ufCn+xr52955QVg2SfOfEncXYDFpRlg5fph5QUR5kO8POpUGhzPnSMry648DSAO3ykeWEpuICEwKgAr4EkWgBWwoAKw1AkaHssCsJobYB0GgJ8h4i2xWOxne/fuHWv1pSsAS8EMC8BSIKp4YKkRFWCciD40ODh4haoGGsHuReyB5QIsb4fIB8jKPhFnapbvleXx+CrhvTU9nYSxiQQYhr3Lm99jybIYrDqpDeJx3akiAEsAVn12IXQBFoMu9hDULYhlH0VzVuV5ueWu+VI1vAZ9wiyE4TvfIyGEfq8pUi5HAQFYAS8IAVgBCyoAS52g4bEsAKsJARYRJTRN+6Vpmj8yDOP2ffv2/SEsS1YAloKZFoClQFQBWGpEDTvAclWtM8hKG6blfTUzkyp7niNRDU46pQ26F8eAk7uLB1Ze+JhFT8QDy96d0EZJ/KfpxCG677soyCQ7FDHrcZVbj8AGrBzi6LVpsk0nhNANE2QvLD3jGVg/kEUCsMq+rkiFjAICsAJeDAKwAhZUAJY6QcNjWQBWcwEsk4j6AWAnIv70tNNOG965c+f8uUdaaD3zLoSPAcCaFhpT3YciAEvNFEgIoRJdw+2BlS+pBbLmyI+VAV65Fav1yLISt08mgMMIKzkWdkfh5FM6IN7GeYfEA0s8sOrvgcVwi0MII1p+KOH8IKv4/gVVeGQhDP9cPLAqubRIHQABWAGvgrPOOmthIpG4FBE/GbDp0JtDxG/19/df3MpC9PT0nAMANwPAklYeZ43HJgCrSQAWEbGX1fc1TfvR1NTU/Q8++OCEn73Sa7yelDcnAEuBxAKwFIgqHlhqRLU9sD44ODj436oaaAS7VgihZu7ygo05++UHZBVhTSXxU8kPEJLJNIyNJ6w/Kz3Y8+qkU9qBwwk1TbPitXKSurtYzvE048+sz61+2cAu83/nPe+7lrXMGNy6WdiXaatYXU+b9vhcW7lhlbZ5t09ZJTLNun31JjT36iq7EDo5qhheNQbA4unhMEKGWKXOvblCC4MCWYgw/DMBWJVeXsJeTwBWwCvAAVhvQcRPBWw69OYEYIV+CVQqQGAA6003vOHjaMLbAWBhpZ1pgHpT5ozefc2brik/LMLpPF/nksnkO4joY0GMh4g4Z/FPNE27IZlM3nvGGWccCZvXVQ5j7OnpeRQATglCXLFhKyAAS81KEA8sJbqGC2C5Evp1dLLKubupldC/CpDFHlcTEwmYnPKfuL3UKujojMCz1nVCvE0XgOWZEzsaTkIIax1CaAcYggU+o5GIA1QLtnC075k5i7rwhCrumOiZ02InhRsGyX0QgKXk5hESowKwAp5oAVgBC+oxJwBLnbYtbjk4gHXdv1yMAJ8FwBXNqhkB/fbq137zBYC+f/YuGOqWLVs6DMN4HQBcWaUO/Ot2PxF9NRKJ3Dk9PX3owIEDySptNn119sASgBXwNArAClhQx5wALCW6hhNgNQjISiRSMDY+A+l09aHrnGpo9cntsPyENmtHQvHAcn5QEIBl56qqcQ4sF2AxPOT1GNOjmQtY/u6PxU/HAEEWknhgKbl9hMKoAKyAp1kAVsCCCsBSJ2h4LAcGsC65+pJFWiz9WUB8DQC0NaGETyIZ//iV1193d5V91zZu3HiOpmm8A3pnhbaeJKKvI+K3u7u7/9Db25uo0E7LVWOA9X8AsLblRlbHAQnAUiO+ACwluoYbYNURZBlpE8bHEzA1XbGHcsGCiMY0eM76hRCPefMOeYIBJYQwx90nH6RkwxVzPbb4VWa/uwInIjfJuTMd/Lnj/eNhZ9aHXhv2a7dOoTcRhwF6iE/uLn6ePrhj4OTqXMUGVY0TQsid4n/iehQ4qbv3CA5klQpEtFvTEIZ/8u5fbFRyBW0Qo1u3bl2SSCT2z/5Ku7JButQq3RCAFfBMCsAKWFCPOfHAUqdti1sODGCxTpdcfUkHxoy/RAQOE17fHNrhDGpwrZakTz2zcOyPOy+sPin6hg0bTtV1/QuzHlTnl6nBNBHdnk6nPz05OTn86KOPzoQxz9VcmgnAKnNF+SkuAMuPSuWXEYBVvmY+aowDwAcGBgaqdXH10VT9imRyYM3VBb9hhRZ58JHsfZ7QQg4bHB/jxO32rm5BHStOaIMT13RYXi/2IQBLQgjr64HlBBNCeyRWdJlXArIsqFhwjhUHWQKwgrq6hNKOAKyAp10AVsCCCsBSJ2h4LAcKsFzZtm3fFlt26oJ3EOF/AMCCxpUTezXT+NDyx9bcu2PHjsoT0uYNcNu2bfpDDz30t7Ob5X0TAPyEVBIR/R4R3z8wMMCeW8E+IDTuBJTdMwFYZUs2fwUBWPNrVEkJAViVqDZvnfAALN1nEvcagKxkyoCxsQTMzAR2n8xMNCdxP/3MBdDeHhGA5f5kJTmw6hpC6IYvRvUIRDW95EUpx+vMU2quHFl+QJYArHnvA1KgtAICsAJeHQKwAhZUAJY6QcNjWQnAcr+Evv36S05OkrEDAF4FAB28v0tdpeXcVgQc/vAwaPTFqDbzvSv++TtjKvq0cePGTk3TLpr9OrodAFaVGHsKEUdN0/zymjVrvnDrrbdOqehLK9nETZs2PYKIz2qlQdV7LAKw1MyAACwluoYLYLkS+oFUfspk7Pn3yOKH9InJJIyNqfMI7l4cg1PXLeDk1eKBxRIIwGoIgMVT0R6NefKzFV7TSnljFZ66eViraH54uwwncZcQQiX3jzAYFYAV8CwLwApYUAFY6gQNj2WVAMtS8W2Xvy1uLJz8C5PwMkR4PhEsBJxvlyQlEzADCIcI4Gai9FXXvPb6R6pJ1u6nh+vXr49Fo9FzEPEdANDj5AbjnAoGIk4R0U9TqdSn9+/ff9CPPSkDIABLwSoQgKVAVD7je3reSERfQMQGdkNVM3aFVhlgsavqVQrbqLtpK4SQPbDyD7+Qyk85q8z8IIu9rkZHE5BKVZ+4vZSwDK7WPWchLFzEibMlhFAAVv1DCN28YLqmQ5uT0H2u0yo/X1jpU3d+kKUhDd8hObDqfh1u0g4IwAp44gRgBSyoACx1gobHsnKA5Up5yXcvWYYzdBGi+c8AcLoTWujmvFCpeBoBniHAe0CHr5hT2u5r3nRNcEloffScdyYkojOIaL1pmuyZdQQA7uvv7/+DhAv6ENB7rRMPrPIE81NaAJYflcovIwCrfM181AgRwDIcgFXkPukHULGYfsplyuTmoOLqpklW4vaJCfU74HZ1RWHdcxeArtuJs63eSBJ3SeLu7EZo8mLOJH3PJpg3yU4Gb73j+Tz72k7JYCWK9+xsaBKAaVX01LML5pTjNRiPRiGCHEFQmLy+EFQ5J1SJc69U+nY3PxZ/riEO3/Hun0sSdx83BClSoIAArIAXhQCsgAUVgKVO0PBY/nI8Hv/I3r17lYTR5cu4nbZrR65/8ow0mK8DgHMR8FQAalckN39pOQ4A9xPgjdpU9JavXPoVfi1HEyvAHlgPI/LCkQDw33wAACAASURBVCMoBQRgBaVkrh0BWEp0DQfA+u6555lg7MoFULUFWURo5bw6fnw68MTtxVYGe2GtOaUTlq2wvxMIwHJwSc7mfrlxZ0V3BXSKyC6ELpiqDmAxWNI1DeKRGPBemfahFmShACwlN4+QGBWAFfBEC8AKWFABWOoEDYllRLyCiD4yMDAwUsshv+umd7VPTY6frSFcBEDnEMDJAOAmcA2iK5xLahABbjdm9BuvedM1DwdhVGzUXwEBWArmQACWAlElhFCNqADhAVjoAVg53hy1AVmGATAykoBEonYey+0dEVj3nAUQi+kCsDIJ3bOnUn6+JQFY7EWl1gPL9YzihO7xCIe4ej0bVYEs8cBSdQMJgV0BWAFPsgCsgAUVgKVO0PBYviGdTn943759HMpW8+Nt33z9ckPDc03QXgFA/x8ALM3kv6isN/xV4wAQ3AkafW/lIyfv3bFjh+zoV5mWDVlLAJaCaRGApUBUAVhqRA0bwHJVdElFQVhSHszyEzKY8wBefJr4Tjo1mYLR0Rkr9KpWh6YhnLCqHVav7rATuksIoYQQ1jmE0A1L1FCDtkjM8sbKHFmCmMu1ipww5eTIYg+s298lIYS1uu60WDsCsAKeUAFYAQsqAEudoOGxvBsA3jcwMMB/1u146/X/+hwTjJcR4XkA8EIAiFXQmSdn6/6MEG+hhPbza950jezoV4GIjV4Fe3p6OOP9sxu9o83UPwFYamZLQgiV6DqOiO/r7+//ihLrDWL0Ig4hZA+s/KMkyOKCwcGsVMqE48emgf+s9dHeHoG1p3ZBZ2dEABaLLyGEVm6reuXAcgEWzwN7YbVZuxIWSS+Xw3kzuKro6ZPx2yrFhhEEYNX6wtMi7RHR52dmZj75wAMPHG2RIdV9GAKw1E0BIn6rv7//YnUt1N9yT0/POQBwMwAsqX9vWqYHx4noP1Op1DUHDhyYqOeoLrn6kqgeM7eQBn+HBBcQ0Jk++zMOJvwSEH6kgXH7Va+/7pDPelKsCRUQgKVg0gRgKRBVPLCUiEpE40T0vqGhoZYHWOQArKLPuH5BVjnOUx6bo6NJmJiYUTKH8xllL6yly9rg5DWdnMzaKo7OPzbM8exSyH933vO+a9XwJKfn+rY3V9aeZbhYXY/Xl91X15YHEGZSUbntZ0eV65Rjf57nqGMXJiz6vlXW8Xqz/+61LTmw3ETsLiKqRQih2yavR/bCYpBVMg9WECDL8sD6mSRxn+9iIZ8XU+Aruq5/vK+v7ymRJxgFTj/99KVtbW3vAoAPBWNRrLgKCMCStVCFAnsR8cOLFi3q7e3tTVdhJ5Cql950aZcxOXM2IrwcAC4AgBNKGOa8HL8lou+jgT87unDsdzsv3Klum+9ARidGqlWAAdZDALCuWkNS3/NQRHQzIl42MDDwqOgSnALigRWclq6lMAKszNiLyckPyyUhVS5w8TsbyYQBR48mapK4vVSf2tp0WLOmCxYusr2xBWDZSkkOLFuDjFcU75RZgxxY3t0LI3oE2iPxDFxVArIEYPm9XEm5PAWI6G4AuGxwcPBeEScYBXp6ek4DgCsB4K+DsShWBGDJGghAgSQi3mOa5mdGR0d/9eijjyYCsFmtCXzz9RevBoq8CFD7RyD6GwDo8Bh9GIh2AuJt2mR88Kq3XlVX77FqByv1/SsgAMu/Vr5LigeWb6nKKigAqyy5fBUOFcDSPCGEDqQqyaoCAlkMBo4enrZ2H6znwV5YixfHYc0pXaDrLr7KelvZUMv5v3hgFXhs2cshu2hy140NgDIHO3V5XL28n+Xnbcp6kmWC4LJmcit6uKrtNZZ18HNf28nXbTjkgVLuew6osko0QAhhViPbC4t3JbSP3JOv4BzN96Cb48TKqioeWPW8/jR525MAcMPsQ9NnBgYGHpvrJ44mH2dNur958+blRHQZAFwKAF01aTREjYgHVogmW81Q2ZvpIX6OjUQiX+/r6+Ok7uXEHijplRVW2JE+1UzDi1GDVwDhMiDYC7q2K5pO37/ksTVHJUm7Eukb1qgALAVTIwBLgagSQqhEVAZYAPDvg4ODX1XSQIMY5RxY5AVYbr/mA1lcrmTaqvk9sjhx+8jx2iZuLyV5PK7DiSd2wpKlcfHAyqASCSGstwcWtx/RdGiPtIGu6XnLN3vylQZZc+fHcpCYhBA2yLW4SbsxSkR97DXU0dFxx549e6abdBz17La2YcOGlyDiuzRN2woAi+vZmVZtWwBWq85szcd13AFZ3xwdHb2+IbyxCPA133pNR6ehLze0aExHfcScNo9f86Zrare1d82nQRospQADrN8DALvzyhGQAgKwAhIyz4x4YAWva+gBlvN0m8ezigtdFGSVTvRumiYcfjoB6XRjhOJz+qtu9sJa0wWxqG5BLMmBJQCrEQAWr8O2SNxJ6O7JZZY5E6sEWagN//idP5EcWMHfQsJkkd1ojyPiL5LJ5Kf2798/1AieCc0wAc9//vNPTqfT24noZU7i7Wgz9LsZ+ygAqxlnrWH7zDfeUQAYcPIA/rJheyodC50CArAUTLkALAWiigeWElEdgPXewcHBq5U00CBGS3pgefuXE5o0R8d9gqzRkRmYGE82iAJ2N6IxDVav7oQVy9sFYEkOLCcUsb45sNyQR/a+6oi2QVTjhO72URi3UAJkzZfoXQBWQ12HmrwzDLLYI+trXV1dn9i9ezd7MctRRIH169d3xWIxDhV8JwAs41uQCKVWAQFYavUNo3VENGbDfieI6IemaX58eHj4kTDqIGNuLAUEYCmYDwFYCkQVgKVE1PAArJecR1pkly8R/YCskjmybI+sVNKEI89MgWnWPXVAwZDZC+vkk7ugPR4RD6ycLQ29uxt6clI5TlqSA8sFXTZEsvJsefJq8VI3rcRWWSBmpwLLLZfN02UjKhdg8au2aMwKJUR2F5zzPCwTZAnA8nXpk0JlK/AEALzv/PPPv1Hyr2S12759u7Zr166XEdHHAeBMAMiPDS5baKngTwEBWP50klIVKcB35cMA8PnOzs6vCLyvSEOpFJACuGnTpgcR8TkB2RMz9hd72YVQwUqQEMLgRQ0VwNJ1G2BRXthfKVkrBFn8gH7sSAIS0/VN3F5qWLpue2GtPMHxwsqmb7dTuUsSd0ni7iShL4BNFsxTB7A01KAj1g4xPeuFVRpkzZHsPd8jSwBW8DcPsegqkCaiXyHi9vb29vv37NnDO3c13i8X6ucL161bF2tvb/8TTdPei4gcLtipvllpwauAACxZDzVQII2Ig7O/OX1qamrqpw8++CBvdFEyW2wN+iNNhFABAVgKJl0AlgJRxQNLiagOwOItwq9R0kCDGL3ouy85j1yA5fZJEciamkjD6OgMmEbjPsMsXBiDk0/qgs4OjujI7D8oACuzNsQDK8eTKgdoqQNYLH9Mj0F7lBO6a7kcoCRQzoKskoneEYdvkxxYDXI1btlucH6sbyPi19Pp9MNDQ0NTYQFZ55xzTtvx48fXIOJFAPCvAHBiy85ygw9MAFaDT1ALdc95fvixrutXjUWjgwf37p0QkNVCE9zgQxGApWCCBGApEFUAlhJRQw2wFIAsI0Vw7MgMJGca0/vKHbKmIaxaxV5YHQ4o8GAs8cASD6w6eWDx+uTNBTrZCyuShaul4glzgdUcHlmgDd/2zjskibuSu4gY9SjAdPdBALhG07Tbjh079seG2L1L0RStX78+Fo/HV5mmybsLvhkAtki4oCKxfZoVgOVTKCkWmAIE8EcCuF4D+L5pmg+FCd4HJqIYKlsBBlgPIOJzy64pFUoqIABLzeKQEMLgdRWA5dG0So8sDrcaH03B5FiyIXNf5a+ezs6o5YW1cEHc+ijjhyUASwBWHQEWr8WIFrEgVkSzU+dkQVVxN6xCkJWtZX2macO3vV0AVvB3ELFYTAEiSiDi3Yh4bSqVumfZsmVP9fb2NvavGuVNpbZ+/foV8Xj8BaZpXoyIfwMAXeWZkNIqFBCApUJVselDAYb39wPAtbqu3zU9Pf3IgQMHGmsXIx+DkCLNo4AALAVzJQBLgajigaVGVIAxIuJdCMMXQlhK0QpB1kzCgNFjM1YC92Y4OFH2ypUdsPKETohGNAFYXlBiJSN3wIkkcec87J7k7GpDCN1zh8MI2yNxO6G7c1QKskgAVjNcklqxj4eJaBci/kDX9Xv7+vqONXuIzYte9KIFExMTf4qI5wPAqyVcsLGWrQCsxpqPEPZmGhF/ZprmjQBwz+Dg4JNhCaUO4VzXdcgMsH6HiKfXtRct1rgALDUTKh5YSnQNB8D63kvOI3STuPvUsQyQxbsNjh5PAue/4t3ZmuVoa9PhlDULLS8szeIEksTdJlcCsOqVA8s9dzihe1e8A6KaJ6F7hSALNRzeJR5YzXJZasV+8mZJPzBN8/bFixf/tre3lxO9N9Wxbds2/cEHH9yk6/pLiegf+DfFphpASDorACskE93gwySiZzRN+wEA7IrFYrv37t071uBdlu41mQICsBRMmAAsBaKKB5YaUQH4pnLZwMDA11Q10Ah2L/ICLLdDfjmTD5A1NZmGseNJSKeaw/vKOycrVnTAiau6IBblpNkCsARgmXkeV1QXDyyeh3gkBp3R9hwvLO/a9euRhRoIwGqEC3G4+5ACgHtnv8rcomnaj++///7fNYscW7ZsebZpmgyuXgkA5wAAJ6iTowEVEIDVgJMS4i4hIqcp+oFhGHekUql7JawwxIsh4KELwApYUDYnAEuBqAKw1IgKMGYYxmXDw8PhA1jFn4Tn0NmFO7lF0imy4NX0VMp13FE1V0rsRqM6rF27EBYvjAGi5sTNcSptPtzwLQTM0AL+jLXgz9xSTrli+bMcAOhatNJ0O+UyA3LC9LIALTvUTLNunUzZPMd0wmyupPxUSXkeVVmG6TXmybUkHliekMH6ASwOH+yKdUBMj1oQay7vxjlhluWBdbskcVdyBRGj5SjAeScR8Zemad7K3glDQ0PPlFO/lmVPP/30pbPeE3+t6/r5DLAQcUkt25e2yldAAFb5mkkN5QqkiWgPIt7G//X39zO89/sTsvLOSQPNqQD29PQcAIAzmrP7jdlrAVhq5kVCCJXoKgCrCpDFnGNyPAXjI0kwjOa9Hy9e3AZr1yyEWFQXgGX/CmGtCif1k/Unud+3cplXBvTkwDi3YtaUY89ZI7l/5LbnGMqBNTlt2i/c1Wb1y/rX9pzi11zX/bv9mfOPJ5eVmannKcsJeqhxPLBYCk7ovrCtEzik0J6auc+zoiALBWApuXuI0YoVIKInAOAuRLzZNM07h4aGJis2FnDFc889N37o0KGzTdN8NSL+FQA8S3YXDFhkReYEYCkSVsxWqwDfmkdmryf3AMCPNE27va+v76lqjUr98CogAEvB3AvAUiCqeGCpETVMHlhaGTmwfLEohGTChNFjSZhJNPcGU7quwbNOWQhLFrfZ3lXO/8UDy6ZYArBsnGdDsdokcc9e8BA6Ym3QEW3LuQaWA7IQcfhH4oGl6h4iditXgG8cDxLRXUT0naGhod8CgFG5uaprahs3blyvado/EtHfapq2nojaq7YqBmqmgACsmkktDVWmAF/zOLH73UT0P0T0y0aC95UNSWrVQwEBWApUF4ClQFQBWGpEBRgzTfM9Q0NDX1fVQCPYtXJguQDL7ZAfSDVHGU7cPjGahvERDh30Y6wRlCjdh66uGDxn3WKI6nYuLAkhFA+srEdXPQEWWN5X7IXF3lj5x3znHp+ZiCAAq7EvP2HuHS9R9r7az54JiPjd/v7+x2otyPr161fGYrFXzfZjGwBwuG23J4a81t2R9ipUQABWhcJJtZoqgIi8kcWjAPBz0zSvXbx48XBvb29z/xJcUwWlMQZYfNNcL1IEp4AArOC09FqSEEIluoYXYFUJsmamDRg5moRUsvkStxdbSZxj6JSTF8KKZR1WviEBWAKwGgVg8XqN6zFY0NZZ8iI4J8gSgKXk5iFGA1WAbyQjhNhvEn1zemLitoMHDyrfuWvLli0dyWTyHE3T3oyIZwHAUgkXDHRea2pMAFZN5ZbGqlPAhfcH2RsrEoncIGGF1QkaptoCsBTMtgAsBaKKB5YaUUPlgaXtyobE5cnp14HKKWekCcZGUjA5xhtLtc4Rj0fgzNOXQjSiC8CSHFienFq8xusVQmifX4xUu+Kd0BaJzpn9tSjIEoDVOhep1h8JeyEcJ6JfENGXlixZ0qfIM0HbsGHDc3RdfzcRnYeIDK5kd8EmX18CsJp8AsPZfYb3EwAwTESf7+jo+MmePXumwymFjNqvArwL4T5EPNNvBSk3vwICsObXqJIS4oFViWrz1mEPrHcPDQ19Y96STVzADiFkgOUe7u56FYAsApieNOD44RngMMJWO1av7ISTT1wkAEsAVkMBLD7PdC0C3W0LQPOcvqXOQC/I4hDCWyQHVqtdqlp9PLxz1xFN064HgMv7+/s5b0wgxznnnNM1MjLyFkR8GxGtFHAViKwNYUQAVkNMg3SiMgUYZE0j4k9N0/zI4OAgbzLXel+yK9NGauUpIABLwZIQgKVAVPHAUiOq7YEVDoClOwAr53ZYPshKpwhGjsxAYqqeuXZVLQcA1DTYdOZyaIvpnhQoCJjRjX1hEIDsZO98uAGH9leNvPBDq5ynDH/ulMuMIrOrHtvNHVvmpVvHuyOftyxhtqrnfXvjPfsNz+aAzuvcLQWzbeWWlyTutnr1SeKeXQ+8stqjbdAZc/NKe+apxCnBIEsAlrrrhVhWrwARPYKI/zExMXHzwYMHZ6ppcfPmzeeyl4PsPl6Nio1bVwBW486N9My/AkSU0DTty4ZhfFySvPvXLUwlGWANI+KfhGnQqscqAEuNwuKBpUTX8AEsV8YKQBaZAFPjaTh+dKalfxdatqQdnr12sZULyz4EYJGLx3KZVwbs5MA4Dynz5vf32sgAtXzA5hjKCYXLadN+4S5fy6azO2A2Z5ULm9zPuJT9nguizEw9T1kAMMnMKZdfr/a7EOZe93QrofsCiGgMWHNP5pI/1bIH1tt+zImpW/bYunXrkkQisd/xqGnZcYZ5YBxWGIvFPhCJRPbt2bOHkyD78U7AtWvXxpcuXXqaYRg7AOCVYdaw1ccuAKvVZzhc40PEPxDRR6anp2/euHHj1M6dO1vzl+NwTWsgoxWAFYiMuUYEYCkQVTyw1IgKMEZE7xocHPymqgYawa4VQuh6YOV3qAyQxQnbjx5KQjrV2vdQBldnPGcpLOyKO2oJwBKAVX8PLAelQjwag65YR9bzbz6QJQCrES7D0odgFEgS0dfi8fjliUTiibm8E7Zu3dqeTCZXG4bxegC4FAAWB9MFsdKoCgjAatSZkX5VoQAnm/0VEX3WNM37LrjggtEdO3a0xu5JVYgS9qoCsBSsAAFYCkQVgKVGVAFYWV09IXLFxCaTYOxoCsZHWytxe6mFtWhhGzzn2UtAtxIOCcASgNUYAIvXq65pFsCKR2IFYaFepxTPKS0eWKruIGK3Hgrw0v4DIl6eSqVuWbZs2RO9vb3skWUd69evjxHRqng8/lIA+Ddnp/FIPToqbdZWAQFYtdVbWqupAscB4H90Xb/eMIwHBwYGRn16oda0k9JYbRRggDWEiBtq01w4WhGApWaeJYRQia6h8cACXdvlJ94iG5SRmx9rZtqEo08lWjJxe7GVpesaPGtNN3A4oQAsK/DOlklCCG0ZKDcskfczMK0YxWxIopt/rDAM0RPOaJX3dWZmlinnwopForAg3gEaau605AVUZW2SeGApuXmI0borkASAPQDwNU3T7k8mkxOapnXwxkyI+FoAeAkAdNW9l9KBmikgAKtmUktD9VGAPa8eAgCGWLfFYrGH+/r6purTFWm1ngoIwFKgvgAsBaKKB5YaUW0PrHcODg5eq6qBRrB70fdfch6itis3d9AcPcsLKzQNguNPJ2F6inc4D8fB6a+6OuNw2qlLIBbVJYm7AKy6J3H3nnkMrjpi7dAejTtbCWT4YiHIQhj+oeTACseFK5yjHAGA3xLRY5qmrSaiLQCwIpxShHvUArDCPf8hGv00Ee1BxBs1TetFxMf6+vrCER4Rokmea6gCsBQsBAFYCkQVgKVG1LABLFfFnCTY84OsyTEDRg7PuJvZqZqLhrMbiWiweuVCWL2iywMJZBfCXH8h15vImT5eW5LE3U4az5LkeWplE81bHzrJ5cvzwHJPlKgeha54B0RzEro7IMtr0gJYt0kS94a7wkiHRAFRIEgFBGAFqabYagIFjgLAT2cfEW9Jp9O/3rdv32Hei6YJ+i1drFIB7OnpGQSAlv5iV6VGZVcXgFW2ZL4qSAihL5nKLRQuD6x8dRyQNdfjs5EiOPzkDKST4bwnshfWqWu6obM96qgnAEsAVn1DCN3TmDcbaI+2QWe03dkxs/BMtmCiAKxy7wtSXhQQBZpQAQFYTThp0uUgFHiYiH6MiLe1t7ffs2fPnukgjIqNxlVAAJaCuRGApUBU8cBSIyrAmGEY7xweHg5HCOEcKtqeIYXHyOEUTIyE1zOZc2GdsLwLTl61ADSOK7T2fkMAsv/Oh/WaD0tA95X7Xl6ZTEJ4T46xjPZsN3cOMi8d2zk5qLxlCbNVPe+7XkCZ7uV8ljvp2bbsv7mOVE5mp8wYBWA1BsDiCYloEcsLK65H85ZObg6sH/6beGCpuomIXVFAFGgMBQRgNcY8SC/qogDn+BhAxDtM0/zh4ODggCR5r8s81KRRAVgKZBaApUBUAVhqRA0TwNLsHFhzHZ7IL6vozJQJRw/NAOfACvPR2RGDtSctgoVdcQFYksTdhnt1TOLuPRcZl7ZF49AZawfdm9A9U4gAEYZvFoAV5kuYjF0UCIUCArBCMc0yyLkVmASAe2dzAd46uwPrTYODg0+IYK2nAAMsJpSbWm9o9RuRACw12ksIoRJd2QPrHcPDw9cpsd4gRq0k7gyw3MMHjzIMgmOHUjA9GZ7E7aWmS9c0WL60E9asXgjskSUeWF6lJAcW+6rVchfC/HXKCd3ZC6s9woA1e7inOSIJwGqQa7F0QxQQBdQpIABLnbZiuekUeAYR/5eIburu7v5Rb2/vRNONQDpcUgEBWAoWhwAsBaKKB5YaUW0PrJAALHQAVm7oWilhJ0bSMHIkBSY/mcsBHe1ROHn1IliyqF0AVh4msZO2O4ckcXd2K1SfxN07DfFIDLpiHRApktAdEIdv/rddLZ3rc+vWrUsSicR+IloplytRQBQIpwICsMI57zLq4gogokFEjxPRPZqmfWPRokW7e3t75VfpFlgwvAshx4uKB1aAkykAK0AxPabEA0uJriEEWF4dC3Mu8afpJMGRp2YgORPOxO3FVhonzGYvLIZY8YguObA8xEoAVn09sHgqeH0ywOKk7laqtpxdCAVgKbl7iFFRQBRoKAUEYDXUdEhnGkQBIkog4iMAcBsAfH1gYOChBumadKNCBQRgVSjcXNUEYCkQVTyw1IgKMGaa5tuHhoauV9VAI9i1QwhdD6z8HnkTkNufHefE7aNpIPG+yhErHovAmtWLYPmSTgFYArCAfaxseFd/gMW94ITui9q6IKJHnNmxKRb+/+ydB3xcxbX/f2fu3VWv7t0YGYMAWWLBxpQgeq+JTQKhgyEQ0v4vCe/93/8pTvJCEpKQUAJ2KKaEJpptgoNposWAvVZxAYMhBkwxuMmSJa1275z/jrSyJGODypa7u+cmfCxp586c+c7s7r2/ewpo5aPigeWGj2KxQQgIgRgSEAErhnCl62QnYC4IWgC8xcx3hEKh6tWrV29J9kmlq/1GwKolovJ0BRCLeYuAFQuqgHhgxYRr+ghYFn1NEvdOISuwQ2PL5+0Itov31e523NBikwurAJkej1Qh7AAkObDcImCZ1TDJ3M1/Ji9W5+p01MoUASsmXx/SqRAQAm4iIAKWm1ZDbHEpAXNx3wbgVSL6fVNT06vr1q0LuNRWMWsPBETAisHWEAErBlDFAys2UNPJA8sIWF3HHtJaGW8Sk7i9pSkU8SyJFfbk7dckcZ84thjDi3M6c2FF6hLuVAt6/LXzb7u0Ma938O+di6zLV2bXSpE7l6rrnJ5VAHvlnqLuU3v8vdNBqPMPPatMRqSnXqFm3WP1bm9+i2R06mjfe/uIgOUmAYtIoSgzD17bCKyRg2jlo9cskBxYyfuxI5YLASHQBwIiYPUBkjQRAt0EWpj5fiK6vq6u7oNdkg8IJxcTMALWCiKqcLGNSWeaCFixWTLxwIoJV+OBdW1DQ8O9MendJZ12hBD2FLC67NpFyNrR6KBxcxChoCRu/6qlKy7IxvjRhcjO9HY06xKyOpWdblmrUzUSAat7u0X2Ve9/egtskcbcM7FWL9Gs85euHdohrHX8X3cnT+dOUa37tY5gv53hfuY1vfO8Hm0BaO7sp8uzbNfzzDgdr5oxXBZC2MU5w85AfmYOrIgXlkniLgKWSz6MxQwhIARiRkAErJihlY5Tm8DHAP5gWdb9kyZN2lpdXe2k9nSTf3YiYMVgDUXAigFU8cCKDdROD6z0FbB6CFlGtNr6eRCtzfK99XWbTSnCxNFFGD4kD+ZnEbB6EJMqhAmpQthzz5r9aHJhZXgyOv38RMD6ure0vC4EhEAKEBABKwUWUaaQMALM/EY4neavMzIylr755ptbzTO9hBkjA38lASNg+YnoIOEUPQIiYEWPZc+exAMrJlxFwIpEmDVtCWH7lhC0I95Xfdlp+bmZmDimGLnZXhGweoUydjlURcIQe4UzigdWl2fYTi+vDi+u6L/nTEL3oqx8WEqJgNWXN7S0EQJCIOkJiICV9EsoE0g8AfMU+xEAt2RlZb29dOlSI2RF/yIl8fNMagtEwIrB8jHzw0qpn9fW1pp4WjmiRGDq1KmXENGNAAqi1KV0A2wnomtra2vTM4QwsgMCrRrbvggi0CIPW/r6piAijBtViJFD8+CxrM7TWfR7agAAIABJREFUJISwM5yvR7Kt3pGAImDFS8Ay2zE3Iwc5GVmdVQglB1Zf39rSTggIgSQlIAJWki6cmO1GAp8DuFMp9ZjH43n3jTfe2O5GI9PVJhGwYrPydxBRVW1t7Sex6T49ey0vLz+Pmf9IRCPTk0BMZt0YEbDui0nvLun0/CdOOJnhPL07cxyHsX1zCM3bHLCWhyz9WbLsLC/2HjcEeTkmVItEwIqIeCJgdebf6kqg/+U8Wj3yccXIA8sshalEWJSdD49t1z569cKU9jSfMWNGcVtb22pmlu/H/nyISVshkEIE0kHAqqioOIqZHwdQnEJLJ1NxJ4EQgJUA7mXmZxsbG99bv369qWAoR4IJGAFrORH5EmxHqg3/v16v98Y333xzc6pNLJHzKS8vPzVcJf0GAPsl0o4UGzs9BKzHjj+clX5117UzQkPbDqfD+yoYEPFqIHt7zIgCjB1RCNtSImCJgNU7+XsHjy8nkO8laMVQwDLDZ5qE7tm5Lz1+zaLKgezvZDlHBKxkWSmxUwjEjkA6CFhlZWXTlVL/ADAkdiSlZyHQi4CJVnnJCKda65emTJnyoSR6T+wOEQEr+vyNWntFc3Pzg+vWrQtEv/v07fHAAw/0WZZ1PYDj05dC1GeeFgLWt584aaJC8P2OEnk9DpO4vXFTEC3bnUjYV9T5pnyHGR4bkycOQ35OZgSuVCEUDyx3eGCZN58Jdc3JyH7knz9+9txUfjOWl5cXEtFb4oGVyqsscxMCX0tgfl1d3SVf2yqJGxx00EElWuvXAAxP4mmI6clHwDzlNpFVSwAstCzrVb/fbxxV5Ol3AtZSBKzoQ3+fiC6tra19WTZ1dOH6fL6hjuP8goiuYuZI0p3ojpGGvTUy8/fr6+vvT+W5z17u8+z4sOBD7hF+yhrYsd3pELCckHz/DGb9hxXnYtLYIbBNwuydKd0jWiF3/ruzUqH5KZIra+eYJm9UpNWulwI7V6brnJ1td/mEZeo+tVfi9EiW/q7muyZV37WtsSOSuKorlZX5NxIQ15njqhesrnC4yB8lB1bCqxDuupeVZf/25Z+9/J+D2eNuP7ekpCQjNzfXiPSj3W6r2CcEhEBsCBDRzbW1tT+ITe/u6LWsrCxHKVUHoMQdFokVaUYgCOAdInpGa/1EUVHR8pqaGgkrjPMmoHBY1jIAB8d53FQe7p7w5H5RV1e3PpUnmaC5qalTp15MRHMAjE2QDak2bFoIWGbRzn/iuAcY/J2uBTQhg1s/D3aEEMoxOAKWpbDPhGEozs8WAUsELNcJWB7KOOnF6158ZnC73PVnm+s5k6ujdFdPU9dbLgYKASEQFQLMfF19ff3votKZizupqKh4jJnPMqkOXWymmJbaBHYAqAfwtFLq4RUrVpgHSFIJKk5rTmVlZcuUUiJgRQE4M28E8NNgMPjwmjVr2qPQpXSxC4Hy8vLJAH4P4Ey5SI/K9kgbAes7T55wOrGzwOwb7QDN20Jo3BySxO1R2UZAQV4W9ttrBCyldoYSdnQtHlg7Cff04upA0/VKT4+vyN+4d/nCHl5fnS5gXed29Nnxf90tHJm8Ux1/63rty3modM/Xutqaqy/u7Kfj7Mjfe//eeX1m7OuZy8rUP9AdDXuc19mwV7t4ViE0w4c9oj/Mbc0/cPGcxSlfQai8vLwawDlyUxelDzXpRggkH4HT6urqTH6olD6mTp16abig0+0APCk9UZlcMhDYRER1WuvqoqKiB2pqapqTwehkt1EErOitoLmqvzd8vTxHvK+iB3XXnnw+nycUCn0XwH8T0aTYjZQ2PaeNgHXeU6cWUaB1MSuaHmhjbP6kHaF2eVgSrZ1ucg2VjBuK4cV5ImB1xR52RyN2ij5dslNEfRIBq0vcil0Ir03q/9Vc9+qvo7XP3dxPeXn5DyOFTuSmzs0LJbYJgdgQ2GFZ1kS/378pNt27p9eysrLhSqk3AEx0j1ViSRoTMBcxHwPwE9HcM84445k5c+bIDUYMN4TJgfUmER0SwzHSpetlzPzfRUVFL9TU1JhE7nLEiMD+++9fbNv2L4noIgC5MRomXbpNGwGriqvUuseXnuNo5++Nm0Lepm0mjF2OaBLIzPCifJ/RnRUJu/LliwfWTsQiYO3GqyuGVQiJ1FuWso+p+VnNZ9Hc527t64ADDtjbtm0T0pDjVhvFLiEgBGJDgIgW1NbWnp0m+XdNyPR/RCIyYgNUehUC/Sdg7v83AHguFAr9adWqVW/1vws5oy8ERMDqC6WvaUNE7zHzr6XyYBRg9q0LqqioGM/MfwZwCgBv306TVrsh0Ajgmrq6ur+nA52zHz92CDc6f9zyefAibWKe5Ig6gfGjijF+RKEIWBFvq96RgL1dr8QDK3YeWEQUVGyfW9lWuSCNnoRa5eXl9wHYmesv6m9w6VAICAE3EuBwZb7jGxoannejcbGwacqUKXmZmZlLiOjQWPQvfQqBgRII56JrI6IPANzn9Xpvf/PNN021QjmiSMAIWG8Q0bQo9pluXf07LKD8Ztu2bfevX79eqhDEb/Xp0EMPndDa2nozEZ0gItaAwaeVgAUGnXBL5ZRAW/AhJ8RTB0xNTtwjAdu2UT5lNDI9kSgm8cDayUo8sOLkgUXEiuk/VZt9a82c9MpHUVpaur/X610h34nyIS0E0ocAES3OzMz85tKlS1vTZ9ZARUXFVGZ+DsDQdJq3zDUpCJhnlG3M3KCUuqGkpGRRdXW15MeO0tKJgDVwkCa2tcFxnP9auXLlP9PEZXfgtGJ05vTp0/MDgcBvAFwKICtGw6Ryt+klYIXfqFVVVaomr8bHOnSXdviAVF7cRMyNCBhRnIeSccM7hxcBSwSsSGL33SaGj3YIIZFWTNerTPsPNT+u2ZaI90Cix5w6darJEfmrRNsh4wsBIRAXAltt2/7G8uXLV6fhvYipTn4cgMeISFKKxGW7ySADINDKzE8z828aGhpq0/B9OgBkX32KCFj9R+oA2MzM1Y7j/G7VqlUf9b8LOSPaBKZOnXoaAHPBvi8RZUiFwj4TNgLW1XV1dQ/0+YzUaEjH/vnIA0NBXO+EnGNAyDDeWakxtcTPwmNbKN17JPKyMkXA6hGpKh5YMfXAcohoMyn6jVe3zn/uOr/5bEvLY8aMGVmtra0PATg1/L1opSUEmbQQSA8CO0waiObm5ofWrVsXSI8p955lZWWlvXXr1mOJ6GYAewGw05GDzDkpCHzKzHdored7vd6P/H6/JOMd4LIZAev1sOvp9AGen06nGY+rLeGcS28a4WrlypWviILqruU3F+07duz4vlLqSgCjwskds91loSutSVcBq2Mxjv3z9BGOti9xgriEmceBxYsvGrvUVCQcUpCNfcaPgCKT0N2kdO/SBwnUIer00AvZ+OZE/rZLarLuPFHdr/f+W8Ripq4af12ddbzQWRCw84wexQEjv+8cuPv13bQ35/UUn3qb2CnK7DxMl1KFsINXF/uOnyNMzL+9fh+sBxaRQ0CTIrxuKeuGkvx9X5l35by0vyisqKgYzcx3E9E3mDkzGu9r6UMICAHXEGAi2kJEv/d4PLe/8cYb211jWQIMmTlzpvXuu+8eaIppEdExAPJFvE/AQsiQfSXQAOBGZn62qKhooxR/6yu27nYiYPWN2VYA72qtbw2FQg+tWbNGYlj7xi0RrWj69OklgUDgRwBOBjAagPHIkmP3BNJawOpAUgV1dPERFdyO7zmaj2PNRvyUwgCDfMd4PRYmjR2GofmdXv0iYPUWwXYKarsKZhHu3Dv7e7c4Z37qobt1yEQd/9cdIlGnONTt6dT5Wley9M5RTTu987webQFo7uxnt+F+kXE6Te7dp6mJoDtO7OFlFZlbTAQso1cymgm0Ril6IENlP7Tkp0s+H+S2TaXTO4qdAPglM58EYJh4JqfS8spc0piA8bT6kIhuVEo94Penr7fprnsgUqX8W0R0IYD9I0JW51M0OYSAuwiYB21Pa61vB7CioaHhC3GM6fsCGQFrqVRw2COwZiNcEdETSqk7/H7/p31HKy0TSaCkpCQjNzfXPHm+PLK/jZAlbsVfXpRGIvpebW3tg4lcLzeMffpcX3ZzS+ZJoSAuhMZ0ZjZJnOTCZ4CLY7ywCnONF9ZwmJBCEbBEwIpWDiwiMjdw6wD1jA1914vXvWZyv8ixGwL77rvvkKysrPOZ+bsApkRu6ISVEBACyUdAE9HnzLxUaz0vJyfnpXRL2t7HJaPy8vIS85mnlDqNmfcBIPmx+ghPmsWdwDZmvo+IHrIsa7UI0n3jLwLW7jkZD6v3TGULy7Luyc/Prxf3vr5tKLe18vl8Q0Oh0OlE9C0AB8tT6C+tkAhYuyA58cYjR7U6PItD+gwwTWOwXPgM8I3t9dgYP7wII4cWiIC1SxiiQdodCtkjxDHCWjywvrzpjJOXIvoQRK/Ylufvk/MmvyDhgl//5iwtLfVmZGSURUSs45l5EhFJWOHXo5MWQsANBMwXhAkRrGPmhbZtP+r3+z90g2FutsF87nm93kMAfIeZTY6sSeJd7+YVS3vb3gNwl1Lqmfz8/NU1NTVtaU/kKwCIgNUbjslz9REzv0xEj7e2tj6/du3aJtlAyU3AxMa/8847ewM4Wyl1KjOXA8hL7llFzXoRsPaA8tg/H1kWCulztYMTmbkCLN5Y/d11xgurIDcLJWOGISujKypTcmB1KVciYHWFIe6S+Gw3G42ItoL5ZcuynrSyvYue//7zm/u7H9O9fXl5eSGAo8IVlM9h5qOJyHgmS5L3dN8YMn83EzDepm8x8z+VUo8VFBTUyQP1/i2Xz+crCAaDxymlzgZQGcmRK971/cMoreNDwOgQrxpvLCKq2Xvvvd+prq42xePk2IWAcbP8F4AZ6U7GVC8C8C9mXqS1XtzQ0PCxxKKm1q6orKzM3LZt20EAzgwn4z8FgHErTvdcR0bAuqq2ttZUrJJjFwKVVZU2FwWP5gDOYfDxrGGEUDn6QcCED44ZVoQxwwqhyCRuFwFLBKweSd2/Jok7gUJQ9BoBi5THXlDzk5p1/dh+0vTLBMjn841zHOfEcN6NMwAcGU4mWyCghIAQcBUBcyO7IVxkazGABS0tLa/KA/XBrc8BBxwwzrIskxv3NCI6WsIKB8dTzo4ZAfNEz+Qnfta895m5pr6+3mgScvQgQGVlZf8Ku6uls4DVGhY0agE8aVnWP1tbW9dKkvbUfo+YJI8ej8fseXPxflrkaUyPkmipPf9dZicCVh+W+8Q/zSgOOHQCa5ypAfNvcR9OkyYRAvk5WZg0eijysk3UkghYImD1TcAiotUKaoFtqaee/+lLr8tDpeh9pJjS89u3by/VWp9ERGczswmxlzyR0UMsPQmBgRLYYYSrcLTAk0T0Ym1t7ScD7UjO+xIBVVZWVmpZlvGsPwfAoZLrVHaJSwkYz6uPiOgZI2R5vd7X0r3aaM91SmcBy2yMfwN4xFQBaG1tbZCnGy59C8fGrI6n0Frrw5l5ZsQjKx2rFYqA1cf9NfORmdYXGzbspR11LJhnao0jwWnvwdcneralMGpoIcYNL4KlLFBHxFgPzXhnVT3qkRiqs+vuMLvIOT0q8PUozQewKUsXOXpEpHUW1OuRY6rXaz0720NOqkiTjmp/EYN6B7x1iTHdY3dV8esxdOTU7j56z01yYPW6MAF9SkQLLdCizNbcVxbPWZzWJeL79CYbYKOysrIcIqqIJDv+TjgHh6lcKIcQEALxJ2C8rv5FRA8opV70+/3vmMKw8Tcj9UeMFHo6mIhOitwDmAIXcggB1xFg5jYiejsiZD0aCAQaxNEGMDmwXiOiw1y3YrE1qJGZHzXilVKqtra21pSulCMNCZin0E1NTaZayZFa68sATE8zDI1KqStXrFjxcJrNe8DTrby7MpM2h/Znxkla43zNel9wTzVmwF2n9InG+2riyCEozMsRAau3jtVbYIvsgrRM4k5oVUTPMvODFnlfHbbXsE+rZ0n+h3h8MFRUVAzTWh8UvlD+NgDzUCcnHuPKGEJACHQQWMfM95ib1Obm5oZ169aZ3FdyxJjAEUccUdTS0jJNa228sUyOrGExHlK6FwIDJbANwCrjjeXxeB5etmzZhnT2Sk83AcvcNjynlLqtvb19+apVq0xMqTzdGOhbKYXOM/mxGhsbzROYM5jZCFkTUmh6XzUVEbAGstAMOuK3RxTaNqYyMNNx9DfBGDGQrtLlHJP/atTQAowbXgyvZSKVxANLkrjvTOJuqgs2KEV3WBae9XryPlj8g8VyAxf/D4cOz+RQKGTCamYDMIneJdlx/NdBRkwfAuam1ESCPGiqDNbV1Znf5YgjAVPoae3ataMsy5rOzBcDOBZAVhxNkKGEQF8JGM3CON2sMIJ3OPT/qYaGhh19PTmV2hkBy2S7PzyVJrW7uTCzcb/7oxGwLMv62O/3B1N9zjK//hMw1Uq01qXmS4yZvxPeM6lerVAErP5vk51nmLDCjz/4eEiGokO1Q9/TWh/FLBc+e0KaneHFXqOGYUi+ce4QAUsErA4CnyoL94Lth7zkfXfJT5ek5cXYID6Gon6qKT/v8XgmMvNJSqlrIgVPoj6OdCgE0piAuQd5EcBtHo/n9YkTJ34h1cYSuxvM5152dvbYYDB4AhEZAX+q5MdK7JrI6HskEAKwkZlfcRznj6tWrfKnmzdWOghYW4loLhHdmZ+fv6GmpqZN3hBC4KsIVFVVqcWLFxe1t7ebcMIfm2olzJyqpcZFwIrC22H2XJ/nvdbC4mAoeCa0/g/taFOtUDwXdmFLRBhRnI8Jw4cgw+PpflVyYHWw6JlbK/VDCLmFLPzTtjL+7LWb66dtfqN5zhzxiI7Cx1G0ujDeWFla68nhRLKXMfP5gBSviBZc6Sd9CRDRW0R0q/GeCAQCn0o+G1ftBZoxY0Zme3v7BK31+cx8KYDRrrJQjBEC3QSMp/pmInpIKXW93+/flC5wUlnAMk83FjiO89vc3Nw1S5cuNcJV79y76bLKMs8BETBuxW+99dZQj8dzDjP/KEWfQouANaDdsfuTfHN9nuGBvBFtgdCPQw5fxczZUew+Jbry2DZKxgzH0IJcU4+wc04iYKWNgAWGhsI7itT/y25uevogPq1tzpw5Esrv3nd3h5AVDAYPJaKfRcrPe91rrlgmBFxLYDMz/11rfZvX633P7/cbLwq5L3HnclFJSYk3Ly/vQGb+eaTQk1zPuXOtxCqg3XizM/P1++yzz93V1dXm95Q+jID1ChEdkUKzZCJaobX+3+zs7H8uXbq0NYXmJlNJEIGKiooJERHrAgBDEmRGLIY1AtbsFStWmBwMckSRwOm3HL1/UyD4l1BQHyNJ3nuDHVaYh71GDkOmN+KFJQJWWghYRGglW13vFPINNZeIN3QUP27i0lVpaWluRkbGucz8MwDGM6tHHHBcTJBBhEAyEmhn5lfDXrW/aGhoeFVEq+RaQhOVsXDhwtPCkRi/ArA/gFSNyEiuhRFrd0fACYutbxLRf9bW1r6cyp81qSJgmScY5knGhwDuDIVCd61atWqj7G0hEE0C5kvsqaeeOiwUCl0XEX1NfqxkDxMTASuam2Q3fR1745Hfam/Xv2bNpjBAZoyHS4rulVLYZ+xIDDNeWETigcWdD+FTM4QQmkm3KKinszI81y26dsm/k2KTipF7JLDffvtN8Hg8P1JKzQIwHICpyiCHEBACPQgQkYn8WO84zh+2b9/+9/Xr10sKkyTeIWVlZTlEdCUR/R8AQwGIJ2oSr2eKm749nM/5ESL6844dO9atW7fOeGSllLenEbBeJqIjk3ghg0T0GTM/Q0S31NbWNqTaIiXx2qSk6aZi4bZt284F8P1w5RhTuTCZE72LgBWHXVp5Y2Wh0qEfhUJ8kWYeAUn0jqK8HOw9ejhMYncJIUxJAYuZ0KiABo/N1x+y5aglEioYhw+b+A1B5eXlhxHRz5nZVC00nsnJ/kAnfvRkpFQm0E5EG7XWD3i93j8vW7bss1SebLrNbcaMGWNaW1v/h5nPICLzudcjoWe60ZD5upiAubD8NxH91XGch4uLiz+rqakxzj4pcSSzgKWZ+XMAy4no9vb29mclEWJK7MmkmYTP5xultf4eM38LwMQkLbsrAlacdlxlVaVt5wcODDr0fc10PGsekc5P8IznlcmFNaKwAIoo8mio0xur59Fdqc/8tae31q4uS1199P57x/k9PZx69M/dylnHkLutChgJb+xoG2nU20Tu6r779c5BO5vvOl6PgVK1CiFA20H6fSK6x8lWdz935XONcXqbyTBxJjBx4sTM/Pz8c8MPEq8iIvNApyjOJshwQsAtBLoqg5nq7r+tq6urc4thYkfUCaiKioojmfnHAA4JV5M013MSWhh1zNLhYAkYT1Ct9YLwPervioqKVqaKiJWsApa5GK43Wffb29sfXr169ZbBLrCcLwQGSqC8vLycma+NhBXulWRPY7ZZljXb7/dXD3T+cl7/CJzxu8PzmizreEc7F7LGdGY2IThp6bmQm5WJKeNGIicjQwSsVAghBJuck+uh+J8eVn/LHlP0TvWsapOTQY4UJ+Dz+YY6jnMNgLMi+bFyUnzKMj0h0EXAPIv4nIjqHMeZ7/F4HvP7/aaQlBwpTmD69On5gUDgbCK6gJnLIqGFkhswxdc9CadnxPUHlFK/WrFixboktP9LJieVgMXMASJaCWCJZVl3+f3+91JhEWQOyU+gsrLS3rp160kALiAiE04xLkkS3IqAlaDtd8yfZozR2vqWo/ksaK5gRkGCTEnosBNHDsXYIUUgZTQ88cDaeUfU23Wrh2Nap0tYl/dWlxeZKe5nTjG/h5MF7/y5s23kfxHPMNNORzrpbN/ZxhyaO/vp+MvO/nr+3lkwsGOMSBuAQwzewMBLIHpQB9WrS366ZEdCN5YMnggCdOCBBx5kWdYlAI4BUJJkD3QSwUzGTG4CjQysVERPKqUe8Pv9JlwwpXLNJPfyxMV6VVZWNkEp9W0Ap0cSvefHZWQZRAj0nUCjqaiZnZ19byoUuKOysrKXlFLf6Pv8E9LSXDGvBfAiMz9YX1//mnxBJGQdZNCvJkAHHHDAcMuyziKiMyNuxSbRo5uPbQBm19XViQdWAlZp5iMzra2fbSwLBpyZzHwia+zPjIwEmJKwITM9HpROHI2cTJPfXgSsJBOwzI3aFiZ+FURP2lovXvij56WASsLeTe4Y2FQr9Hg8x4cfOH4TgMmxmiwPdNwBUKxwPQETlsPMbzPRM+w4j4RCoVWSxsT1yxZTA08++eSMjRs3VmitzefeCcy8TziUVAr3xJS6dN4fAkT0sFLq/6aCA1AyCFgbANQQ0YKWlpZn1q5d29SfxZK2QiDeBHw+nycUCpkvLiNinQpgKgC3hlNsI6IramtrH403Jxmvm8AJN5yQE6TWIzQ7Z2pNp7Bmc8OXNmGFo4YUYtKo4VCkJAdWZFsYD6edRw+Pqy73q4R7YIHbGLycgEWsedE/fvTc2+iRhkze32lPwHgljCaiU4noDAZmkOTHSvtNkQIATEj0h0S0BMACr9f72htvvLE9BeYlU4gSgfLy8kJmPiJyD3A8gLGSHytKcKWbwRJYpbW+oqGh4fXBdpTo842AVaOUOirRhuxmfPOF8LL5gvB4PM8sW7bsYxPd4EI7xSQhsFsC5im0bdsVRHQaERm34skuLDcuApaL9u8pt1aObG4LHkWaz9IOnc7MbhU+o0rNtiyUThiDgpxsEbDcL2AZ7ewdBj+uFP8jyPbyxT9YHIjqhpDOUoZASUlJRkZe3r42cDIxn8XMU8UrIWWWN90mspWZXyCiJ5i5pr6+/hOJBkm3LdDn+dIhhxwy1nGco7TWZxiPLCA900T0mZg0jAcBo6V8t66uriYeg8VyDDcKWO3MXEtEj4ZCoSVtbW1r161bJxfHsdwF0ncsCZj32DAimhZ5GmOELJO02y1JHkXAiuXqD7DvY285Yp9gm6oEO+ezxpGs2S37ZYAz+vrTivNysd+EMVC7vDWkCmHnLVK3P1ZCc2A1EfEDzPxkhoM3q3/yjBRQ+fqtLS0A+Hy+Aq21KXhyGgATYjMhnbxMZRMkNYF2U/HcpDCxLOt5IlonSdqTej3jZrzJj7t9+/bJWuujAcwyxZ6YWaoVxm0FZKBdCKxj5kvq6+tfTXYybhKwzPX5B8z8MBEtzMjIWCVuucm+vcT+LgIzZ8601q1bN5aZDwdwPgDzZZblAkJGwLq8trb2MRfYIib0IDB77mzPu01ryjToRO04F7Pu8OBL2cOED04ZNwpD8/N6zVEErMQLWAAcVvqfcGi+Bbz++A8Wm9B+OYRAfwlQaWnpCI/Hc7BSalb4YaUJs5dkx/2lKO3jRYCZeQMR3RXOafoPrfWahoYGKU4RL/opNM6MGTOyduzYsZ9S6sTwnrqciCal0PRkKslDYAkz/6S+vn518pi8e0tNFcIXiagywRNpNKKV1vp+Zq5raGjYJOGCCV4RGT4mBEw4RU5OzgTLsk7QWl8NYN8Ee2OJgBWTlY5ep8fNPa6gvallKjHO1Zq+w5qLote7u3rKzcxC2aSxsFT3A0oRsBIrYIG4QTPN1d7gC5lFBe9Wz6o2OWDkEAIDJmC8EhobG8eYPDFa62uUUtPFG2vAOOXEGBCIJGm/Xyl1b0tLy5q33357cwyGkS7TjIDxRG1vby+1bfs8Zv4ugMI0QyDTTRyBEDPPsW37Zr/f35g4M6IzcqIFLAPzDQA32bb9Sl5e3hc1NTWh6ExNehEC7iVg8mNlZGSMdxznfKXU9xP4FFoELPduk52WGQ++xmkfD2lXaho7uEYzH8uaPUlger9MVESYMHI4xg7p1uhEwEqYgPUZEc2Hch5panbeWfLTJS2S76Vf21kafw2BiRMnZubm5o6xbduE1v8MwCiBJgQSTICJ6EWl1J8CgcDyVatWfSEP1BO8Iqk3fFdqkXIiMg+RqaRqAAAgAElEQVSyTwGQctdzqbdsyT0jk7ePma9raGhYlgqfaYkUsD4H8BvLsh5pbW3dLOVnk/uNIdYPjMCUKVPycnNzJ4dCoZ9FSo7bA+tpwGdtU0pdtmLFiscH3IOcGDcCvrk+z5DmnJEhck4NObhWh7g0boPHaaCsjAwcuNc4ZNidbwURsOIuYAWI+B9a819aNddN2zytec6cOVJAJU77Px2H8fl82QDGh0KhHyqlLmZmKT2fjhshwXNm5veVUjdorRcVFRVtlAfqCV6QFB8+4olqcuIeC+BHzHxQik9Zppc4AvXhK8mq9vb2xamitxgBy1TUMPl44nWYJO3zlFLXBwKBTakCMl7wZJyUJEAlJSV52dnZR1mW9T/MfHAcZykCVhxhR2ko8s312YXBrL1CbXyVdnABax4apb4T3o1ShNHFRdhrpLmuEwGrC0Lsk7hrBqGBLfotccbi0k9Km0S4SvjbIZ0MMF4J2ZZlme8/8z1orktTvnhFOi2wi+dqwmnmB4PBWzIzMz+QBO0uXqkUNM0IWdu2bRsL4GIAs8UTNQUXOUFTMqHQAJ4FcH1BQcGyVBLl4ylgmWSIL2itf75y5coVEoqQoN0sw7qawIEHHlhknkAD+AkRmS+0WB8iYMWacIz7P+rGw2bAoTk6hG8wc0aMh4tL95leD/YbPxa5mRnigRVR8WIpYAHYCEvPVUR/ffCKhRvjssgyiBDYAwHjmZyZmTkzfPF9HZDaxStkEySUgElZ8kI4/9ovCwsL30ilm7uEUpXBB0ygrKzsAKWU+dwzBS5yB9yRnJjuBDQRrdVa/6aoqOjRmpoaI2Sl1EFTKyqeJ+ZjYjQrc81tPK7eAXCDbduP+f1+k0dDDiEgBPZMgHw+3xTHcX4M4GwAJiFQrEILRcBKgZ04e67P805bznk64FzHDu/FQFILWSYX1rCCAkweMwKgiBNGh4JDHS5ZvcMKIwvItNu/d7TlzjM6f+5ecO7VWc9+e7c3v3W0jZzfo4vOV3r+wdjXY6Cer/Xso5cpPe3rmk7vE3uY3Qmga8iuOTB0x7jmd+ZOm7pf6/jrTrvMaxpsTmjUhOcJzq8fvuop42IuhxBwDYHy8vKJzHwtEX0bgHHJjNX3oGvmLIbEnEDHfQmAtZZl3QygOhUSGsecmgwQNwI+n88TCoVOVEr9LBJWaEKsxRs1biuQ1AMFiegzAHcAuK22ttbk8EvJI2YCVjhRWBsRmfKzD9m2PW/ZsmWm7Hbv6/6URCqTEgLRIVBaWur1er1HAfgBgBmRaiXd5dmiM4wRsC5dsWLFE9HpTnpJJIETbjtsePsO9WMnyOczeEQ4z6A3kfYMZmzjhbX3qBEoyos8hBQBq0vaioKAxdu1wtuK9O/+fvmCJ4hIvpsHs1nl3JgRMDdzWuvDzPcgMx8ZLvpTDCDa34Mxs186dhUBI1x9BOAJrfVfGxoa/u0q68QYIdCDQHl5ualQeBGAywFMAmCELDmEwO4IBAEYseofWus/NjQ0rE11TLEQsMwXhFH/TLjg7cXFxX5xy031bSTziyWBfffdd0hGRoYJpzAldw+IVCyM1tMYEbBiuXgJ6vvEm46e2trW/p/MOCycc3A0OPlu+IgIQ/PzsPfoEbAtK/L4QzywutSrAXlgAc1g/SFI399k4ZaFly1sStAWlWGFQL8ITJ8+PT8QCJwTyRMzNfI9qPrViTROVwIOEX3CzEsdx7n1nHPOeVXy+6XrVki+eR988MGTgsHgD4noZAATkvnBZPLRd73FJgzapH1YTkQ31tbWvuR6i6NkoMmB9U8iOjEK/TnM/EX4DfYGEd2fnZ39zGuvvSYXx1EAK10IAUOgvLx8MoBLmPkkAPsRUTQqNW0NV965sL6+/imhnFoEqqqq1MtDXjwr1KavgObyDo8sk6Y7iY5Mjwfjhw/DsML8iOEiYA1IwCJuZ/B7DDxHKnTr/ZctTPmnc0m0zcXUfhAoKyvbSyllvBJODYd/7Q8gqx+nS9P0I7ApnE+oFsA9WusnGxoadqQfAplxChAw9+uHA/g+EU0jovHMLJ6oKbCwA5yCqQxthKs6IrovEAg8lm5F8SicY2B+xEVxgAw7wgK3E5E/HKu7UGv9WENDgwkXlEMICIEoE5g5c6b19ttvH25Z1gVhL8dvRBLcDkaU2Azg5Lq6umVRNlW6cwMBBp1w+2HDgi3qu06Iz2LGgcxs3NKT4jBeWMV5uR0VCY2YJTmwzLL1PQdWuJqbZtIfMvO/tNL35ISGvzjvynnG1VwOIZC0BIw4v3DhwulaayNkVRLRPpIjJmmXM1aGG6GqwdyXALivvr7+41gNJP0KgXgRmDFjRlZra+vZJi9gpGL5qHiNLeO4hsAmIqrXWi9wHOeRVatWfZ6OKZpM2eLLlFIm2ddADuO6VktEz2itH6+vrzdJYI0qKIcQEAIxJODz+bJDodBp4Qu0c4jICFkD+RIz4vNqAEfW1dVti6G50nWCCXQkeW/J2J9DNIsdPolB+zFzNDz4Yj4zr8fG2KFDMKqoCEbQkiTufRSwgC8Y/CaTfoJsfvLei54wYrUcQiBlCJibuba2tlO01ibE3uTHGp0yk5OJDJSAuS9ZzczPKaUeqq2tXT7QjuQ8IeBSAubefQwRzQyHjp1GRD4ABS61VcyKEgFmbiKilUT0TwCPFRQUvJPOKZqotLR0fEZGxgvMvHd/GBPRe1rrp5l5QUtLy6vr1q0L9Od8aSsEhMDgCZSWlo60bfscpZQRs4x7cX4/eg2FXZB/VV9f/8t+nCNNk5jAyTdNz29r985wtDbeWCeyZpNPwfV5ZIpyczFxxHDkZGaIgPU1HlgavIPBtaz4KQ45Cz8q2fpuzdE15qZODiGQkgQi34NnK6VOH8D3YEoySdNJfWCEq3DGhSdt235Bqp6n6S5Ik2mbQk8ej8eEURuPrJOZ+YAopRZJE4JJM02jr6xl5sUAnrJte4V8tgFkQpLee++9q7TWv+njze8mAzGs+C4KXyg8K54bSfMGEENTlEBlZaXd2Ni4v+M4pxDRmUR0EAATb/WVR7ii0/O2bV/q9/s//Lq28npqETj+5sNHh4JWpXb02drhY5m5yM0z9FgWxhgvrOIiWKS6y9n2rJ3HtNu/dzThzoadP3fPlHu5c/V4aZf25pSOtpHze5fs467uu1/vMVCkq8ip3X30MqXneBHzuPeJPczevQeWhnYYvI6Jn2ByntIqp+6+C++TfC9u3thiW9QI9PweVEqdBaCiL9+DUTNAOkoYAWbeQkQmefFCIlpSW1trCklJNEjCVkQGjicBn89XoLU+RGt9OhGZ3IB7JcODyXgyStKxnEjV1KdNdcFgMPj66tWrtyTpXKJudkfunGnTpg0JBoNXM/P39hSKxMxtSinzBVHtOM4LDQ0N69Mx5jLqKyAdCoEoESgtLc31er0HAzjFPJEJ530wXpVfyo/FzNq4oDLznPr6+jejNLx0k2QEKqsqbV2oJyuNY5yQ820wDmHmDLdOoyA7GxNGDEd+VpYIWJ0a1k5RjMGbNeuFDvTjFuiNuy+tNuWU5RACaUdgypQpeZmZmeZ78FQiMkKWKT8/mDyRaccwWSZs7kuIaIW5LzHCVSAQWJduiYyTZa3EzpgToIqKilGO48xQShmPrJOYeUjMR5UBYkHAXN6ZtC5PE9GTWuul9fX1n4jm0ht115c6TZs2rTgYDB7PzN80OXEADDdf+pGYS/MF8SQRvdjU1PS2hAvGYr9Kn0IgKgRUWVnZ0EiVElNy99jI0xgvMzeb+GmT1DSc/PGphoaGVVEZUTpJagIn3HBCTpBa9tXgU7XGpax5vBurFVpKYcyQYowuLoZlRYrviAdWUEPXMPE9mum1CeunfCjl4ZP67SjGR4eAOuCAA4bZtj0DwCwApnKvq71MozPttOnFeFf9G8BDWutFgUBgzdq1a6Xqedosv0x0TwSMJ2pTU9OEUCj0DSK6EID5DHTtg0lZyV1EGSLjdfVcOK3TfZZlvT5p0qT11dXV5m9y7EKg11OpkpKSjKysLJMYzvxnboJtIjLuap+2tLR8tHbt2mZRAGUPCQH3E/D5fB6t9TCT1DYSHuYFsENrvcnj8Xzk9/sb3T8LsTCeBE7804ziVsa+xNZF2uGLWbPZM646cjIyMWnkCOTnZHfalcYClia9ThH/pV2r5/Katv375h8sljyUrtqtYkyiCZgcMbZtm+vZSqXUJcw8TW7mEr0qgx7fXLssMKXjw6GidX6/3xSn6B3VPeghpAMhkNwEIgUuTCihyY11JYAS8UR195oys3EquJmZX2ppaVkvzkJfvV57cqumyspKq6mpifx+v0n+Kl8O7t73Yp0Q+CoC5n1u/utM5SOHENgTAQYd+5fpw512T4Um/ql2+Bg37RhThdB4YBlPLI9tp6WAxeAdmvRtlqY77ZbQhr9eU20eLMkhBITAHghEqvaOjSQ7vgqAKV4hYYXJtWPMvcgyZv6zbduv5OXlfZHOFbiSa+nE2kQRmD59en5LS8sEy7KMN5b57MtNlC0y7h4JfBpO3zTXsqyHAXwoCdr7tlPkC7xvnKSVEBACQiBtCJj8WKogMAJsnxIK6Z9pzebpnSsOr8eDyaNGoTA3J80ErHDWOuJFrPX1ql2/Ne/KavGidMWOFCOShIApPZ9t2/beWutrAZwPICtJbE93MzcR0fUmZDAQCGySPFfpvh1k/v0kQNOnT89ra2vbl4iuY2ZT7Mn11af7OcdkbG4ePj7IzLe1tbWtkzDo/i2hCFj94yWthYAQEAJpQ8A31+fJ2pE1zqP5+yGNy9jhfDdMfkRhIcYPHwavZXebk8JVCMO5KVeywm9sC88Mf2dyo+S5csMuFBuSlADNmDEjs7m5+RCl1O+JaHqSziMdzDZeV3drrX8ZCoU+F+EqHZZc5hhDAmr69Om5gUDgmHA0RlU4t3V5DMeSrvdMIEREJs/V79rb25evWbPGVIuW6Jh+7hgRsPoJTJoLASEgBNKNwMyZM63NMz7zOQ7P0Q4fx8w9lKP401CksN/YsSjIyYYJK+w4Uk3AAptjE6D/qtvptjuueHBj/EnLiEIgpQmoiooKkxvrVwBGSliha9aamehVaP0f9fX1y+TmzjXrIoakCIH999+/2OPxXB6udvcj+eyL26KyKaSllPpdXl7ewpqaGkn/MAj0ImANAp6cKgSEgBBIJwJn3Hl43o5GnBMM8g+ZUcqAN1EVC4tz8zBp5EhkeCJaWuoIWI6pGAqFZ3QGX/+3mQ/Ug+TpXDq9z2Su8SVwyCGHjAwGgz8noguYuQBAQgX6+M7eNaMZD4R2AO8D+FN7e/tDa9askRs81yyPGJKCBNTUqVP3A/ATIjoDQKF89kV9lc3nWtDktgIw37Ksu/x+v8l5JccgCYiANUiAcroQEAJCIN0InHTjoRPbtLrKCeEcMI1n5riXaTaeV5NHj8HQvNxOL6zkF7A0EzcxUK8dfeu27NCi6lnVrem2t2S+QiARBEzlXsdxDiGi/8PMRwEQISt+C2EqqJqbuke11n9taGhYL15X8YMvI6U3gZKSkoz8/PyjTW5AZj6UiMxnn5XeVKIyeyPIf0JEzyilbvX7/Suj0qt00kFABCzZCEJACAgBIdB/AqZi4a2HHRpqU9dqh48AY3Q4FCeuFz15WVmYMmYMMjye5BWwjHeV5lYGv83QjwY9fM9d33nok/4viJwhBITAYAmUl5cbL4SzAFwMoCwiZEnC48GC3f35xjPhcwAvA5jX3Ny8VErHxwa09CoEvo6ACSu0LOvbSilT4GL/sCekyXkqOsHXgfvy69oIV8z8ptb6tn333ffF6upqp//dyBlfRUA2puwPISAEhIAQGDCByqrKTBTqb+p2fREzlzPzsAF3NoAT9xoxAqOKikBQ3XF2PdJhdvzInX/o/Ll7EDa/7Np2N+1Nk462kfN7Z9vkru67X+8xUGToyKndfUS6cpjwLkPXwA7dPvfbD9cPAIGcEgcC1z59bUbrx62FyhPMVcrO0iHttcm2THRAiMlRWrVTlm5hJ9Q8IrNt25xZ1ebpqxzJSYB8Pt8kx3G+y8ynE9EUKT8f1YU0N3hbmXl5mO2DwWBw0erVq7dEdQTpTAgIgQERKCsrm6KUMtdzJwHYj4gyB9RRep60kYgamPkey7Ke8Pv9LemJIfazFgEr9oxlBCEgBIRAyhM442/Hjti+PXCx086ng2CErJx4TDrT48X+48fD/LtTWEoKAYs3aMLrrJx7t9ihp6tnyRO6eOyX/oxx9SNX5+q2wESHeZytrQmAnqwJ4xTRcDAXMNAZOktoA3g7oDbC0R+RUu8Q9HrH9mzI0y0f/OHC+0yVITmSjEBpaanX6/UeAuA8AMcCmATAk2TTcJu55oaujpkXW5b10IoVK9a5zUCxRwikOwFTuGft2rWHKaWMiH8UEe0j3lhfuSu2AqhXSi0kovv8fv+mdN9DsZ6/CFixJiz9CwEhIATSiMDxNx5W3h6i8xyN44lxQDwqFo4qGoJJI0YkiYDFWxn8OjMt2K70Iw+c/4C58JHDRQSuvvvikSBVppU6BMyHgWkqmMf0I5jCSKgbANQy8Loivcx2UH/zpXd/4aJpiil9JODz+QocxzkhfINyNoBKACMASFhhH/lFmhmvq7cBLDG5rgoLC9+oqakJ9a8LaS0EhEA8CcyYMSOrra3tVK31t4joCABj4jl+EoxlHk41ADB5rh5ZsWKF+Yzr7aSfBJNIRhNFwErGVRObhYAQEAIuJmDCCnW+PoZCztkMHKs17xVLc23Lxv5jxyMnK+Lp7koPLG7X4OWseJGGfnLedx5cK9UFY7kr+t/3xXdfXOgl63CL6ETNfAwBpkLToIQKIgoxeA2Yn9Xm5j1gvzHvynmN/bdOzkg0gYqKigkATtFan0FEJtF7VqJtSobxmfkzIvongAU5OTnPv/baa03JYLfYKASEQCeB0tLSkR6P50wiOg2AEbJMrsB0Pkz+vjVGkFdKLdq+ffubkr8vvttBBKz48pbRhIAQEALpQaAKqnJ45XDVGjo+pPlM1lzJjCGxmvzQvAJMHj06UpGwe5SE58ACMzPeYeoQrhYF2r1vzr9kflusOEi//Sdw7U0nZ4SKx1SwgzPBOBXgfWMQKhZg0GoGL7bZWTAsZ0e95Mnq/1q54Axr6tSpZUR0csQjyyehNXtclR1E9ILW+gml1DO1tbVSnMIFG1hMEAIDIRAJK9xPKXUKgDMAmPBq70D6SuJzjCfpBwCMIP+PsGfuv1auXLlNvK7iv6IiYMWfuYwoBISAEEgbAjOrSr1f5A2fxGg/Xjs0C4xDmLkzd1AUD0spTB49FsW5uV9OzJ6gJO4M/hzEizXwpAPn1XnfeXCzeF1FcdEH2VVVVZX6omTDJNZsPAVPBdNBAPIG2e3Xnd4IYj9ptShoBRbcccF962VPfB0y971uQmtaW1unhxORG4+EWUQ0zn1WJsYiInJMgnZmfsS27Wf9fv9qAObGTw4hIASSnEBZWVkOEVUQ0SlEdDYzm/xYg/JUThIkm4hoSXjuCxzHea2+vv5T+VxL3MqJgJU49jKyEBACQiBtCFTeWpnLrbwfnNDpGjgvXKVlL3B0L3oKcnIxZcxY2NR9LZUIDyzN3MKkX2Pw34Mh9fKYcZM+mnP0HMn34qLdfs09Fw5xtOcUIsxkYBoAUz0zXhfh5mZ+I0CvA/ohHbCfkbBCF22OvptCZWVlZt8cqpQ6N1KxMNYCaN+tS0zLfzPzw8Y7gZlrGxoapIBBYtZBRhUCsSSgKioqjEf9weEcUOcws/HIGh7LARPYtyk88RqAB5RSrxLRB36/34QQypFAAiJgJRC+DC0EhIAQSDMCdOwtxxZza3CqQ6HztUPnsOao5VKwlIUJw0ZgZGF3l3EVsBhag9+FwrygDj6dY4c+uHFWdWuarbGrp3vtTddmtOe3TCfC5QR8gxmjYxAu2FcG7QR8rIlq2FFzEcSKeVfOkwvjvtJzSbvKykp7y5Yt45RS3wBwaTgvymEAbJeYFy8zTF63RUqp+4nI7/f7t4h3QrzQyzhCIDEEIp99I4no8HBo3SVEdCSA7MRYE/VRHSIyea7+5jjOkpycnA+XLl0q13NRxzywDkXAGhg3OUsICAEhIAQGSKCyqtJGzo6hys6YEXL4xzrEM6Jxw2e+0HIyszu8sDLszvvHeAlYDDSyCt3DxHdb7fT+zd/9+/YB4pHTYkCAmen7D1w+XofoGgafDdAYMLslCXcLARsYqA556eY7zrtjYwwQSJcxJhCp2GUKVhhvhMuZee8YD+mG7o3g+ma4MuNt4cT2LyqlvhDvBDcsi9ggBOJHYOLEiZn5+fmjIvmxrgl7K5mwQit+FkR9pM0AblFKPdzW1vbRmjVrmqM+gnQ4KAIiYA0Kn5wsBISAEBACAyVg8mM15hYWBgnfCmn6BTtswnEGddjKwqjiYowb0tlVHAQs7UA/C3J+E6Rg/dyZ1duJpIzyoBYxyifPfGSmd2hbwcVa8w8VMIGBnCgPEZ3uCM3M9AET37A1a/v91bOqneh0LL3EkYAJK8wOl1QvZeYriegcAEVxHD9eQ5mP1o+I6DZmfqi5uflTqcIVL/QyjhBwJ4FIbsCxzHwZEV0FoMCdlu7Rqvbwg4f7lFJ/CgQCH65Zs8aEQPeoa51ks0lhc0XASuHFlakJASEgBJKBgG+uz1PYWlgcCgX+hx1cqbUe1JO7nIxMlIwag5yMjJgKWJqdDRrB/wjl5i8atXxU25w5cyRRscs23JV3XPYNsvE7AOUATPEAt1/3MIjawPyGVvq6eRfe/YbLkIo5fSOgfD5fptb6KK31fxHR9ASGqvbN4r632sHM1QD+EAwG312zZo3xwpKbvL7zk5ZCIJUJUElJibewsHCy4zj/G8mP5fb5ms+v5zwezy9s265dunSpqRQtn2kuXjW3X8i5GJ2YJgSEgBAQAlElwKATbz6irC3Af3JCfPRAxQZTkXB4QRH2Gj4i+gIWwI7WAbb1n3Y0b/jV/EtqzIWOHG4iwKDL7rxsvMeDOWB8N4lDGdpAuCvUTtffccUdH8sFtZs2Wd9t8fl82aFQ6FIi+k8Aowb6udb3EWPWUjNznVLq57W1tc/FbBTpWAgIgZQhUFFRcTIz3wCg1IWffczMpkrqr7KzsxdJjqvk2XYiYCXPWomlQkAICIG0IHD6XF92a2vWt9rb+afa4RIQjCtVv76vsjMyOwSs/CwTLdb5IK0znLAbIZtfev0eeY17tze/MdhhcKuGfoatUNXQb+7z1hwSjys3bciqF6vsjR9tLFYUvFA7+AkII/u7b9w0n8h2NTt/vSL+o9NqPzxqn1HbpKKl21apb/ZMnTp1jFLqv5n52wBMtcJBeZr2bdSotDJhNZ8T0fWWZf1NclxFhal0IgTShkBlZWXu1q1bZxPRtUBH4RRvAidvLumM1+hHAO4KhUJ3rlq1SvJOJnBBBjJ0v24IBjKAnCMEhIAQEAJCYCAEKm+aPpZD9vd0EN+G5tEMZPa1H0UKw/ILOqoSWqrzq26AApZmoMlh3eCo0E1NbWrxfRfeJ6Xh+7oQcWhXVVVlfzrl00KEnKOJ8WPijtLenjgMHc8hAiB6jZT+S2YGvboB2xslR1Y88UdvrPLy8sOZ+X+IyBfJj6Wi13tUe2oHsImZH7Vt+7d+v//TqPYunQkBIZBOBFR5ebkpbPEjAGeGk6QPjYT1x5NBAMBnAJ7WWv+1oaHBVBmU1A/xXIEojSUCVpRASjdCQAgIASEQfQKVL1baVh0fEnKc77Gjj9YaI/oqTmR5MzB+yDAU5xlnh/4JWJHk7zsYWKfBD2sduOeW7zz0SfRnKD0OlEBVVZXaMG5DYYaHpzqsLiXm00FJlzS2n9PnzQQ8RoT7WrReNWH9hO2Se62fCF3QvKSkJCMnJ+d8pdQVzDzFZYneQwA+B/Ca1vrm4uLipTU1NeZvcggBISAEBkWgsrIys7Gx8QhT5ALA4QBMxZ3OstGxO8znlxGu/kVE8wKBwCtr1qwxAr0cSUpABKwkXTgxWwgIASGQTgSOm3tcgW5pOyUY1Ocx0zRoNk/vvtJzgYgwNK8A44cOg9e2++OBFWDmDxzi5wHcWTRzYq2EC7pqt9HVj1ydgx3B/bTi04n5fAYmucrCWBvDWEuK72XQ4qys/LdvnHVja6yHlP6jToB8Pt84x3EuBXAWgBIktkKm0e1N+fg6Zn6AiJ6oq6vbFvVZS4dCQAikPQGfzzc0FAqdQUTnAjgIQPHXXdMNAJrxrvoCgF8p9WDY63WR3+9vHEA/corLCIiA5bIFEXOEgBAQAkJgzwSOm3vc+OD2wLms9WnM8IWTg5okV3s8MjxejBsyFEPz8gGir8uB5TDrz0B4JahDD2sKPPfXWdXNsh7uITB77mwPeYKTyVLHAPQdYkxjcKyf3roHQG9LTB6P18D8AEPXbMnZ8b6EFbp1qfZsl/HGys3NNZ9lFxCRKV6xVwJyxDQxswmnecqyrIdWrFjxvoTWJN9eEouFQJIRoKlTp04mopkATgFQFq5umhulOTQSkV9r/VQ4gfwj9fX1phCKHClCQASsFFlImYYQEAJCII0I0PE3V/raA84szfoEdvhA8J68sQhD8vIwbsgwZHq9exSwNNDM4Fe0Di1sJ1p0+6x75WLHXRuKLr3z0lEZtjqGoc8B03GRRNjusjIR1jAaoehpdpzHvcBLN196t3niLEeSETjwwAOLLMs6jpnPIaIjIxULY50fy4TRvAfgGWZ+rKioaHlNjVRWTbKtI+YKgaQm4PP5PI7jHEJE3ww/lDmemfcbRFihyXO1AsAS27YfXb58+aqkhiPG75aACFiyMYSAEBACQiApCcz804ysTZbnaB3UZ7LWp2gHY3c3EY9lY+yQoRiWXwhlvLAih6lCaGoog/gNDX4qpGnhLbPmr0xKGCls9Oy5s8bWZz4AACAASURBVLNVJh/DWp+hgFOZOqoYyfElAryeSC3SGosCCL0y/5L5bQIp6QiosrKyCUqpk4nojLCwNIOZ82MwCxNaY3LCPMvMC0Kh0EurV6/eEoNxpEshIASEQJ8IHH744Xmtra1Haa1NkvcTwlUCx/fpxM5GxiPZiFXPMfPCffbZZ2l1dbXTj/OlaRIREAEriRZLTBUCQkAICIEvEzj5riOHtW7RJ2iNk5lxDGsetWurwuxcjB82DNnezkKGDHYY3KCZl5DlLN4xPutf8w6eZy6A5HAJgZmPzLSGtxZPCyF4NjGdDML+YLjlukUT0MrosMdsqlh7yvRxVUgz6zpS6h8APzHi/bH1kuS9j+hc1Ky0tNSbmZl5oOM4pxDROQD272vxij5Mw+RLe97kuGLmF+rq6j7oqnHRh3OliRAQAkIgpgR8Pt+oYDB4lFLKhFRPI6J9mXlPVag3AVhtwumZ+eW2trZ/rV27timmBkrnCSfglgvBhIMQA4SAEBACQiCJCTDo2BuP2Cvo8MEElAMoZ6YSMEYxOMNWikcXDWkbmlfwPim8Q6ReJ3Lqmp3WFfNmVUtST5ct/WV3XFZi25hJoJMBPiQiErnBSoeI3gPY5NVo0EyKoMsBOg3ABACWG4wEUTOYlxKrRcShJ/966d0fucIuMaJfBHw+X0EwGPQppYw31iwAI9Epmg70qFVK3WcErPz8/DVSXXCgGOU8ISAEYk2goqJitNZ6ilJqLyIaz8ymCnW28Zxn5kal1KcAPtBav2fb9lq/379dxPhYr4o7+h/Ml6A7ZiBWCAEhIASEgBCIEKiqqlKvj3u9MLCjaTQ51hBmzkOIbEeBR+bnh4bn5W8JMW0KjPZ+NP9oCbFy28a57I7Lir0Kp2tlxCs+FCBTmcgd1yqErWAsIOJHgh61YszaMR25pj4t+XQEhXQFLJxLmk01uViEfPV/qRgahI0dpcMVHrZV9jM3f/dmc4EvR5IRMB4JzHxw+EbtgnB+FyNmZfRzCh8T0X1EZMIFVzY0NOzo5/nSXAgIASGQKALK5/PlBYPBPOOJqpRij8fTFggEmhoaGoxHqQmJliONCLjjojCNgMtUhYAQEAJCQAgIgd4Eqh6p8m5s+/gIYr4k7B1yJDPGDCKJa7TxRqr9Ya5W1r9Gvf/OJ3Pm1IR6DmLCHYtai8Yo7RzGiq8hpsPcE1aIdoA+AvELZNFdzg7ln3elhMtGe5PEur+ZM2daa9euHU9ExsP0fCI6BkDRV4xrbupMgvanjHCllFrt9/tNuI0cQkAICAEhIASSloAIWEm7dGK4EBACQkAICIHkJsDMdPX9l+3DDq5g0OnUmbR1T7kuEjBZ+lgR39DeTguzxmR9cvMpN5sKR3s8rr3p2gwubB0ddPgMUvRTMBshzi1HC4D3FdNjtlJ33XTRvA/dYpjY0XcCpmJXMBgcoZQyXlkHKaUOYGYjbOUysyaizcz8XjgJ/ArHcdZ6PJ7P/H6/SdAuXgp9xywthYAQEAJCwKUERMBy6cKIWUJACAgBISAEUpmACRe0LXybFC4nxj4MZLsmXBBoI6K/2Rz8SyCQ8em8K+cZ8afPh6mcSF4aA3J+SIRLwZzV55Nj2NDU3STQDmZerUA3UU7Gwr/O+mtzDIeUrmNHgCorKzOamppMOKERtZRlWdze3u6EQqFgbm5um9/vN56CHDsTpGchIASEgBAQAvElIAJWfHnLaEJACAgBISAE0prAzKqZ3qF7F84A838z8xEAvC4Kt2MiPKsc/T/ebc0NN/6kum0QAgDNnjs7y84OlmtH/YLBxxHILdddGqA2gJ8LZxj7xeas7Q3Vs6TkeFq/MWXyQkAICAEhIASSgIBbLqSSAJWYKASEgBAQAkJACAyYAIOuuvfC0WDPL8C4CATPgPuK/olGuHqXWP0yFKAn+utx9XXmXH3r1bmcFfgmFP0Xgye7yNPMmG6ErFt1tv2rebPmSRWnr1tMeV0ICAEhIASEgBBIGAERsBKGXgYWAkJACAgBIZD6BKperLIb1zfmtqumizTov8A83EWzDgL0OUjf52lXt958xR0bYmnbNX+/bEIoRNcQ4zygoyS4Hcvx+tn3JwT67+3bWx9rH9m+Qzyy+klPmgsBISAEhIAQEAIxJyACVswRywBCQAgIASEgBNKPQEdlvlBRkQrykSZcEOCDXEQhBPAWKHqBmW8aOX7csjlHz+lVWTBWtla+WGnv8+GkQxXjh4D6BhGKmdktQpYGUY2l8Vvt9Swf/s7wxjlz5kjy71htBulXCAgBISAEhIAQ6BcBEbD6hUsaCwEhIASEgBAQAl9FwFQW/P69FxVrxzpAK7qSiM4Gu6ayoGbGNlOhjRTfnVfAi35/5l1NiVjRS++8NM+r6CwmXELAVACFLsoF1kjgB8HqnlaE3p5/yfzGQeQCSwReGVMICAEhIASEgBBIQQIiYKXgosqUhIAQEAJCQAgkgsD595+fnx30TFFknU3ABQDGuCLfE4GZ0aIYq8KeYAsdZd8/76J5HyaC0a5jmrBCp50uBOnTAdofndUY3XA44TV8TwPzFdE/nGK1bt7p/avG6IZJiA1CQAgIASEgBIRA6hAQASt11lJmIgSEgBAQAkIgIQSuvenajPbc5r1hqeMJOI8Z5dRZXdANh8PA22B6gRTfP+L9O5fPmQNXhcVVVVWpT/f+8BBLWxcw+GgA+7rHG4tbCfQ6CA84bL2IAD6cd+W8oBsWVmwQAkJACAgBISAE0ouACFjptd4yWyEgBISAEBACUSNg8lwNa84drW1VCcY3wagEUBC1AQbbEWEDM2oUVPWmLduerf5Jdetgu4zl+VV3X5z5OayToOibmrmSgLGxHK+ffX8B0BImPElkvzzivRGbJD9WPwlKcyEgBISAEBACQmBQBETAGhQ+OVkICAEhIASEQFoSoNmPzM5XrXwkoM8A40QQxoHhjusKRiMILzFoISl70e0X3v55Mq3SJXddMiyD6CwQziDQEdyZHyvhB4NZEb2rNRaTRQt1q3p93pUSVpjwhREDhIAQEAJCQAikCQF3XGimCWyZphAQAkJACAiBZCdQ9WKVvenfn/pClv4mgU8Aw+RtcksVvXYivMlMT7J2Ft9+yd1vEYGTkbnxbhuyPX8/2DgFRGeC+WC4JCyTgXYQakF4Wmv12N8u+tsaJCnnZNwbYrMQEAJCQAgIgXQlIAJWuq68zFsICAEhIASEQD8JXHv/5WNDITbJ2U8BUMFATj+7iE3zTvHkHWI87hA/jTZ7Rap4Bl1969W5nN9eoUN8qlJ0NjNPdkVi/M6VNNUJ3yTQAiegHp535bxNsVlg6VUICAEhIASEgBAQAnCJq7+shBAQAkJACAgBIeBaArMXzc5Wm0KzSKlvM9gHxlC3GEuAyc30lFZ4tD3kLBv/wfjNqZabySR537j3xqHgwDRimsnAqQANccsaAPiEjZBFfO+IrKZ/zJlV3e4i28QUISAEhIAQEAJCIEUIiAdWiiykTEMICAEhIASEQLQJVHFYOLnv40poXAngUIDHucj7pw3E/yKiOymkXwkFPZ+lenW82XNne5CJURb0N5j5ss41QWa0132A/TkA3je5x5Sl5t16/rzlRJSU4ZsDnL+cJgSEgBAQAkJACMSYgAhYMQYs3QsBISAEhIAQSEYC37vz0inaUlcBbMIFJ5JL8i8B0ADeI+LbKUgLWyxnw/xL5rclI+OB2vzjP83MCuTnj4GtznJIX02MCQDUQPuL2nkmlJO5jYjeBeGxYIDuuuOKOzZErX/pSAgIASEgBISAEEhrAiJgpfXyy+SFgBAQAkJACPQm8L2/f68IweB5zHwFCCbfUpZbvK4I2M6E+xHEbXqE9f680+e1AsmZpD0K+44uuPeC7HytJjpkXw3GxQCyo9BvNLowIuMOYl4Ji27NQfuCP1x4345odCx9CAEhIASEgBAQAulLQASs9F17mbkQEAJCQAgIgZ0ETHianRE6WhN+DqZDGZxFILdcJ2giesVi/r/N7PjnXzw/IFXvIkvHoIvnX5yRzXSQo9TvCTjcRdtaA9wM0LMg/H5z1nZ/9axqE2oohxAQAkJACAgBISAE+k3ALRem/TZcThACQkAICAEhIAQGT8AkCP+85KPJrOlnxDjXNZUFO12rmIBPAf7ZiH+PezDVkrMPfvV698DM9L37Lv8ua/wGwBhyV7GezSD+GxC65fYL7/1EBMhor770JwSEgBAQAkIg9QmIgJX6aywzFAJCQAgIASHwJQL/n707AZOrKtMH/n7nVm/p7AtJIOw7jCL4d0BQRBwcQRAUExVIek11p0NAEAedUZt2GZRhwCGkl0qvSYAxPSyjCAiMLA6gCAiOsi8BEsge0kmvVfd8f24n0RCz1O2+VXWr+q3n4ZlR7vnOOb+vwMr73Htu7UO1kVWvrpoWycNXRHSBbjtHKSyfOID3VNCqRc61sVmxzWFZWDasI3prdLL0J/7JiJQqMB5AXmjWLfgTLK6zBc69myKbNvGOrNB0hguhAAUoQAEKhF6AAVboW8QFUoACFKAABYIT8O64WnP4msnixk9VwVUQnApFWH4PJABsEsGvFfjJhqKuPzLgGFrvvYBy3Yo3T7QSuQrQM7EtyIoMrVrAowSuKu6LIHKdzTP/13Bxw3sj+CyzgHFZjgIUoAAFKJC7AmH5wZq7wtwZBShAAQpQICQCFc0VEwuMOUYdO08VMwEUhGRp3qHfmwA8q1YWO6Pzf1k/q35rSNaW1cuINkXHmYLEuYCUAfgIgAmheGOhpyqyFVZb8iKRtu6B+OutFa1bshqbi6cABShAAQpQIKUCDLBSysviFKAABShAgcwL1CyqGa3FA0er4HwAVVDdL/Or+ssKvDcLviCQu/Jhbr2pJPY278YJuDsKqVxaeUie2q8B8gVVHAfB6PDceacrAL3JQeT+bo2/1l7W3hewAMtRgAIUoAAFKJADAgywcqCJ3AIFKEABClBgdwIzl8/M369n/JFW3DOtSjmgJ4TmzYKKfhW86r2hTkRvs33OH2JVMe/sK35SJOC9aTKvKH6Sq+ZrUJylwBEC5KdoOr9l41D9jRhZ4mrifzeN6lnBx0f9EvJ6ClCAAhSgQG4LMMDK7f5ydxSgAAUoMAIFvHOu1h+18kDXxelQfFkUnwnR2wVdAO9A8WsRc0ckUvjwwksWdo3ANmVsy+Ut5WMiRj5jDL4E9c7HkumheKxQoFBsFOgvoXJnfoE88R8XNa/JGBQnpgAFKEABClAgVAIMsELVDi6GAhSgAAUoMDyBK5orJvY7OM0a+QIUZwMajnBi8MgjdKniYYX+3LF6f315m/e4ID8ZEliwrHJGPG7PVpHzDHBmWEJOEUlA9XUI7oaYn0th3tM8Ey1DXxJOSwEKUIACFAiRAAOsEDWDS6EABShAAQoMVaC0rbSwwJgTYc0XRfA5hR4dlsfDFKoi8luo3G41cf/0FQf/ua6uzju4nZ8MC3h36717yJvHR8T5RwtcCOBkL2vM8LJ2TN8DwXNQ+aUDuSveLy/zMdOQdIbLoAAFKEABCmRAICw/UDKwdU5JAQpQgAIUyH6BWq01a2996xBxzZdVcZ4qTgAwJkQ7ex2Q2wC9d6q6T9fxgO4QteavS1lwz4KC/nXdHzMWn4fILACHhWahgvWieAqQO9VE7mqc3bgO3uOG/FCAAhSgAAUoMKIEGGCNqHZzsxSgAAUokEsCC5YtGDuQ6L3AQL+mwIkQ7BeeN8thMwS3G9Wf9SfkqZbKlo25ZJ+je5H5HXMmWkT+HoqZCvHeWjkxJHv17thbqcDvjIOOFZveefDey+7tD8nauAwKUIACFKAABdIgwAArDcicggIUoAAFKBCkgPfY19rD3/mkWrcGkFMAHADACXKOYdTy3iT4MKDNxuoTU948aBUfFxyGZgaGzlw+05nQO+EAY/VUiJYr9FNheRwVwACANwXyPxLHTfVzm1/IABGnpAAFKEABClAgAwIMsDKAzikpQAEKUIACQxWo7qg+QJC4WlXPA+Ad0F4w1FopGPeCCpos4vcWbh735sLLFvIOmRQgp6ukd65ansk7yFH7eQjmAjgmNHf4KXpg8LZAlwzEpZF3+KXrW8F5KEABClCAApkTYICVOXvOTAEKUIACFEhaIPqL6Chnc6ICrrlM1R4ASFHSg1N9oXdGkZXbrLUtmoi8EovGenlGUarR01RfIdFYtEjzB44ycOaK4CsAJqVp9mSm2SLQFxW4/sWDX7/j4U8/nEhmEK+hAAUoQAEKUCD7BBhgZV/PuGIKUIACFBhBAt7jgmsOf+csuPYaiJ4AkcLQ3AUD9CvwiDhybV8i8du20rZ+EeHh2jn4/VRVuaa9rGCNEzkVin9R1U+E6LFC73ysLYD82lrzw1h57JkcbAG3RAEKUIACFBjxAgywRvxXgAAUoAAFKBBGAVXI/ObKYzQP31LolwCMDtE6LQSvu8C1ceve2s43C4aoNalfyoKbFhT0j+uZ7QDfUcWBAEzqZ016hnVQWWwHzM2xaGw17wRM2o0XUoACFKAABUIvwAAr9C3iAilAAQpQYCQJRJuieQXFdmrCtV/zMiwoDg7N/kUSUN0ggqVS5P57/az21aFZGxeSdoHqJbP3U7fg28bobFWMAxBJ+yJ2M6Hi/dvFIP8Hg+sdjd+ztqj3vc5ZnW4Y1pbyNShkZudMM2HTBLNpwiaZsGmCTn9nul5zzTUu745MuT4noAAFKECBFAswwEoxMMtTgAIUoAAFkhGofag2surdVZOcOM4Q4DKonhyaNwsqrAg2KPCEQL7fUNr8dDJ74jUjQ2B+a/QkV9zvieBUBSaG5nsL9ClwH4Cbi9R9etyKg7ty7Y2Y3iPG3Ye/XrQVxcWOEy8aGDATDHR/Ax0vIkVWdUC8xytF3o4bbMx3E71OXrxndf5A94gJ9UbGP4bcJQUoQIERIcAAa0S0mZukAAUoQIGwCnh/AO06cOX4nghONCKlqno+gDGhWK9AodgIyPMwUn9m4Xuds0bKnSyhaED2LMK7c9AUuRfCYh6gxwPiBVlh+Z25RoGlMPozp7DwxfpZ9d0AsvqstkHvQrMfNH6IiJ5sVT4pihMh2B9A3h6+OesAPOsF0ca1v3HynNcK0b/2+jlLPQ9+KEABClCAAqEXCMsPi9BDcYEUoAAFKECBoAW8Nwuaje7fQfEFAHOAwfOEwvLpAvAyRG6HRFob5zSuDcvCuI6QCnhvLFx2yTRxC0oF+BIER0ExNkSr/SMgLRpxH5x2wEEv1326LuveWOgF3hsOX3VwXPFRsfpFiP4DIPv5NhZsFcXjCrnLgTwanyRvxM6L9fiuwwEUoAAFKECBNAowwEojNqeiAAUoQAEKeALeH0LfOfSdYx2xnwYwW1U/JpCw/G9yvwCvWsgDEWuWxuP4v1hVLM7OUSBZAe/uIKfAflhFZ8PiLACHQ1CQ7PgUXxeH6INiZZnCfbyxrP3NbLkb6+ttpeP7TN4nAPs1VZwvQPFOVt4ZX10QbICK93/7YNUF1IGRfFWMFcFE6OAjnjsfuu+FVk+8HzbeauE8uKlo0yo+WpjibyDLU4ACFKDAkAXC8mN5yBvgQApQgAIUoEA2CdS0lh1oTeR0wM6C4h9D9Ad77w/AbyvkUQN7eyTS//DCS27x7sLihwJDEoguj45zevRTFu6FAjkDwAEhOh+rS6C3i8qdYgofX1SyaMOQNpmmQfOWlh+tFl+FShQYfEzQewZSBXgPIi9A9WX17piEXeGIrFY1XYgjbgpNJOG6o1UxNSI4WIGjFTgKwNEApu60fO+FDHdaazsGRJ/jm0XT1FhOQwEKUIACvgQYYPni4sUUoAAFKECBoQnMq79ogi0cdboRe56KOQ9Q/4/9DG3qfY5SYKMIfgPg5wlH7m++uHkVvPOv+KHAcAUUUvOfZTMQdz5rrX5BgdMFGD/csgGNVwheE8VdMPZutzfv97Gq0D1GJ1Ud5aeIymUK/ZJA8rfvvUsx+M/sw+K9XCEv//mGixve29fdZNGm6KhIsR5vXXsyFF6oeCqA6dtr9kHkEau6EP3OQyG0CKjtLEMBClCAAtkqwAArWzvHdVOAAhSgQFYILLhpQUH/uO6PGcUFgJy9/c4HJySL7xORZ6zqnWJwn+11XuLjgiHpTI4tY/CxwkJ7rFX9rAAXvh+WngRgRxiT2d0q+mHkaah7j1X9+fTSg/9cJ3U2s4vaNntNR/mnLXA1VM7cfji7KuRPRu1SGPMrt8+8MJR/Zr1+yGg5BInEWWJ1FiCnbL8b1Krg9wL9yYYNW+7rvLKzNwwOXAMFKEABClDAE2CAxe8BBShAAQpQIAUC3jlXa494+0i44h1mfQ4UJ+oHz6xJwaxJl/T+cP6WALeJNXdjdN4f62fVb016NC+kwBAFrloyu3irzf+IAJ9XxUUQHBSS36Oqik0C/BaO3mUlcndsduzdIW4zkGHV7RWnKfA9AT4FbD9DTOROgdS7ffJ4EHdIDd6RVZg4yapUAPDegDrBu/vy/beh/gFqvqUD5uGhBGSBALAIBShAAQpQYBcBBlj8SlCAAhSgAAUCFqhorpgYici5IvoVUXxMgUm7HJwc8Iy+yvWIkdus4Gf5cffZheVt63yN5sUUCEBgQWvZlH4jJzrAxQqZBaAwgLLDLyGSgOIdiD6iio5+dR/LxHlQVW2lR4pEfgjAe9y4SKFqjFnsuubGWGnspSAf8Z25fKYzpX/sodaVakC9t6FOGXwUUeQJMba84ZLWl4Ocb/hNYgUKUIACFBipAgywRmrnuW8KUIACFAheQCGVSyuPiVitgeA86OBhy3nBTzSkigrRh9SaRW4enjzglQPeqasLx2NSQ9oNB2W9gHeX4ruHvTvDaOJjgFyKbXcaheS3qfYC8poBOqzJW9I4p3FtusDLW8rHFETkX6Co0r+eF9ZsxflBrCT21o51VN5aOTU/Yc8FnJ3fKviBZXq3WopqrxVsNGJfW1+w5dXdvmVQIdVLqveHjX8TAi/EmgDAFcV/9cItzUSIly5vzkMBClCAAtkjEJIfCdkDxpVSgAIUoAAFdidQW1sbWXPoypMF+J4CHwcwJkRSrxgxPx0Qvdf0mpV8JChEneFS4J3HFBnlHmxdOQfQywAcHhIW70V/G1VwRyQiP1p0cYsXHqX85QbV7eWzAFMH0aMH74MC7nPhXBorjb2+8/xVS8r/n1i5A9CCvXqJuFAkIOgRizdUTNvUN/a/o66uLrHLOKlcXHmAk6/Xiw4+TlgIaK86qG6a3bokJD3hMihAAQpQYAQLMMAawc3n1ilAAQpQIBiB2odqI2vfeOc0GP2pQo8Py11XCrwngg4j0lRQOGbFjbNu5IHMwbScVYIXkCuWX1EYH+g+Iu7auQY6WzUsbyuUXkAfgLqXN5a1v5nKEKu6rfQQiHMtgJkAvJc9vCUqX9lvxQFP7nrHZFVH+cdF5aG/nI+VTE8GH5G0a6Do2LBiS11nXefAB4YpZN6Syg9Zqx0iOGH7HXFv5XWN+tDCyxZ2JTMFr6EABShAAQqkSoABVqpkWZcCFKAABUaEwOBh7YeuOtFCbxXgiFCcdSXw7qy430KvRV/kmVg01sszbEbE1zHrN+m9Yq8qFi1yiuIfg5qrVfEPIQmEXRHcH3FtSSrPjatuKy+FkR9AMWNbUCZfH23Gt1w/5/ruXZs7pADLKyJQKN5Usd9tKmlbtmvdwX+nHb5qnlqtw7bz+/T9xxCvbihr/bes/4JxAxSgAAUokNUCDLCyun1cPAUoQAEKZFqgprXsQGvMPQD+LtNr8Z53EuAFx+DHWlhwJ98smOmOcP7hCCxYdvHYRKLoQkCvAuQYhe7xrKfhzONnrAhujWweVb7wsoX9fsYlc210aXS6Sbg/hKB8MGcSfdyxkYqby2Iv7m78bgKszYDcDbh/3HG9MU6ea3GsQL8IYNROdVxA7rT95qLdPVJ8xfIrinp7tzwI1VMGQ3nByqlFXYfXzdrljq1kNsZrKEABClCAAgEJMMAKCJJlKEABClBg5AnULKoZbcf0t8PiwgzvPg7FagFudQec+ljVXw96zvC6OD0Fhi1Q3VZ9CHTgUpjBtxVOBxAZdtFhFDDAN9eN6rpxt4ehD6Pu/KWVZ1mr16niIwAsIFfs6e4rb5pdAywFVgr0G42lrct3Xca81rmfUrEPQD7wUonHNM8ta7q4/ZXdLbt6WUU5ErgRwFgAA2rtrKbytv8exhY5lAIUoAAFKDAsAQZYw+LjYApQgAIUGKkC2x4dfHueQm7OoIELEe/taL+B6k1T32h5oq7O+4MvPxTILQFVlXm3VJ6KhHwD0FMBTMnU47oC6bViP9NU0vpEUMpn1J4ROebQI2oA/cm2w9PhhUpljaUtj+1pjt3cgfW2d7fa7gIsr0Z1e+WjgH5yp3pPQ1DTWNLy5O7m+Mat0clbB9wnBTjUeyPh+4frL20sbSkLas+sQwEKUIACFPArwADLrxivpwAFKEABCgCY3zHnKBd5j0ExOe0g286w2SjAH2HQ7PY6d8WqYj1pXwcnpECaBWrbSgvXOM5MKCqhg4/tTkzzErZNJ/p4n7Wfby9rfy+I+Wvaaqa5MvAdgc7fVh9LYfO+11jWuMJHgPWWKK5qKGvp3N2Y6o6KJVDM/uvfk99ba6pj5bFn9jTHvI6KdlVcAoGBlZem4oAT68rq+oLYM2tQgAIUoAAF/AowwPIrxuspQAEKUGDEC0SbonlOYaJJVTJxN0IPoH8WMXc5Cdt+c0XrOyO+IQQYcQKViyunOnk6FypfhOjRAhSnGSGuiq83lbXUBzHvvI7KD6vaHwNytnfIulrzbac4b9HezrHbzR1YbxmRb9SXNP/Xrmuq1VqzpmPlfQDO2h6QeQfEP5RwUNJ8SfPKPYZk7eUVAmnwDtIXYJ0mcGZjZcufgtgza1CAAhSgAAX8CjDA8ivG6ylAAQpQIjE0RwAAIABJREFUYMQLzF8aPcm67kO67WyYdH3iAF5SyCP5jl28cHbrc+mamPNQIKwC0dboSeLYUoF+Goqj0/jGQoXgWUje5xrnNHqP8Q7rU9VecboIfgrFiYD2WpXKWGnLbXt7e+jfBFiCNxVyVdMuAVZtbW1k9aErTxXoLwAZ/HeWAt0Qad1YtPmKvZ3lNb81epJr3McBFCjwXkSkdFFJM8/BGla3OZgCFKAABYYqwABrqHIcRwEKUIACI1VA5i2pXKhWqwE4KUfY/sp7gT6q4nRuKHrv/k6+CSzl7JwgewRqH6otXP32yrMM5Mtq9XQABw8+hJf6TxfUXN5Ytrh9uFNVtVWeI0brod7adRVEqxtL2u7eW93d3IG1RgzqAfPIYEjlqsCRArF6METLVXHy9npeGP6Eccy362cv9sKpPX4qmism5kWwavu5XFtU8K2mkmDuOhuuGcdTgAIUoMDIE0jH/7iPPFXumAIUoAAFclbAe9W949qHVfRIePdgpPazQRX/KwY/N9a9Z1Fp+xrxAi1+KECBDwh4h7xXLauaFnHtOQo9X4HT0nA+VgLAPVNHzZhZN6tuYDgtmddWcYEKYoOH0wteEphLG0oWP+gnwFLogBF5CyqbBgMsURGVIoV6gd7owbu5FOsh+gjgdGwoeu/efb1J0XtZxZpDV3rnfI3x7toS0R82lrT+eDh75VgKUIACFKDAUAVS/cN7qOviOApQgAIUoEAoBarb586C2hgE41K2QJFegT6tKnepde/VeN4rsaqYd9cEPxSgwF4EapfPzF/TN/YocfVsNeYCqJ60/e6hVLm9BoMLGucM71yomiWVX7JWF28L3eRFEXdBQ0mbrwAriQ0OKPCwUTTUl7b8d7JheHVH5UaoTgDQA5F/ayxpviaJuXgJBShAAQpQIHABBliBk7IgBShAAQrkskBVe+XNAq1I0R+KrQheheJ2BX5pRhU8t7dDnHPZmXujwHAEylvKxxQCJ9iI+TxULwRwWCoe+fUONofgnxtKWpqHs96qjsrzRbUJwFQRvCEWNfVlLd6h63v87OYRwn0tIQHBCqg+q5CFTaUtj+5rQO1DtZHVb779nkCKxTs3C/hxQ2nLD/c1jn+fAhSgAAUokAoBBlipUGVNClCAAhTISQHvD3Nr3lr1CFRPAWCC3KQINqjqL4wjP7M68EzD7KXrkr1DIsh1sBYFckZAIdVLq6eIuh9V2K8A+AIU3p1EQX56IGhvLGmZP5yiNW0Vn1ODelUcCmCjqsxtKmu+w2eA5T3G+LQAr+0Yp4oIZPBMMO/8qx3/zuqHyB2mKD+6r4D860uj0/tc9/UdZ2B5YV1jScvNw9krx1KAAhSgAAWGKsAAa6hyHEcBClCAAiNOoHJZ5YxIQn8N4MgAN9+vwOOiiBm1j01584136+oe9s7W4YcCFAhAwAue333r3f2NdU+FoAbAxwFEAijtlbACPLh+VNc5+zpPam/zVbdXnCaQGxX6MQCuCKr3e31Ge11d3R7/XfC3d2BpF2C+b8V07pjL2AED1xmNPKmF6pd3WsPzjnHKF82J/W6vIZn3dkTg/h1vITQwJQ2li38ekB3LUIACFKAABXwJMMDyxcWLKUABClBgJAvMa6s8RY3+57Y3hQXx0V4Fmlxjbkq4iXfby9r7gqjKGhSgwN8KLLhnQUHi3a0HWCPfFJG5AT5S+KTtdz4fq4qtH6r7/Pa5x7uw/zp4l5j3Efmx7TP/vreafxNgCTZB9MrGOa1/81bEyrbKsyKiXhC17SNYKcB3GkpaOva25qr2iqsEuNYL/LzHJcXIp+rnNL8w1H1yHAUoQAEKUGA4AgywhqPHsRSgAAUoMKIEqjvmngu13jk1+wewcQuV3xQiccFPy9q9t3zxQwEKpEFg3i3zJmhi4CEoTghkOsVzbtzMWhxd/PJQ60WbopOdQvfbqrjSq6GCexyRq/YWFvkJsAb3HB/YuNP6vLDrPxpLWuv2tubqjop7oPhHyOA7DP9s+52T+EKJoXaZ4yhAAQpQYLgCDLCGK8jxFKAABSgwYgTmLYnOVOveBGBaAJtOqJirm0oW3xBALZagAAV8CNR0VF5jVWt9DNnbpX9SVy9pqmh9bqj1VFXmLamMiuLfFSgGsAnWfK2xfLF315Turq6fAMu756qqvWKjAOO31/Lu9lzWWNri3Ym2209VW+mRgPMbEUz1Hmt8P7iPNZa2eI9g8kMBClCAAhTIiAADrIywc1IKUIACFMhGgXlLKi5SCy9w8v5AN9xPXETKG0qalw23EMdTgAL+BKqXRqvguo3+Ru3hasXzarWkqaL1qeHUq9p23tRPAHgviYAofuIOONfv6TFCnwEW5nVUPKOKEwfXKFBR/GL9qK4v7ensruqOymug+k0AowD0w8o5jeXN3hmA/FCAAhSgAAUyIsAAKyPsnJQCFKAABbJRgAFWNnaNa6bA3wqEMcCa3zF/kqt91wCY553PJcAbrrFfa5rd+qSI/M1dWH4DrOqOyjug+sUdGgo85Kh7UX1Z++pdhWpuqznQ9vXfB4NjoV7cpc+fWfy5D8+aNcu7E4sfClCAAhSgQEYEGGBlhJ2TUoACFKBANgowwMrGrnHNFMiOAMtbZXV7+YUQ+REURw+uWszNEOcHjXMa1+66C78BVs2SuTdYa6/4ax39vbWR6lh57Jmda5e2lRYWivkhIFEAYwYfHzSmsnHO4r85HJ7fLQpQgAIUoEA6BRhgpVObc1GAAhSgQFYLMMDK6vZly+Kl9qFa580Vb0byB/JNIpJwiguKpb+7X0blDwz+buspzldsAgr6u9V1xtlEJGEL+gvciRsmunV1dd4dMrs9MylbANKxzjDegeXtu7StdFohnO8DmANBgQi6BBKdUrT5zrpZnQM72/gNsKo6Ki4XxU93qvGqGPxzw5yWzh3/XW3tGZG1Bx12jhq5EYLDBjM04OnCjWM/eeOVN/amozecgwIUoAAFKLAnAQZY/G5QgAIUoAAFkhRggJUkFC/bo0Btba15d/93C01R72i4zihVGWWMU6TQQlgpEMcWqGIMVEarQSGsFgpMvhgYqxrZFiiIq1BrVBJidECt6Ve4fQLpNnC7E+L0G5UBNdqvCe2PRJxezU/0ysConsm2u/ua0rb+3T2SNpLaFtYAy+tBTXv5Z+22u7BOAmAAPG9Eq6a8fuDjdXV1dkefqjsqToRiGQT5g/+dShdg/7WxtPX23fWyesncfxRrvZdQbLsceE+NtjXNaR08C2zm8pnOxL4xJxrXXK+in/AeY/QOkxfRixtKWu8dSd8P7pUCFKAABcIpwAArnH3hqihAAQpQIIQCDLBC2JSQL8l7HGuUyhTrmMkCO8nCmeRApqnaGRBMU8VUCCZDMQnABGx7A50XWgz5I0C3wgsz9D2IbAJ0vYisg9W1KngHqmtVzSY4dpOJ68ZIwcD6hZfc0jXkCbNwYJgDrNqHSgvXvOlcBsB73G/HG08fNRFzVf0li3+/g3t+x5xJLgpOh9n2fRHXjZs8eW7RxS1v7q4l0aboZKcgceqOvydGFI55u/6ixc/N7JxpJvWO/bAo/kVFzoFqkXdwuwgWuX3Ot2JVsXgWtplLpgAFKECBHBNggJVjDeV2KEABClAgdQIMsFJnmyuVvTusNhz09jQreogVcxAEBwE4EoJDoXIIoNO3v9Utk1vuef+4Je/g7pUKvGWA1wFZIbCrYMzbo+N25XUVrVsyucBUzx3mAMvb+6Ut5fsnHPkOgIsBjPX+OxU8FFH8aPLBrz1S9+mHE0EZeSFrvjH/TxSXAzhbIF6I6orgv+MDcnnz3OaVQc3FOhSgAAUoQIHhCDDAGo4ex1KAAhSgwIgSYIA1tHbXLp+Zv6Zv9CfgmkNEZPAxOF8fUQvFu0biv11UsmSDr7FpuHj7Y4EzJN89zhg9TtUcK9BjAByhwNRtxwiF+6PQbhkMsvCqqLys0BcF5sUBV19uqWzZGO7V+19d2AMsb0dVy8qOk4QXYsn5O4WefxBBvUrez3d3sLtfCe/Nh6r9n1VBuQKnbb/zygpwPyDfWT9q87Odszr55kG/sLyeAhSgAAVSIhD6H1Qp2TWLUoACFKAABYYgwADLP5oX7qw7bOUCC1wEHbwbKc9vFQGsQlYr9G7td26IVcXW+62RiuvLW8rHRCI4IaJyilWcKCLHKfSoENxhNdzteoHFWoi8DNXnYfQPouZ3vTbxcntZe99wi4dhfDYEWIMh1tLyEyQh34BgJoBCCNQLcwXyc7VyV15+zxNDefzziuUzi7p7x3zUgZyvqudC5SjI4KOIcUB+JYrr1hdv/l3nLgfHh6F3XAMFKEABCoxcAQZYI7f33DkFKEABCvgUYIDlE8x7FKot+qGEce+BYob/0R8cIcA7avCtxjktS4dbazjjo7dGJ5u4fhLW/gMMvIO0jwYwfrhnVw1nTSkcmwB0DSAvquApEbnfFOY/WT+rfmsK50x56WwJsDyIeS3lR9uIRA0kqqqjt+P0e4e7Q/AEVB9xEvK7T43tWjlr73dLSfWS6iliB05R4HRATgNwPIAx22pqlwB3qciiDUVd3p1XH3jrYcqbwgkoQAEKUIAC+xBggMWvCAUoQAEKUCBJAQZYSULtdFn1krmlsDY2lDuvdjNbj0CWNJQ2z/O/kuGPKG0rHV8o5rMQcwGgJwFy0PZHroZfPBsqCLqgWCGQ36uRzj43/ki23pGVTQGW99WILo1Oz7Pu2a7iKgDH/uXrItIL1VVQfQtGXoPaVxXO21bse46YfkDyBDJWbXwG1BzhncemogeKyAwotoVh2+7qelVE2q1NdE475OA36j5dF9gZW9nw1eYaKUABClAgOwQYYGVHn7hKClCAAhQIgQADLP9NqF5SeRmsXh9QgNWvQGdTacts/ysZ+gjvDK+1W0d/XI1UAfg4IN5B7AVDr5jtI6VXoG9b6GPq6M1Nl7T+QUQ0m3aVbQGWZ+s99tfTN+Z4WHOxQL3D3af8NcgaDKG8u7K2QNADxYD3XkKBGojkqeooQMcC4r1dcOfPJgjuNqrL+hPyVEtFi/efs6qX2fS941opQAEKUGB4AgywhufH0RSgAAUoMIIEGGD5b3ZVR8Xlovi3oAIsQP6rsbT5Ev8rGdqIb9wanbw17l5lFLMU8IKrwqFVysVR2guRVYDeNjaBf8umNxdmY4A1+A1SSDQWnZRXmDhS1VyowHkKPdLniwK8gMp7GcLdqtLpIPFMYiB/Q6wqFs/Fbyn3RAEKUIACuSPAACt3esmdUIACFKBAigUYYPkHzuYAq6Z17qlq3J8C3uHsKPa/+5ExQoFuEfwxYd0rm8vaf5sNu87aAGs7rvdyhN6D3i7emGcmO8CJgD1TVE6GwjuMfYwXdO3SB+/urNdg8CSgj6hjHysawLpxhxy8lY8LZsM3lmukAAUoQAFPgAEWvwcUoAAFKECBJAUYYCUJtdNl2RhgeeHAmkNXXv7+oezf3/5GQe/tbPzsXcAqsM4RfH/d3V1NnZ2d3psMQ/vJ9gBrZ9iZy2c601ZPi/QX9Duj8gfye4EpYpwJsDJKje2Hq5v7Rd9xHTc+fvL4xMTf/Z9bV/ew1x8+KhjabygXRgEKUIACuxNggMXvBQUoQAEKUCBJAQZYSUJlcYAV/UV0lNno/gcUZQAc/zse2SO8u7EAaR/n2m+H+ZHCXAqwRvY3jrunAAUoQIGRJMAAayR1m3ulAAUoQIFhCTDA8s+XNXdgDZ4tdMk0KSioF+DzAZ3Z5R8sJ0Zor4rc7jry7cUXL14VxgPeGWDlxBeNm6AABShAgREmwABrhDWc26UABShAgaELMMDyb5cNAZYqZMHSykMSrt4IwedG9hsG/fd49yO0V0RuRyS/dr+X91tRV1dng6ocRB0GWEEosgYFKEABClAgvQIMsNLrzdkoQAEKUCCLBRhg+W9eNgRY85srDnYj8iNAv7j9zCv/G+WIvxVQ9EBwK9T9UWNp+5uQ8Jy5xACLX1gKUIACFKBA9gkwwMq+nnHFFKAABSiQIQEGWP7hwx5gVd5aOTUyoFcrUCbAeP875Ii9CSjwngKxiLo31pe1rw6LFgOssHSC66AABShAAQokL8AAK3krXkkBClCAAiNcgAGW/y9AmAOs8pbyMYURKbeKqwDM8L87jkhS4G0L/Ul3pH/pLZfc0pXkmJRexgArpbwsTgEKUIACFEiJAAOslLCyKAUoQAEK5KIAAyz/XQ1rgDVz+UxnYvfYs0TwQwAf9b8zjvAp8LQqvqMDzv/EqmJxn2MDv5wBVuCkLEgBClCAAhRIuQADrJQTcwIKUIACFMgVAQZY/jsZ1gAr2h493IH9nkK/CiDf/844wqeAhWK5cfHd+sqWV32ODfxyBliBk7IgBShAAQpQIOUCDLBSTswJKEABClAgVwQYYPnvZBgDrCuWzyzq7R075/0jxa8BMM3/roIZoYCKYIsCG4zKelVshMEWWO2GQbcoelQ1AREXKgkYuKKDH0dEDAADRZ4VKRBogUILARltgDEqMlagExSYIpDxqhoJZtVDr+KdhyWC7w4ktKO1onXL0CsNfyQDrOEbsgIFKEABClAg3QIMsNItzvkoQAEKUCBrBRhg+W9dGAOseR2VH1bgWkDPhiKdv4XiAqxUwQsCeU1V3xDFGlew2VHpEsgWjbi9mrD9BujT/KL+iEZcd7NrC6YUuInRCYtXgUhitekuniBji3qlq7fIC6byIvkDkYTJz3cSiaKEcYqMcYtgzGhYjFN1Jxp19ofRw6A4AsBRACYMBmDp/gieMtbMXVQae05ENN3T75iPAVam5DkvBShAAQpQYOgC6fzRNvRVciQFKEABClAgBAIMsPw3IWwBlnf3VU/3mBIR+QmAsf535HuEC8gKiP5agCfVyKuuK+vEkY0DiYFN7WXt/cD794Kl8OOd91XcXTwm4kQm5FlMBHQaVI6D0VMUcjpUJwFpC/LiEPmB7TM3xapim1O47b2WZoCVKXnOSwEKUIACFBi6AAOsodtxJAUoQAEKjDABBlj+Gx62AGt+x9yjXOiPofpF/7tJfsTg44HAsxbSrpp4wjH2nT5rNrSXtfclXyU1V9bW1pqNk14dnSjOn4y8yIGw9kwFLgIG785K+UdEXhbBBfWzm1+EpDa829NmGGClvM2cgAIUoAAFKBC4AAOswElZkAIUoAAFclWAAZb/zoYpwPLuRJrUO/5sqC4B1HuELiUfAVa7kB8C8fsi3T1r6ud3bk3JRAEU9cKszYe8ObYH+dOMSXxFIPNVMSWA0nsr4cLI1UWFm+tvnNXZm+K5dlueAVYm1DknBShAAQpQYHgCDLCG58fRFKAABSgwggQYYPlvdpgCrPkd8ydZ6fuGWnwrVY/MKXC/qntV8abuV2+8MjPhjP8ubRtRs7xmNLrjx6rY7yvwuaHWSWacQJ51881ZsYti65O5PuhrGGAFLcp6FKAABShAgdQLMMBKvTFnoAAFKECBHBFggOW/kWEKsKJt0WOMuM0ATvO/kyRGGLQnIj3fav7abWsz9WhcEqvc6yWqKlXLZk8Tm3+VqFwOwBluzT2Mt66r5+7/1oG/qqursymaY49lGWClW5zzUYACFKAABYYvwABr+IasQAEKUIACI0SAAZb/RocmwFJIzZLoaar2Vwod5X8nexkhUFX8tzpOTWx27N1Aa2eo2NfbSsf3w9SoyPcAFKRiGWKkxe0182JVsXgq6u+tJgOsdItzPgpQgAIUoMDwBRhgDd+QFShAAQpQYIQIMMDy3+iwBFjRpugoyXdLRbDI/y72OeIFCC5uLGl5NtVvFNznSgK8oHJx5dRInlwJ2MsAFAZYenspWTvWnXjEdRXXbQm+9t4rMsBKtzjnowAFKEABCgxfgAHW8A1ZgQIUoAAFRogAAyz/jQ5NgHVrdLJJuN+HxTz/u9jriAEIvmG2FrTXz68P7WHtQ92z99ZGC1uripkA8oZaZ0/jXNeetbii7cGg6+6rHgOsfQnx71OAAhSgAAXCJ8AAK3w94YooQAEKUCCkAgyw/DcmLAHWgmWVM+Ku7YDKmf53sZcRgqdUdF7TnNanAq0blmLeo5cd5WdZkR8D+AgUgf52VMENTSUt30j3dhlgpVuc81GAAhSgAAWGLxDoj5DhL4cVKEABClCAAuEVYIDlvzdhCbCi7dHDjbj3QXGE/13sbYTeZNReW1/WvjrYuuGpdtWS2cVbbcHXAf0mgHEBr+ypxpKWv0/3ofcMsALuIstRgAIUoAAF0iDAACsNyJyCAhSgAAVyQ4ABlv8+hiXAqllSeaxr7e8FUux/F3sYIZIA9NINRV1tnbM6BwKrG8JC89orPwrBj1X1M0Cgd2H1SU/v/g01t25K57YZYKVTm3NRgAIUoAAFghFggBWMI6tQgAIUoMAIEGCA5b/JoQiwFFLVWv5RiciTAT8Ct1FV5jaVNd/hXya7RtQur81f2/POP6nolVCdEOTq8xw5feHs5t8EWXNftRhg7UuIf58CFKAABSgQPgEGWOHrCVdEAQpQgAIhFWCA5b8xYQiwZi6f6UzpHXO6Vfm1/x3sdcQKEa1pKGm9N+C6oSxX0xH9hMK9XhUnB7tAubyxtPmmYGvuvRoDrHRqcy4KUIACFKBAMAIMsIJxZBUKUIACFBgBAgyw/Dc5DAHWGbVnRI475PB/sIJAgyaFvAzFpU1lzQ/4l8m+EeUt5WMKHNyokEsAFAS1AzHS2DCnOei3Q+51eQywguoe61CAAhSgAAXSJ8AAK33WnIkCFKAABbJcgAGW/waGIcCqra2NrD5k1WdF9Jf+d7DXEa8a6Pz60tb7A64b2nLVHRVVAL4DxYygFinQhxpKW4N9O+Q+FscAK6jusQ4FKEABClAgfQIMsNJnzZkoQAEKUCDLBRhg+W9gGAKswUcIe8Z8xkJ+5X8Hex2xWqBVDaWtPw+4bmjL1bTN/YgV2wTg74NapAjeaChpOSyoesnUYYCVjBKvoQAFKEABCoRLgAFWuPrB1VCAAhSgQIgFGGD5b04YAqza2lqz/tCVn3CBR/zvYM8jBNKvKtUbit9b2jmr0w2ydlhrXXHDFUU9E7qWieB8AE4g6xTZmjelaPLCcxb2B1IviSIMsJJA4iUUoAAFKECBkAkwwApZQ7gcClCAAhQIrwADLP+9CUOABUDmtpWeYMQ8I5BAf/uo4AZ3QK5rntu8xr9Odo6oaq+oE5EFgb2NUNHvmPgBi0qWbEiXCAOsdElzHgpQgAIUoEBwAoH+iAtuWaxEAQpQgAIUCJ8AAyz/PQlJgIVoW/QYI4nfATLW/y72PEKBlwHMbSpp+Q0EGmTtsNaq7ig7F9b8BwRBPfb31tQ3ZhxeV1eXSNeeGWClS5rzUIACFKAABYITYIAVnCUrUYACFKBAjgswwPLf4LAEWPNayg5TI/dA5Gj/u9hbgKUqkDugeVc1ljWuCLJ2WGtdccPMop6JY2MCfBlA4TDXaRVa1lTaumSYdXwNZ4Dli4sXU4ACFKAABUIhwAArFG3gIihAAQpQIBsEGGD571JYAqzKZZUzIgm0AnqW/13se4RCfpFw9Mqugq43RsJ5WFctuap4q3SVwbpnw2oxjNk30i5XCLBaXcQay5t/7XvwMAcwwBomIIdTgAIUoAAFMiDAACsD6JySAhSgAAWyU4ABlv++hSXAmt8xZ5KLvGuguNT/LpIdoasg8oN+196holvaS9v7R8pjhckKheU6Blhh6QTXQQEKUIACFEhegAFW8la8kgIUoAAFRrgAAyz/X4CwBFjRpugoyU/MESP1UKT494++KCLt1uh9TsKuQfGoreuwrnck3Jnl/xuSmREMsDLjzlkpQAEKUIACwxFI8Q+44SyNYylAAQpQgALhEmCA5b8fYQmwVFVq2ud+Qo3eDUWgB7nvUUXQJYpHrGMedaw8nbB4FxFsHqu9XcWvHdZbV1dn/YtyRBACDLCCUGQNClCAAhSgQHoFGGCl15uzUYACFKBAFgswwPLfvLAEWN7K57WUH60R0wTVT/nfyTBHCLYCeFFVnhPgj7Du6yLOekTsJknYzYmB/K5YVawXGBlvMhym5rCHM8AaNiELUIACFKAABdIuwAAr7eSckAIUoAAFslWAAZb/zoUpwKporpiYH8HlCvkOoP5PHfe//b2M0F5AVkLkJbX6moGugCOrjMFGm5D3rCa6pM/d3FfodLWXtfcFOjWLgQEWvwQUoAAFKECB7BNggJV9PeOKKUABClAgQwIMsPzDhynAmrl8pjO5d8xnVaUZwP7+d5PyET0AVnl/qWKNCN4RlXdFsAZGN6nIe7DYbOK6Oc9xN68q7t7Cc7WG1hMGWENz4ygKUIACFKBAJgUYYGVSn3NTgAIUoEBWCTDA8t+uMAVY3uorl1Qe6lj9vgCX+N9NRkZ452RtgWDd+29QXC/ABlVsFJENELtOXdkgEWxUyAZRrNeiyAa7yW6KVcW8MIyfPQgwwOJXgwIUoAAFKJB9Agywsq9nXDEFKEABCmRIgAGWf/iwBVgLblpQMDCud6aoXgdguv8dhWpEHNAuEdmkKpsEukEhm6C6CYJNorLeirsGMGs14qy1vXatsWZjrCoWD9UuMrAYBlgZQOeUFKAABShAgWEKMMAaJiCHU4ACFKDAyBFggOW/12ELsLwdeHdhRax+D8AcABk+C8u/aZIjBiDoguI9AJshulkg7w3evQWstqqr4Ji3jGLl2CLz5k9mxTYnWTcnLmOAlRNt5CYoQAEKUGCECTDAGmEN53YpQAEKUGDoAgyw/NuFMcCqfag2su7tlWdbxQ+h+LD/XWX1CBdAj3fnFiBeaNUl8EIuWQXoazB4VRzziqOFry+8ZGFXVu90L4tngJWrneW+KEABClAglwUYYOVyd7k3ClCAAhQIVIABln/OMAZY3i4WLLt4bMItuFQVVwIyyf/Ocm5EPwRboLp18MwtDD6S+BqkrTCaAAAgAElEQVQEf4C1zxpjn180Z8lGCDQXds4AKxe6yD1QgAIUoMBIE2CANdI6zv1SgAIUoMCQBRhg+acLa4Dl7aSmtexAK+YaCC4CUOh/dzk9wguqvFBrKyy6VbDJAH9Swf8mRB41vebVbD5LiwFWTn93uTkKUIACFMhRAQZYOdpYbosCFKAABYIXYIDl3zTMAZaqyvylc4+x1l4HyOcARPzvcMSMUAXiAvQC6BXBq1bxa0fN3VNW7P90XV2d97bErPkwwMqaVnGhFKAABShAgb8IMMDil4ECFKAABSiQpAADrCShdroszAGWt0wvxJrXUnm8RvQmgZwOwPG/yxE5wgusXEATqvKyiZgl/QPuf7ZWtL6TDRoMsLKhS1wjBShAAQpQ4IMCDLD4jaAABShAAQokKcAAK0moLAqwdix1XkvZYdYxDSI4A4p8/zvlCIj2QswdRqT++RmvPPnwGQ+7YT0ziwEWv68UoAAFKECB7BNggJV9PeOKKUABClAgQwIMsPzDh/0OrJ13dEVzxcTeCP5dgAtUMA4K/k7y33LvvrZeiDwk0JsjTvFjq/NXd3fO6vTefhiaDwOs0LSCC6EABShAAQokLcAfZklT8UIKUIACFBjpAgyw/H8DsinA8nYXbYrmmUK3CoqvK3CggHdj+e/6X0Z0AfJLKGJ5eUXPTHxl4tawnJXFAGsYXeVQClCAAhSgQIYEGGBlCJ7TUoACFKBA9gkwwPLfs2wLsHbs8NK20g/F4XxXBKcA2J9nY/nv/V9HyFsQtBrB8imFm1+rm9U5MJxqQYxlgBWEImtQgAIUoAAF0ivAACu93pyNAhSgAAWyWIABlv/mZWuA5e105vKZ+RN7Rl8ImItF8HcADoDyTYX+vwWDIwYUeMAADf2uPtpa0bpliHUCGcYAKxBGFqEABShAAQqkVYABVlq5ORkFKEABCmSzAAMs/93L5gBr+25lfsf8iRZ95wI4W1VPAHAwIEX+NTgCiucVujBiEp2LSpZs9A7MyoQKA6xMqHNOClCAAhSgwPAEGGANz4+jKUABClBgBAkwwPLf7BwIsAY3rapyWedlk93u3k+6Yj8pkI8AOAbAFD5e6Pt7sdqKLsxDomlRyZINvkcHMIABVgCILEEBClCAAhRIswADrDSDczoKUIACFMheAQZY/nuXKwHWzjuvWV4zGt3xY62xJ0Fxgogcp2qPBWQyAONfaeSNUGCjI/LTLdJ/w9I5S7vTLcAAK93inI8CFKAABSgwfAEGWMM3ZAUKUIACFBghAgyw/Dc6FwOsHQreXVnlbeWT81WOkDw5AqpHAjhaVI5S4CgAo/yLjagR3t1XP5r6xoz/SPfbCRlgjajvGTdLAQpQgAI5IsAAK0cayW1QgAIUoEDqBRhg+TfO5QBrV43ylvIxRRFnumt1f0APtNDDHMccplaPAvQw3qG12+/POxBT1Viy+G7/366hj2CANXQ7jqQABShAAQpkSoABVqbkOS8FKEABCmSdAAMs/y0bSQHWB3QUEo1Fx5qxZoL0JyYJ7KSElemOwcEWcgighxjgYAX2B1DoXzaXRsgzVswXYyWxt9K1KwZY6ZLmPBSgAAUoQIHgBBhgBWfJShSgAAUokOMCDLD8N3jEBlh/SyUza2fmTZ6aVxwfO6o4T20xXDMaxh2tVqYCcoAIZih0hkL2h8p+ojpVRccKJNd/ryVEpKF+zuLLRSQtbyVkgOX/n2WOoAAFKEABCmRaINd/EGXal/NTgAIUoEAOCTDA8t9MBlj7MNt2p1YkkogUyOitBXFTmJ9n3PzEgJtvJS9fTGK0JDBNHDMN0GnvBz1TVWXb/6+YpsBUAEUAsvs3nWAlHHy18ZKWx/x/y/yPYIDl34wjKEABClCAApkWyO4fO5nW4/wUoAAFKDCiBBhg+W83Ayz/ZjuPUIVUxaKRgfwBZ7LjOv1mvNPT1xMZZazjijpOXiQy0G8nwch0URyMCA6DDp63dYgoDlXBRGj4wy0FBkTws8Y5LSUQpPwuLAZYw/tecjQFKEABClAgEwIMsDKhzjkpQAEKUCArBRhg+W8bAyz/Zr5HKKT2mlrvN515/vjnTXF3sZlQPEESA2vz+hPFUwD3GGPkGKgep6ofEZGjoBjte57UD3jdqLmwvmzxs6meigFWqoVZnwIUoAAFKBC8AAOs4E1ZkQIUoAAFclSAAZb/xjLA8m+W6hHRpuioSL4eBdGPWtFTofgkgEO8AGz7o4je/83EZzNEb2wsaa1L9eQMsFItzPoUoAAFKECB4AUYYAVvyooUoAAFKJCjAgyw/DeWAZZ/s0yMqF5efYDpTXzCQj8Di9MBTPPejqii+Wk8RN4q8Kj2O5+PVcV6UunAACuVuqxNAQpQgAIUSI0AA6zUuLIqBShAAQrkoAADLP9NZYDl3yzTI65YfkVRb/emkyHOFwCcAWAGgHEA8lO/NnkR0MrG0tQe5s4AK/Wd5AwUoAAFKECBoAUYYAUtynoUoAAFKJCzAgyw/LeWAZZ/szCNWLC8bEqi1/lHBb4E1f+HbW89TGWQtVqgP2wobV2USgcGWKnUZW0KUIACFKBAagQYYKXGlVUpQAEKUCAHBRhg+W8qAyz/ZmEc8fW20vG9EjlbYC9SyKkCTNh+XlbQy+2Bor2xrOVSIHVvI2SAFXTbWI8CFKAABSiQegEGWKk35gwUoAAFKJAjAgyw/Dcy4wGWQqK3RSchjlH+Vw/k5ycSW/vsxvay9r6hjM+1MfNuKTtME04FVGcDOGD7we9BbtMK8MvCUWO/cuOsG3uDLLxzLQZYqZJlXQpQgAIUoEDqBBhgpc6WlSlAAQpQIMcEGGD5b2gmA6wFNy0oGBi39TxY83EjMk5Vff/uEUG/Cp5X6/6qqaz9Ff8CuTci2hQd5+QnoipyJQRTofDtug+VR6FuSWNZ+4pU6THASpUs61KAAhSgAAVSJxD0D47UrZSVKUABClCAAhkWYIDlvwGZDLCqOiq/bKDXq+Jg/yvfeYR2iZgOt898P1YVWz+8WrkxesGyi8fGE0U/EMFcVS0KeFdPI4GaxsqWJwOu+5dyDLBSJcu6FKAABShAgdQJMMBKnS0rU4ACFKBAjgkwwPLf0EwGWNUd5Y9B5VT/q97tiNfUyGVNc5rvCahe1peZ11J+tEbkbgCHB3kXlgJ/dqBX1pe23p8qJAZYqZJlXQpQgAIUoEDqBBhgpc6WlSlAAQpQIMcEGGD5b2hGA6z2io3Ydth4EJ8NAvx7Q2nLtUEUy4Ua3iOZ1R0VLQKZA8AJcE+vAPrtxtLW2wOs+YFSDLBSJcu6FKAABShAgdQJMMBKnS0rU4ACFKBAjgkwwPLf0MwGWJXrAJ3sf9W7HeEd4r6ssbRlbkD1cqJM9ZLyUliJAcgLakMCvAGR7zWUNC8LquaudRhgpUqWdSlAAQpQgAKpE2CAlTpbVqYABShAgRwTYIDlv6GZDbAq3gJwoP9V73aEd1T5vWPH61evO791S0A1s75MZVvpJyPiPACgIKjNiOBNqNQ1lDa3BVWTAVaqJFmXAhSgAAUokD4BBljps+ZMFKAABSiQ5QIMsPw3MJMBVlV7xUsCHOV/1Xsaob+HSFVjScsfgquZ3ZUubYt+KAH395DgAixA3oJoXWNJS2uqdHgHVqpkWZcCFKAABSiQOgEGWKmzZWUKUIACFMgxAQZY/huayQBrXkflY6oa1CHu3uZfF4PvNsxpudW/RG6OmNdR+WG1+mSwARZWiOCahpKWjlSpMcBKlSzrUoACFKAABVInwAArdbasTAEKUIACOSbAAMt/QzMZYFV1VNwuii/5X/XuRwjQDaChobTlnwBoUHWzuU5Na9mp1phfB/kIoRcUKux3mkrbbkuVDQOsVMmyLgUoQAEKUCB1AgywUmfLyhSgAAUokGMCDLD8NzSTAda8jsrrVPWb/le95xEK/FL7B2piVUu987VG/Keqo/J8UV0OID84DH3RGPmn+jktvwiu5gcrMcBKlSzrUoACFKAABVInwAArdbasTAEKUIACOSbAAMt/QzMaYC2tqFQXi/2vei8jBC+JxXcbylr+i3dhAdUd5d+Cyg8ARAJzFjynisuaSlseDazmLoUYYKVKlnUpQAEKUIACqRNggJU6W1amAAUoQIEcE2CA5b+hmQywoq1lJxtjfut/1XsdEVfF4vwtfd9eeNktXQHXzqpyqirVHZU/E+BCACaoxSvwhBuXiua5zS8EVXPXOgywUiXLuhSgAAUoQIHUCTDASp0tK1OAAhSgQI4JMMDy39BMBljlLeVj8h2zGtBR/le+5xEKfUaM889TX9v/gbq6Ohtk7WyqtWD5ginxnp6nABwU2LoFqooHTF7+VxsubtgUWN1dCjHASpUs61KAAhSgAAVSJ8AAK3W2rEwBClCAAjkmwADLf0MzGWB5q63uqHwMwb6J0Cs7oIpmB+4P6svaV/tXyY0RVe2VZQL9KYCxAe5oQCD/2VDSXApJ3UH5DLAC7BhLUYACFKAABdIkwAArTdCchgIUoAAFsl+AAZb/HmY6wKpqL/uBwHzH/8r3OeJ1qP7ADkSWx6piPfu8OscuqF5SvR9sfBkEn4YGeP4VsAGQGxtLm3+USjIGWKnUZW0KUIACFKBAagQYYKXGlVUpQAEKUCAHBRhg+W9qpgOs6uaK0zSijwjE8b/6vY8QlUfE2Lp1RVse65zVORB0/bDWW3DTgoL42J4aAP8CYFLA63zdGHw9lW8g9NbLACvgrrEcBShAAQpQIA0CDLDSgMwpKEABClAgNwQYYPnvY6YDrG3nYMnvABzrf/X7HBGHyD2OmGvjvXgmVhWL73NEll8wc/lMZ0rf2HOs4l+hOC7Iw9u3v9Xx98baL9eXt72dSioGWKnUZW0KUIACFKBAagQYYKXGlVUpQAEKUCAHBRhg+W9qpgOs2odqI2tWrKqD6D/7X31SI/oBecCIvcHZXPz4wssW9ic1Kgsvql0+M39137h/EKvfAnAygPxAtyHSK4pb14/aXNU5q9MNtPYuxRhgpVKXtSlAAQpQgAKpEWCAlRpXVqUABShAgRwUYIDlv6mZDrCgkKrW8o+KIw8CGOd/B0mNSAB4SiBtka7e/1x42S1dSY3Koouiy6PjTHfii2KkWhUfAVCQguWvVitfbypv/lkKan+gJAOsVAuzPgUoQAEKUCB4AQZYwZuyIgUoQAEK5KgAAyz/jc14gAXg622l4/tNpFFVv+J/B8mPEMGbUHnEQFtuLmn+jYho8qPDeaX3yODE/jF/hwRKReQ8ETlYVSMpWK2F4Kk81567sLxtXQrqM8BKNSrrU4ACFKAABVIswAArxcAsTwEKUIACuSPAAMt/L8MQYHmPEa5eseqzIugEdJT/Xfga0QfoCog8DpFbphYe8L91s+qy7oB3L7iavGXMEWrwVYicA+gxgIz1JeHjYgG61ci1jbOb/xWClAd/vAPLR3N4KQUoQAEKUCAkAgywQtIILoMCFKAABcIvwADLf4/CEGB5q760pXz/eERuEEVK78LaISQivQpdK5BXYHG/QB5IDMifw37Qe82imtHxwr4zHUfOA3CaANMV8IIr47/7yY9Q4I0Baz/VluLD23esiAFW8r3hlRSgAAUoQIGwCDDACksnuA4KUIACFAi9AAMs/y0KS4B1Ru0ZkaMOPexMA7kVwCT/OxnyCO8w8l4AWwFZoaq/E+C3Yu2TbiLv7UwHWgtuWlAwUNx9jOTh70XlDFU5GdAJUBTDIN87Q2zIO092oEhCgNr6OYuvTddjlwywkm0Or6MABShAAQqERyD1P0rCs1euhAIUoAAFKDAsAQZY/vnCEmB5K4/eGp0s/e5VIrja/06GP0KhKhAv0Nr+l26Cd4cW8IIKXnKsvJ1w3FWRPLxzQlfe6qqqWHz4swJn33R2wfTi6ZMiotMg5iDjyOFi7REKOR4ixw6GVVAHwI6/gpjWT43XzKiCj9TPqt/qZ9BwrmWANRw9jqUABShAAQpkRoABVmbcOSsFKEABCmShAAMs/00LU4Dlrb66o+LE9+/AWgjFaf53k9YRCtEtgHRB0QXBZlX0iGBAAC/Y8t58GFcvDFPNF3gnxkuBiDqqGK3AGPH+EvHevDg+RQevBwFiNeF+vqmy/b4giiVbgwFWslK8jgIUoAAFKBAeAQZY4ekFV0IBClCAAiEXYIDlv0FhC7CiTdG8SKH9klW9EcB0/zviiAAFXAiaG0taqgOsmVQpBlhJMfEiClCAAhSgQKgEGGCFqh1cDAUoQAEKhFmAAZb/7oQtwPJ2MK9+3gQdFa8R6FUKjPe/K44IQMBC9LdFRXLejbNaNgZQz1cJBli+uHgxBShAAQpQIBQCDLBC0QYuggIUoAAFskGAAZb/LoUxwPJ2Ud1WegiM800oZgMY439nHDFkAYFC8YIaLWma3fo0vP+c5g8DrDSDczoKUIACFKBAAAIMsAJAZAkKUIACFBgZAgyw/Pc5rAGWt5P57XOPd8VeDcUFDLH893bIIwQvqStXa9zck6m3MDLAGnL3OJACFKAABSiQMQEGWBmj58QUoAAFKJBtAgyw/HcszAGWt5uatrkfscZeCdXzARnrf4cckbTA9juvAP1X2x+5M1YV60l6bMAXMsAKGJTlKEABClCAAmkQYICVBmROQQEKUIACuSHAAMt/H8MeYHk7unRZ6YcSrjMfipkAJvrfJUckIWBV5VkRe8OAi5+3VrRuSWJMyi5hgJUyWhamAAUoQAEKpEyAAVbKaFmYAhSgAAVyTYABlv+OZkOA5e1qXkvZYcgzZaooVdUDBMLfSP7bvacRAwI8BsVN0lPwYP38+q3BlR5aJQZYQ3PjKApQgAIUoEAmBfjjLJP6nJsCFKAABbJKgAGW/3ZlS4Dl7Sx6a3SyibtfEEWNhZ7EEMt/v3czYhMg9yg01q/uk+1l7X2BVB1mEQZYwwTkcApQgAIUoEAGBBhgZQCdU1KAAhSgQHYKMMDy37dsCrC83S24aUFBYvTWU9SYSxS4RIBC/7vmCAAWwGsCLIGrnS+89fprD9c9nAiLDAOssHSC66AABShAAQokL8AAK3krXkkBClCAAiNcgAGW/y9AtgVYO3YY7YgeJJo4Q0SqAZwCBX8zJdl+BbpF8SCMabZ58tvYRbH1SQ5N22UMsNJGzYkoQAEKUIACgQnwx1hglCxEAQpQgAK5LsAAy3+HszXA8nY6eDfWuN6jAXuudzYWIEf6FxhRI1yoPC+w9bB6//oxW1d2zuocCKMAA6wwdoVrogAFKEABCuxdgAEWvyEUoAAFKECBJAUYYCUJtdNl2RxgDW5DIQtuuXiMGx91mIVeANHZAA7zL5HzI95WoCHu6h3xvPjKpXOWdod5xwywwtwdro0CFKAABSiwewEGWPxmUIACFKAABZIUYICVJFQuBVjb91JbW2u6D3+9qFcLD0hY91wRUwrocQAc/yo5NELwkhE0OUY6+7vNxlhVrHcw9gv5hwFWyBvE5VGAAhSgAAV2I8AAi18LClCAAhSgQJICDLCShMrBAGunLUntQ7XOuy+/W6yFiVONSpkoPgvBOP86WTuiD4Jfq2vbNJ73wPSjpnfXfbouNAe0J6PKACsZJV5DAQpQgAIUCJcAA6xw9YOroQAFKECBEAswwPLfnKx/hDCJLUebopOdwvjnFM7XoPpJAEUADASS7Ye/K1QFYgHxzrL6k0LvdBx0rivoeqNzVqebBE8oL2GAFcq2cFEUoAAFKECBvQowwOIXhAIUoAAFKJCkAAOsJKF2umwkBFg7q1y9/OpxXT3rPqXAZwA5RYBDFcgHkOf9pUBEENo3GnqP/iUEGFDBABSbIXhOrf6PIvLA9BXTX62ry647rfb0jWWA5f+fZY6gAAUoQAEKZFqAAVamO8D5KUABClAgawQYYPlv1UgLsHYW8s7N2njkqv0HBvBRY/RDEPydKo4AMAGCfCgKsFO4BUEkTXdsWd0eVAHoF6DfAv0G2KzQF2DM0xA8XVSgf7xxVstG/10P/wgGWOHvEVdIAQpQgAIU2FWAARa/ExSgAAUoQIEkBRhgJQm102UjOcDandaCexYUxNfEp4vjHvz/27v36KqqOw/g398+N09CeL8EQWF8Vx0fY1vrC9/aasWaIJVHEiAk0TijtjOu1bXm9lrbznQ6xYoSEgkEBNGkWh9VUVvR0aoVrY+OtFVQeT8lPAJJ7r1n/8YT7IydIuRx7s25937PWvzR1bN/+7c/+7C8/NZ+QO1REBypihFqMRyiQwWSCz2wWksEIW/FFgSOKhwDGPW2JnoruESkY3ffgQKY6fhf2nF4uoXAhaq37c87lyoOkRgUMUC9bYBRBfYKZAuMrIfox2Ltx9GYfLCnMLW3BXbl62QBqytafJcCFKAABSgQDAEWsIIxD8yCAhSgAAVSQKCqYcYkqzobgmE+pBuDwfR5U+vv9yFWYEOwgNX5qSlqLHJG7Snsp05WYRRufxFbCCMFrrV5cJxcqJsvMNlQa1QlBIh3ztZAUc2GiIp4xSmNWkU7gDZHpMVa2auO3WPisssY2ZmdZ3cUvrdmTyTyQkodut55xc69WdEwoxLQuZ17+9BvCeQ9ANNqSua/6Uc8xqAABShAAQpQ4OACLGDxy6AABShAAQp0UmDWohkTRfUuAMM72eRQr8WMmO/OnXbfz32IFdgQLGAFdmoyOrGqxTO+Z63e6QuC4L+NNVPmlt73ti/xGIQCFKAABShAgYMKsIDFD4MCFKAABSjQSYFZi6dfJRbzABzRySaHes1C5LEsp7VkzuSle3yIF8gQLGAFcloyOqmy+rK+2Y55BNCLfYJ416ozsa607k8+xWMYClCAAhSgAAUOIsACFj8LClCAAhSgQCcFqhaVnWPVLAV0dCebHO61ZgD/ZsV5sG5a3brDvZyK/z8LWKk4a+mb8031ZUfEHZkMIAwg35eRCt4w1r1qbmnDFl/iMQgFKEABClCAAgcVYAGLHwYFKEABClCgkwI3LZ5xtKv67Gc3yXWy1SFf8w7d3iHQp1WcR3NtbMVdpQ27/AgclBgsYAVlJjI7j+8sntKnRXPHA3YCFFcBGOKTiBXgxaH5ey6PFDd5h+TzoQAFKEABClAgQQIsYCUIlmEpQAEKUCD9BLwb5OLb9r1kgTO9a+B8HKH3D9/VEDyn0Id25u19sylN/jHMApaPXwlDdVnggvAFoePHjjsdqsWAXALB8dCOmxv9etpEdFnNtAVlfgVkHApQgAIUoAAFDi7g549vGlOAAhSgAAXSXqCiYfpCAJMA5CRgsHvh3Whm8CuJucvmli34SES8VVop+7CAlbJTl/KJVyysOAoSKwZwNYBTICiAwu/fvjthcOe8qfWzUx6MA6AABShAAQoEXMDv/4gHfLhMjwIUoAAFKNAzgYqF08sg8P6xWtizSF/Y2kKwUxXviGKR7eM8XldctztBfSU8LAtYCSdmB/9PoHpJdWHUbb0CqiUCnAHFIAhMIqBEsBaOXF8zef5riYjPmBSgAAUoQAEK/J8AC1j8GihAAQpQgAJdEKhaVnqkbTfeP1b9uInwi3sWxKH4RAQvWIR+rm36Rt2sulgXUg3EqyxgBWIaMiKJ8tryLJPrnmZUbrbAhYAOBpCVsMErvJtEf5u3s+9ls2+d3ZqwfhiYAhSgAAUoQIEOARaw+CFQgAIUoAAFuiAQDofNtrEb71fViQCcLjTt7qve+Vg7YXRpvN38x/yZ87d2N1BvtGMBqzfUM65PqVpYMszCVENkigLDBL6ec3VQUAX2CXDHvJL6n2ScOAdMAQpQgAIU6AUBFrB6AZ1dUoACFKBAagtULph5vjXuswLx8zDoQ6MI4gJsBHDn0A9HLYhEIjYVFCsXlX1XVX70ad6hHueraBeDxppp9VN7HIsB0kKgqLHIGdhSUCyOuQOKo3z5zjotoxtDLs66Z/qCTZ1uwhcpQAEKUIACFOi2AAtY3aZjQwpQgAIUyGSBiobpvwZwUW8YCOQ1I86tgz8cvjISibgAAnvQe0XDjDsh+Beo9ryABbQJZFlNyXze+NYbH16A+gyHLwjtGHPsKa7jzobivKSnJoirxX/WltbfnvS+2SEFKEABClAgQwVYwMrQieewKUABClCgZwIVi6afBcWLAHJ7Fql7rUWkVaGLQ9a5K6u5ee3sW5vagljIqmgoewAqE/05RFtbIbJ43rT6iu6psVWqC5QsLMnNzsse6bTFb1HITCRhq+DBzWRdPIazUm1Lb6rPP/OnAAUoQIHMFmABK7Pnn6OnAAUoQIEeCMxqmDFbBDf5tLqoy5koVAWy1gD3GiMPt7jxzQ2lDV4hKxBPuLEoe+v+wjchOAnqw7mbghYF6mqn1d8WiAEyiaQJVN9dndPer32YwJ1ggH9UxRggMTcLHnZQIq2i7o01JQsXHvZdvkABClCAAhSggG8CLGD5RslAFKAABSiQaQK3PVA+eF+7fQyiX+3li1HaAfwOjtbF28yLxpqtQbix8LNVak8BGOTTt7EbIrPnTZsf8SkewwRcILwiHNq67qNh0JyvKWyFKM6GIKcX046L4MEdv9pT0tTU5G3f5UMBClCAAhSgQJIEWMBKEjS7oQAFKECB9BPwbiTcPHb92aK4TyDHB2CEnwB4wigectS+OXDt6E9667B3z2br2PU/hOIfAcnzyeaTT9dxfX/etPp7fIrHMAEV6Pi7ddzmgaFo/HQXuF6AqwHxqxDa3VFbqL6UlWUmz5k8f0N3g7AdBShAAQpQgALdE2ABq3tubEUBClCAAhToEPC2NkULW64VGG9V0DEBYPEOdF8twC8UeLLARN/+6dT79yU7r5mLZh4bUttkoScLxK/fG1vE4OaaqfVNyR4P+0ueQNW9RQVuQd+TjcqVKiiCdvy9MsnL4KA9ebd+/s6xzi33lNa+LiKBvTihl53YPQUoQAEKUCBhAn79oExYggxMAQpQgAIUCII2y7wAABqTSURBVLpA1b1VBbagvVgVt4rgRF/Oe+rpoBUxCF5X0Ufg6vKdBS1/bipOzpan8ifK82WH+68iqARQ2NOhfK79Otexk+6bsvAVH2MyVEAEvO2C29dvPMZavRyQCVA9q5e3C/5FxhWRl63qD7Td+a8gbM8NyJQxDQpQgAIUoEBSBVjASio3O6MABShAgXQVKKsv6xsycpWB3giRswCEAjLW3QqsAORxMaEn502dty2ReTU2Fjm/ae03QaA/hmKcn2eDCeT9dteOXzB9waZEjoGxky9QsbhiKNzolRBzNaAXABiQ/CwO2uN+AZ6FMXcNzd31aqS4KRqQvJgGBShAAQpQIOMEWMDKuCnngClAAQpQIFEC5bXl+ZLjflUg0yG4HKpB+Ue4N+T1EDwvqo8MVftsJAG3FYY1bLYtXnehqvlXAF8BkOWjtRXBK0NHjxofGR+J+xiXoXpRoOOmytb+l0LttyAYjwO3Cwbl2aCQX8C1DRoPreLKq6BMC/OgAAUoQIFMFWABK1NnnuOmAAUoQIGECHjboLZ9uH4cQs7XVfUGQE/2uZDTk7wtBKug8rw17gMj1oxe6dch7+W15VmSZy8Rq7eKyNmq6tfB7QfGq2gX0UU1JQtm9QSAbYMhoKpS9cDM021Up4jIhYCeCMAJRnbYD+BVhV0q4j477MOjN/v19yQg42MaFKAABShAgZQUYAErJaeNSVOAAhSgQNAFyhvL+4X2xk+2jlwLYCIEIwJxNtYBuP0i+AMULxnRR8zuPr+fc/Oc9u6aViyeMlTd7OvEoBQKr2CX091Yh2i3RwS31Uyrn5+A2AyZRIHqJTNGxVxMBvRqKE4FkJ/E7g/VlQvIBwCWuCpPSlTer5tV5xWz+FCAAhSgAAUoEAABFrACMAlMgQIUoAAF0lMgHA6bjaM2DsnKltNVdSZgvcOp/V2Z1H06/bQgtFeBdbB4V4w8La774pC1ozd2drVJeW1RP5Pb90JVmSTAOQCGJmoVjQDbrbUX1JYtXNX9IbNlbwpUNVYVaFv71WpRAsFpqjrIxxsqezQ0BXYK8NCnN4kulazsVTXfrtkFAW8a7JEqG1OAAhSgAAX8FWABy19PRqMABShAAQr8jYC3vS4eig/JNnIRBP8M4CQ/DzfvEbn3j3SFdzD1LgV2COSPIvZ1a+UPQGhNP9tvy0/KftLi/WP+O4un9GnV3JFWcTxEv6yKcwU6ToFBCVp19Zeh6adnir1m25zzeQ5Rj2a7VxoXNRY5g/YXfgUiN0JxHqDDAnTJQQwiL7qQn0mWrGwONTcn67bOXpkMdkoBClCAAhRIYQEWsFJ48pg6BShAAQqklkC4MZy9uX3zoJDaMlX9jir6B2oEB4pZcQjaDxS1NA6It63KHshTDaAOIN7h7N42Qe9PMs4tigvwg5qS+jsC5cVkDitQvqh8tKNuBQTXq2IkgOzDNkrSCyrY4Ih8XzTn0cGjB+/m5QBJgmc3FKAABShAgW4KsIDVTTg2owAFKEABCnRXwDvofevHW0fBce+Aa2+AwHQ3Vka0U7Q7xpxy77T73s+I8abBIL3tgtjf9k0L/AsgJ0DgBOYMOEGbQOcaxH+0La91F1dcpcEHxyFQgAIUoEBGCLCAlRHTzEFSgAIUoEAQBTpu7su2F4jgDhGcqd7qJm+zHJ+/EhCD5TVT668gS/AFvFWG26ObTrWu/T4UlwOBKc5651m5AjyjBrfPm1L/Hs+4Cv73xAwpQAEKUIACnxfgj2R+DxSgAAUoQIFeFqhcWjlA4tGprqJKgNEQ5LCQdWBSRCQO1WtqSuqf7OVpYveHEKi+uzon3qdlpGaZm2AxE0BBQMC8wlUrBKtU7c+0Pesx3iwYkJlhGhSgAAUoQIEuCrCA1UUwvk4BClCAAhRIhIB3Y+HmozYfK7BVInoVgBEJPhg9EcNIRMxXh00bdU5EIp+dw5WILhizuwLeKkJr7LCsLFypsN52wbHdjeV/O22FyDpVPOSG5L75k+dv9A5y878fRqQABShAAQpQIBkCLGAlQ5l9UIACFKAABTopcMvPivJa+xecp8ZMN8DXVGQoVEOdbJ5Wrwmwzxgpvnfq/KfSamBpMJiOmwVb84aL5pyh6t4KkfMDNCzvAoJNEHneiq0bceToN3lAe4Bmh6lQgAIUoAAFuinAAlY34diMAhSgAAUokEiB0gWlQ3KNM0GB6xR6hqDjxsLMOey940ZEeXBY/siSSHEkmkhrxu6aQPkD5YMl6p4qgm9DURyg7YIugO0KvOaILHWcvGfnTJ6zp2uj49sUoAAFKEABCgRVgAWsoM4M86IABShAAQoAqLy/8ji1sWKoeoeYnwYgNyNgFH+GwaR5U+vf5mHbwZjxsvqyvnlZoRNdsV+H6xWv9OhA3KApUFW0iOhKETzhauiRuml164KhxiwoQAEKUIACFPBLgAUsvyQZhwIUoAAFKJAggfCKcGjbho1fVddeB5FLoDghQV0FI6xgh6h8r1XjixtKG9qCkVTmZtFxW2af2DESN5eJ4FpVOQPQvICIuBB526oudyC/HDpt5Fs8Ly0gM8M0KEABClCAAj4LsIDlMyjDUYACFKAABRIlUL3khsKYm3ORqLnm021SlwM6NFF99WLc/SKY52Y5P677dt2OXswj47v2LhbYOvajEYKsi1X1m4CcB2BQUGBEsFYtnrRZzmPN25pfarq1qTUouTEPClCAAhSgAAX8F2ABy39TRqQABShAAQokVKBqQemR1gldAugEqF4IID+hHSYveBSKZYrQD4d/PHxNJMKbB5NH/9c9VTVWFcT3t58v0AkCGQ/gqACdwbZbBcvh2l9GgecXli3c3ltO7JcCFKAABShAgeQJsICVPGv2RAEKUIACFPBNoGNb4bqNJ6raSwBMhLetS1L5kHdph+rDGtKfDF/94XuRyAtx37AYqNMC3u2CQ/b1P9mKTgbU+7aOA5DT6QCJfTEG4LcCuywu7gv3TV38Ac9HSyw4o1OAAhSgAAWCJMACVpBmg7lQgAIUoAAFuiYgZfVlBdmOnAKYqyF2IhRjuhai999WYB+gjXDxc42HVtXNqvMKFXySLFB6d+mQ3L5OiYpeC+BEAIVJTuELuxPBH1VkqVgsz925e9VsbhcMytQwDwpQgAIUoEDSBFjASho1O6IABShAAQokRsBbNVPQUjAw25hTBLgGgmsAjIQiBf47r9sAaTAO7lu1es3HL3DlVWI+kkNE7TikPcteK0YrAJwEYEjSk/iCDgXYropHxDHL0LLv3aFbj9nNraVBmR3mQQEKUIACFEiuQAr8sE0uCHujAAUoQAEKpKpAOHxBaMfY0f1ikvt3ovFvCWQSFCOBIBayxEJ0FYDZDmKPDf7w6GYWJpL/5d24oPTLcWNuE+AcAMMCdM5VGwxegmpNlqsvD1z7UTO3lSb/+2CPFKAABShAgSAJsIAVpNlgLhSgAAUoQAEfBLzb47aftD3fbWkdbYy5DsA0Ddoh3NCHQnDuNkNzV8+5ck67D8NmiC4IzFgyY1SWi5tVdSKAEQCyutA8ka9aAVYr5C6Tn/3LeHP8E24pTSQ3Y1OAAhSgAAVSR4AFrNSZK2ZKAQpQgAIU6KqAhFeEnZ0bd+bHsf8biKNSD6y06a0nKsAzCvz7Jx/tWdn0/aYYD+FO7lTc0nhLXlvrnmJAvquqxwaocOVB7BWRBhPT/9xWuGdDU3GTm1wd9kYBClCAAhSgQJAFWMAK8uwwNwpQgAIUoIDPAtX1s06NObEpInKtKkZ9tmXMJGiboQVgBbIXsE0qMm/etPq3fB4Swx1eQMrfKA85f7RfUWu/p4rxAsk+fLMkvCFQADFAXzbW3j63tGFlEnplFxSgAAUoQAEKpKAAC1gpOGlMmQIUoAAFKNBTgaLGoryB+/qcAzFXCuQcAcYoNOfAihwJAXA6fR6SwkIQBz77I4hCdQdEXrGC5aHcnKfnFs9t6WnObN9FAYWUNJTk9JGsca7amRBMBjCoi1ES+fp+QNdJyPxw6A0jH4hIxCt48qEABShAAQpQgAIHFWABix8GBShAAQpQIMMFqu++IsfNGzlWQ3qaGjlJVY8RdKzO6ucVtBQwAogCIoB2rJkxsKodq6vaAW2GYINVfOSI/MlxzDstsegHDaUNbRlO22vDLwoXZQ8eXTAKjnMFRG9UxQm9lsz/71ikFYpNEDwQy9O76ovrdwYmNyZCAQpQgAIUoEBgBVjACuzUMDEKUIACFKBA7wqU15bn52TF+rQ7WXlZ0FxrXG9tFVwnFA/ZWFRzclvcFreFh2z37jx9vndVleoF00dEjZxljFSo6sVyYDVdEB7vzLNNUKxwHGfOtpzmd3jOVRCmhTlQgAIUoAAFUkOABazUmCdmSQEKUIACFKAABQ4pULm0coATjZ0aN3o9FNd/toIuCGreFtOtonhDoUuiLp5eMH3B3iAkxhwoQAEKUIACFEgdARawUmeumCkFKEABClCAAhT4G4FbflaUt69/wSkhx7lCgamqenRQmBTYJcDbAB634jxcO7VuvRw4uJ0PBShAAQpQgAIU6JIAC1hd4uLLFKAABShAAQpQIBgCRY1FzsDowOMk7l4s0CIFzu70wfuJH4J3/tkfFVgOo4/szN37blNxUzTx3bIHClCAAhSgAAXSVYAFrHSdWY6LAhSgAAUoQIG0FahYNHWkavZFUP2mEVyogn5Q9P7vugM3Um5QyFNQfUyjzqt1s+p2p+1EcGAUoAAFKEABCiRNoPd/6CRtqOyIAhSgAAUoQIF0EKh+qjontn3/ibB6JoCYI87KWLu8nwmHyVcvqS6Mx/efq4JroLgYwJEIziHtLRB5ShWPuiG8NH/y/A3p8L1xDBSgAAUoQAEKBEOABaxgzAOzoAAFKEABClDgMALhcNhsHLdxTJZqsVq9AiLjoHAB/ZMVPAEn9Ejd5LotSMMzlspry7OQFTtZRK4XkcsAHAsgN0AfzWtidBEEK3bk7F3N2wUDNDNMhQIUoAAFKJAmAixgpclEchgUoAAFKECBdBYobyzvZ9rixVB4f06ByJDPbZnztq1tUsWrUGkYjvjzkdIG7wym1H8UUrG44gho9HpAJghwkgL9AzSw9SIyzzVm+Yh4dFXauAcImKlQgAIUoAAFKHBAgAUsfgkUoAAFKEABCgRWoKixKHtga7+rRbUMkFMAHfHFB5VLu4iuF9WnXLX31JY0rE7l1VjlteX5kmuvNMAMVXsaIIMDdEh7ixp9QGO4H31Df6gr5jlXgf1LxMQoQAEKUIACaSLAAlaaTCSHQQEKUIACFEgngaJwUfaAvyu80rioAnAyBIOhCHVmjArsE2CdiNbsyNtbm3K33ymkcv6MkzUL/wzoRQC8wlWnxt4Zn568o4ArIivU6t1uXF4fuWHk9kgkYnsSk20pQAEKUIACFKBAZwRYwOqMEt+hAAUoQAEKUCApAiULS/rnh8zV1pXpCnxJgH7dPKRcAbSo4B1xJTyvbP7zSRlADzvp2CrZam8HtASKgQCyexjSv+aCP0Pl55DQ47bNbsuEQ/P9w2MkClCAAhSgAAV6KsACVk8F2Z4CFKAABShAgR4JeIezbxmz5XiY+CQAkwD1btbLEkiPf6coVAXSItBlKvE75k1bvLFHySaocWNjo/N823Pfhmt/IEZGqmogVlx5w1VgJ1SWWiP37MrbtYYHtCfoI2BYClCAAhSgAAUOKdDjH4b0pQAFKEABClCAAl0R8ApWm4/Y7CAfgx3rXqqKKQJ8RYE+XYnTxXcVinUw+LHJy1k65L0h+wOw9U3CK8LO9g2bzrJWI1A93yvcdXFciXrdW8HWCuC3UPdHwz4e818B8ErUWBmXAhSgAAUoQIEUEGABKwUmiSlSgAIUoAAF0kRAqpdU941q65fh6lSBXgrI0CSPzbudcAWs/WlBKP67PmvGtvZCYUZKFpbk5MdDR2u2rVTIZCgGJNnh4N0JvEJfKwQfqOqcvib24E+n3r8vELkxCQpQgAIUoAAFMlqABayMnn4OngIUoAAFKJA8gVsab8nbt2/vTSJ6p/T+2U5bROR+G7dLNR76oG5WnbfayFt1lNCn+qnqHN3RekQcuAoWlYAeG5ybBQ/c4vjpofkPh6Jyz5yZ8zckFIPBKUABClCAAhSgQBcEWMDqAhZfpQAFKEABClCg+wJVjVUFdn/7HQrcGIACljcQ7/a8t2BxnzXOr9GOdYk6mDy8Ihz6ZMv6ofF2nCMi01VxHoDc7mv62tIF4J0N9opj7F33Tl34O1+jMxgFKEABClCAAhTwQYAFLB8QGYICFKAABShAgcMLHDisfd3xMOaHApwLYNDhWyX+DQH2qcjTCizJjeK1/htGbvdrW6Gqyoz6GQNCOXKGWC2CYgKAwYkfVSd7UGwV4C0x0hBvM48kqoDXyWz4GgUoQAEKUIACFPhCARaw+HFQgAIUoAAFKJA0Aa+ItXHcxjGO1RIDXK3A8UFZiaTABqPaaEUey9+5Z+XsW5u8bYXdfkoWluT2ceRU13WugNiJgHhjDcije6Dyjgoe13Znad2sui3J2EIZkMEzDQpQgAIUoAAFUlCABawUnDSmTAEKUIACFEh1gY7thG2xr3mrkhR6EYDRATkLSgF9AzAPWY0/W1fS8N/wDjbv4lNZX3acNbhUDL4Fla8BCHUxREJeVyAKYJURPOO6TiNi+ANXXSWEmkEpQAEKUIACFPBZgAUsn0EZjgIUoAAFKECBzgl42+sqF1ceYcS9xFp3AkTODcxtfJBWgf4akF+Kxp+eW9rgrVA67FO6oHRILsyVauQbUL0Egn6HbZScF6wI1lrV52DMY9km7+U5k+fsSU7X7IUCFKAABShAAQr0XIAFrJ4bMgIFKEABClCAAj0QKK8tz0J29HgjzhWfrg4qVuDkQBzy7q28UtkkwHKIfdhtC71YN6tu/8GGWl57Vb6TM3S8hUwQ6GUARvWAxO+mzQCeV5FHXQcvjPxg5Ca/zvjyO1HGowAFKEABClCAAl8kwAIWvw0KUIACFKAABQIhUL2kujAa3//3RvBNKK5XYASAIPxWiULwngiWx1238YiPx7z7lwJQWMNmy/3rTzcqExW4BIqTgrJdEEA7BL8H8IAR+c2Q3N1rIsVN3hZCPhSgAAUoQAEKUCDlBILwozDl0JgwBShAAQpQgAIJE5CqhVXDgPZ/sMB0GHwdGojzo1SA3RC8ZRXPibG/V6hjrPNlCC5UxakQFEADUXCzEKwHpEEUT0h+9p/nFs9tSdiMMTAFKEABClCAAhRIggALWElAZhcUoAAFKEABCnRNILwiHPpk/cYj4649H5DvQnBi1yIk5m0Riava3RBp7ihWCQbCoh8EJjE9djmqt+rqQRvX+W5fWVVfXL+zyxHYgAIUoAAFKEABCgRQgAWsAE4KU6IABShAAQpQ4IBAycKS3MLsnCNjcbcEqlUK9KfNFwgIXhWYH6g4bw5bM2wHz7nil0IBClCAAhSgQDoJsICVTrPJsVCAAhSgAAXSVKCsvqxvXghfsiq3K/B1AE6aDrU7w9qggh9nu7Zp4NrRzZFIJN6dIGxDAQpQgAIUoAAFgizAAlaQZ4e5UYACFKAABSjwvwKqKrOaZhVKq71KFN8D9PhM5lFgn3fOVTxL/2PN+2s2vhB5gYWrTP4gOHYKUIACFKBAmguwgJXmE8zhUYACFKAABdJRYPrS6WNCMf0nAaYAMgAIzBlUieZWADEFXjAqd7pR81rdrLpYojtlfApQgAIUoAAFKNDbAixg9fYMsH8KUIACFKAABbolUF5bnhXKjZ+jKrcpcA6AvmlcyFKItEH1T1BTI62hX9RU1TR3C46NKEABClCAAhSgQAoKsICVgpPGlClAAQpQgAIU+D+ByrmVA2yf6CQBSlVxggD5ANLpN04bgPUieEwMaudOqV/N+acABShAAQpQgAKZJpBOP+4ybe44XgpQgAIUoAAFPidQtXjGCdbVWRC5DNBxALJSGUhE4gpsgtrfQk3dsI9XvxzhOVepPKXMnQIUoAAFKECBHgiwgNUDPDalAAUoQAEKUCBYAuFwOLR13KaLxLXTVeRsQEcGK8NOZCNQKD4BsFIhD2aHWh+dM3npnk605CsUoAAFKEABClAgbQVYwErbqeXAKEABClCAApkr8E8LS/q3SWgSgGsB/QcA/VJCQ6RVoG+qlScdV5fdO6N+bUrkzSQpQAEKUIACFKBAggVYwEowMMNTgAIUoAAFKNB7ApX3lx0n1kxStVcq5O8Du61Q4ELxngieVaCpZur8lSLi3TjIhwIUoAAFKEABClAgzQ445YRSgAIUoAAFKECBvxEoWViSmwOcK8a5BorLAYwNEpMI1kL0GVV9Ii+v5Tezi5tag5Qfc6EABShAAQpQgAJBEOAKrCDMAnOgAAUoQAEKUCChAuFw2Gw/au1QdZwL4eJbKjIe0AEJ7fQwwQXYZRXPC/CoDTm/rp1cu4WrrnpzRtg3BShAAQpQgAJBFmABK8izw9woQAEKUIACFPBVINxYlL29rd84dXEZjF6vitMAZPvayWGCKRAVkTegeMgYPLc9d/eapuKmaDJzYF8UoAAFKEABClAg1QRYwEq1GWO+FKAABShAAQr0WKB6yQ2FUTfnJFG5BsAkCEZBkdDfRQpVgXwoBstc2F/FY7JqwfQFe3s8GAagAAUoQAEKUIACGSCQ0B9qGeDHIVKAAhSgAAUokKIC3rbCnWPWDYqrnAlHygFcokCfRAxHgV3GyOPW6uKQxN4e/OHRzZFIxCaiL8akAAUoQAEKUIAC6SjAAlY6zirHRAEKUIACFKBApwXKa8uzskPxITEHVxjIzZ/eAngSAKfTAQ79YrsCr0DlHnFCLw87ctjOyPhI3KfYDEMBClCAAhSgAAUyRoAFrIyZag6UAhSgAAUoQIFDCVTfXZ3TPqB5oNHsb0ClHIozuy0miAvwnIjMF815MdYW21M3qy7W7XhsSAEKUIACFKAABTJcgAWsDP8AOHwKUIACFKAABf5aoKixyBm+ZXgoXtj6JVV7nQouFciXDnvYu2I3BK8D8oxtN4+OGNC8Hu+dGOdWQX5hFKAABShAAQpQoOcC/wPi0Aa0IHi7jAAAAABJRU5ErkJggg==;" parent="1" vertex="1">
          <mxGeometry x="846.92" y="630" width="44.15" height="27" as="geometry" />
        </mxCell>
        <mxCell id="a18a8NwcEKTHnreSH5_I-20" style="edgeStyle=none;shape=connector;rounded=0;orthogonalLoop=1;jettySize=auto;html=1;exitX=0.5;exitY=0;exitDx=0;exitDy=0;exitPerimeter=0;labelBackgroundColor=default;strokeColor=#808080;strokeWidth=2;align=center;verticalAlign=middle;fontFamily=Helvetica;fontSize=11;fontColor=default;startArrow=none;startFill=0;endArrow=open;endFill=0;dashed=1;dashPattern=1 2;" edge="1" parent="1" source="czXvNrBnFdAudFENNiKl-11">
          <mxGeometry relative="1" as="geometry">
            <mxPoint x="900" y="650" as="targetPoint" />
          </mxGeometry>
        </mxCell>
        <mxCell id="czXvNrBnFdAudFENNiKl-11" value="Cloud&lt;br&gt;Formation" style="sketch=0;points=[[0,0,0],[0.25,0,0],[0.5,0,0],[0.75,0,0],[1,0,0],[0,1,0],[0.25,1,0],[0.5,1,0],[0.75,1,0],[1,1,0],[0,0.25,0],[0,0.5,0],[0,0.75,0],[1,0.25,0],[1,0.5,0],[1,0.75,0]];points=[[0,0,0],[0.25,0,0],[0.5,0,0],[0.75,0,0],[1,0,0],[0,1,0],[0.25,1,0],[0.5,1,0],[0.75,1,0],[1,1,0],[0,0.25,0],[0,0.5,0],[0,0.75,0],[1,0.25,0],[1,0.5,0],[1,0.75,0]];outlineConnect=0;fontColor=#232F3E;fillColor=#E7157B;strokeColor=#ffffff;dashed=0;verticalLabelPosition=bottom;verticalAlign=top;align=center;html=1;fontSize=12;fontStyle=0;aspect=fixed;shape=mxgraph.aws4.resourceIcon;resIcon=mxgraph.aws4.cloudformation;fontFamily=Helvetica;" parent="1" vertex="1">
          <mxGeometry x="891.07" y="700" width="38" height="38" as="geometry" />
        </mxCell>
        <mxCell id="MbnwJV5BuvSq8gmptT3g-2" style="edgeStyle=orthogonalEdgeStyle;shape=connector;rounded=0;orthogonalLoop=1;jettySize=auto;html=1;labelBackgroundColor=default;strokeColor=#808080;strokeWidth=2;align=center;verticalAlign=middle;fontFamily=Helvetica;fontSize=11;fontColor=default;startArrow=none;startFill=0;endArrow=open;endFill=0;" parent="1" source="MbnwJV5BuvSq8gmptT3g-1" target="ktq1L8EpHOIYgB1N7dm--1" edge="1">
          <mxGeometry relative="1" as="geometry" />
        </mxCell>
        <mxCell id="MbnwJV5BuvSq8gmptT3g-1" value="Lambda function" style="sketch=0;outlineConnect=0;fontColor=#232F3E;gradientColor=none;fillColor=#ED7100;strokeColor=none;dashed=0;verticalLabelPosition=bottom;verticalAlign=top;align=center;html=1;fontSize=12;fontStyle=0;aspect=fixed;pointerEvents=1;shape=mxgraph.aws4.lambda_function;" parent="1" vertex="1">
          <mxGeometry x="350" y="320" width="78" height="78" as="geometry" />
        </mxCell>
        <mxCell id="MbnwJV5BuvSq8gmptT3g-4" style="edgeStyle=orthogonalEdgeStyle;shape=connector;rounded=0;orthogonalLoop=1;jettySize=auto;html=1;labelBackgroundColor=default;strokeColor=#808080;strokeWidth=2;align=center;verticalAlign=middle;fontFamily=Helvetica;fontSize=11;fontColor=default;startArrow=none;startFill=0;endArrow=open;endFill=0;" parent="1" source="MbnwJV5BuvSq8gmptT3g-3" target="YLsZjU7J0pvw8m3y-JkY-25" edge="1">
          <mxGeometry relative="1" as="geometry" />
        </mxCell>
        <mxCell id="MbnwJV5BuvSq8gmptT3g-3" value="Web App&lt;br&gt;&amp;lt;&amp;lt; RealTime Calendar &amp;gt;&amp;gt;" style="verticalLabelPosition=bottom;html=1;verticalAlign=top;align=center;strokeColor=none;fillColor=#879196;shape=mxgraph.azure.website_generic;pointerEvents=1;fontFamily=Helvetica;fontSize=11;fontColor=default;" parent="1" vertex="1">
          <mxGeometry x="90" y="507" width="78" height="66" as="geometry" />
        </mxCell>
        <mxCell id="MbnwJV5BuvSq8gmptT3g-7" value="" style="shape=image;html=1;verticalAlign=top;verticalLabelPosition=bottom;labelBackgroundColor=#ffffff;imageAspect=0;aspect=fixed;image=https://cdn4.iconfinder.com/data/icons/scripting-and-programming-languages/512/660277-Python_logo-128.png;fontFamily=Helvetica;fontSize=11;fontColor=default;" parent="1" vertex="1">
          <mxGeometry x="364" y="401" width="50" height="50" as="geometry" />
        </mxCell>
        <mxCell id="MKtu6GntQ_SO6oRm3Pnn-3" style="shape=connector;rounded=0;orthogonalLoop=1;jettySize=auto;html=1;entryX=0.92;entryY=0.5;entryDx=0;entryDy=0;entryPerimeter=0;labelBackgroundColor=default;strokeColor=#808080;strokeWidth=2;align=center;verticalAlign=middle;fontFamily=Helvetica;fontSize=11;fontColor=default;startArrow=open;startFill=0;endArrow=open;endFill=0;exitX=0.005;exitY=0.63;exitDx=0;exitDy=0;exitPerimeter=0;" parent="1" source="a18a8NwcEKTHnreSH5_I-11" target="MbnwJV5BuvSq8gmptT3g-3" edge="1">
          <mxGeometry relative="1" as="geometry">
            <mxPoint x="319.21000000000004" y="786.2" as="sourcePoint" />
          </mxGeometry>
        </mxCell>
        <mxCell id="a18a8NwcEKTHnreSH5_I-12" value="GET" style="edgeLabel;html=1;align=center;verticalAlign=middle;resizable=0;points=[];fontSize=11;fontFamily=Helvetica;fontColor=default;" vertex="1" connectable="0" parent="MKtu6GntQ_SO6oRm3Pnn-3">
          <mxGeometry x="-0.0475" y="-1" relative="1" as="geometry">
            <mxPoint x="22" y="11" as="offset" />
          </mxGeometry>
        </mxCell>
        <mxCell id="czXvNrBnFdAudFENNiKl-1" value="Local&lt;br&gt;Resolver" style="sketch=0;points=[[0,0,0],[0.25,0,0],[0.5,0,0],[0.75,0,0],[1,0,0],[0,1,0],[0.25,1,0],[0.5,1,0],[0.75,1,0],[1,1,0],[0,0.25,0],[0,0.5,0],[0,0.75,0],[1,0.25,0],[1,0.5,0],[1,0.75,0]];outlineConnect=0;fontColor=#232F3E;fillColor=#E7157B;strokeColor=#ffffff;dashed=0;verticalLabelPosition=bottom;verticalAlign=top;align=center;html=1;fontSize=12;fontStyle=0;aspect=fixed;shape=mxgraph.aws4.resourceIcon;resIcon=mxgraph.aws4.appsync;" parent="1" vertex="1">
          <mxGeometry x="642.25" y="591" width="30" height="30" as="geometry" />
        </mxCell>
        <mxCell id="a18a8NwcEKTHnreSH5_I-4" value="GraphQL&amp;nbsp;&lt;br&gt;API" style="aspect=fixed;sketch=0;html=1;dashed=0;whitespace=wrap;fillColor=#2875E2;strokeColor=#ffffff;points=[[0.005,0.63,0],[0.1,0.2,0],[0.9,0.2,0],[0.5,0,0],[0.995,0.63,0],[0.72,0.99,0],[0.5,1,0],[0.28,0.99,0]];shape=mxgraph.kubernetes.icon2;prIcon=api;fontFamily=Helvetica;fontSize=11;fontColor=default;verticalAlign=top;labelPosition=center;verticalLabelPosition=bottom;align=center;" vertex="1" parent="1">
          <mxGeometry x="462" y="481" width="37" height="35.52" as="geometry" />
        </mxCell>
        <mxCell id="a18a8NwcEKTHnreSH5_I-6" style="edgeStyle=none;shape=connector;rounded=0;orthogonalLoop=1;jettySize=auto;html=1;exitX=0.92;exitY=0.5;exitDx=0;exitDy=0;exitPerimeter=0;entryX=0.005;entryY=0.63;entryDx=0;entryDy=0;entryPerimeter=0;labelBackgroundColor=default;strokeColor=#808080;strokeWidth=2;align=center;verticalAlign=middle;fontFamily=Helvetica;fontSize=11;fontColor=default;startArrow=open;startFill=0;endArrow=open;endFill=0;" edge="1" parent="1" source="MbnwJV5BuvSq8gmptT3g-3" target="a18a8NwcEKTHnreSH5_I-4">
          <mxGeometry relative="1" as="geometry" />
        </mxCell>
        <mxCell id="a18a8NwcEKTHnreSH5_I-8" value="query" style="edgeLabel;html=1;align=center;verticalAlign=middle;resizable=0;points=[];fontSize=11;fontFamily=Helvetica;fontColor=default;" vertex="1" connectable="0" parent="a18a8NwcEKTHnreSH5_I-6">
          <mxGeometry x="0.1807" y="-3" relative="1" as="geometry">
            <mxPoint as="offset" />
          </mxGeometry>
        </mxCell>
        <mxCell id="a18a8NwcEKTHnreSH5_I-7" style="edgeStyle=none;shape=connector;rounded=0;orthogonalLoop=1;jettySize=auto;html=1;exitX=0.92;exitY=0.5;exitDx=0;exitDy=0;exitPerimeter=0;entryX=0.005;entryY=0.63;entryDx=0;entryDy=0;entryPerimeter=0;labelBackgroundColor=default;strokeColor=#808080;strokeWidth=2;align=center;verticalAlign=middle;fontFamily=Helvetica;fontSize=11;fontColor=default;startArrow=open;startFill=0;endArrow=open;endFill=0;" edge="1" parent="1" source="MbnwJV5BuvSq8gmptT3g-3" target="YLsZjU7J0pvw8m3y-JkY-35">
          <mxGeometry relative="1" as="geometry" />
        </mxCell>
        <mxCell id="a18a8NwcEKTHnreSH5_I-9" value="subscription" style="edgeLabel;html=1;align=center;verticalAlign=middle;resizable=0;points=[];fontSize=11;fontFamily=Helvetica;fontColor=default;" vertex="1" connectable="0" parent="a18a8NwcEKTHnreSH5_I-7">
          <mxGeometry x="0.1638" relative="1" as="geometry">
            <mxPoint as="offset" />
          </mxGeometry>
        </mxCell>
        <mxCell id="a18a8NwcEKTHnreSH5_I-13" value="GraphQL&lt;br&gt;API" style="aspect=fixed;sketch=0;html=1;dashed=0;whitespace=wrap;fillColor=#2875E2;strokeColor=#ffffff;points=[[0.005,0.63,0],[0.1,0.2,0],[0.9,0.2,0],[0.5,0,0],[0.995,0.63,0],[0.72,0.99,0],[0.5,1,0],[0.28,0.99,0]];shape=mxgraph.kubernetes.icon2;prIcon=api;fontFamily=Helvetica;fontSize=11;fontColor=default;labelPosition=center;verticalLabelPosition=bottom;align=center;verticalAlign=top;" vertex="1" parent="1">
          <mxGeometry x="593" y="561" width="37" height="35.52" as="geometry" />
        </mxCell>
        <mxCell id="a18a8NwcEKTHnreSH5_I-11" value="Public&lt;br&gt;HTTP APIs" style="aspect=fixed;sketch=0;html=1;dashed=0;whitespace=wrap;fillColor=#2875E2;strokeColor=#ffffff;points=[[0.005,0.63,0],[0.1,0.2,0],[0.9,0.2,0],[0.5,0,0],[0.995,0.63,0],[0.72,0.99,0],[0.5,1,0],[0.28,0.99,0]];shape=mxgraph.kubernetes.icon2;kubernetesLabel=1;prIcon=api;fontFamily=Helvetica;fontSize=11;fontColor=default;labelPosition=center;verticalLabelPosition=bottom;align=center;verticalAlign=top;" vertex="1" parent="1">
          <mxGeometry x="462" y="671.24" width="37" height="35.52" as="geometry" />
        </mxCell>
      </root>
    </mxGraphModel>
  </diagram>
</mxfile>
